<?xml version="1.0" encoding="utf-8"?>
<!-- Generator: Adobe Illustrator 19.2.0, SVG Export Plug-In . SVG Version: 6.00 Build 0)  -->
<svg version="1.1" id="Layer_1" xmlns="http://www.w3.org/2000/svg" xmlns:xlink="http://www.w3.org/1999/xlink" x="0px" y="0px"
	 viewBox="0 0 174 67" style="enable-background:new 0 0 174 67;" xml:space="preserve">
<style type="text/css">
	.st0{fill:#FFFFFF;}
</style>
<g>
	<g>
		<path class="st0" d="M49.5,59.9c0,0.1,0,0.5-0.1,0.6c-0.7,1-1.9,1.7-2.4,1.7c-0.4,0-0.5-0.6-0.4-1.5c0.1-0.5,0.1-0.9,0.2-1.6
			c0,0,0,0-0.1,0c-1.2,1.7-2.8,3.1-3.7,3.1c-0.8,0-1-1.2-1-1.9c0-1.6,0.7-3.4,1.8-4.5c0.6-0.6,2.1-1.7,3.7-1.7
			c0.6,0,1.3,0.1,1.7,0.2c-0.2,0.5-0.4,0.9-0.5,1.2c-0.3,1.2-0.7,3.9-0.8,4.7c0,0.4,0.1,0.5,0.2,0.5C48.5,60.7,48.9,60.5,49.5,59.9
			C49.5,59.9,49.5,59.9,49.5,59.9z M46.8,58.4c0.2-0.4,0.4-0.9,0.6-1.5c0.2-0.7,0.4-1.5,0.5-1.7C47.6,55.1,47,55,46.6,55
			c-1,0-1.7,0.5-2.2,1.5c-0.5,1-0.7,2.1-0.7,3c0,1,0.2,1.3,0.6,1.3C44.9,60.8,45.9,59.8,46.8,58.4z"/>
		<path class="st0" d="M53.5,50c-0.4,0-0.8,0.1-1.2,0.2c-0.1-0.1-0.1-0.4,0-0.5c0.4-0.4,1.3-0.7,2.2-0.7c2.3,0,3.2,2.3,3.1,4.6
			c0,3.4-1,6.5-3,7.9c-0.7,0.5-1.5,0.7-2,0.7c-1.3,0-1.9-1.3-1.8-2.7c0-1.4,0.6-3.3,1.9-4.3c1.1-0.8,2.2-1.2,2.7-1.2
			c0.3,0,0.7,0.1,0.9,0.2C56.3,51.6,55.4,50,53.5,50z M55.9,55.3c-0.3-0.3-0.7-0.4-1.2-0.4c-1.5,0-2.4,2.2-2.4,4.1
			c0,1.5,0.4,2.3,1.3,2.3c1.5,0,2.5-3.4,2.6-5.4C56.1,55.6,56,55.5,55.9,55.3z"/>
		<path class="st0" d="M64.7,55.5c0,0.9-0.9,1.6-1.7,2v0.1c1.1,0.2,1.6,0.8,1.6,1.5c0,1.7-2.1,3.1-4.1,3.1c-1.1,0-1.7-0.5-1.7-1.6
			c0-0.4,0-1,0.2-1.6c0.4-2.2,0.8-3.1,1.8-3.9c0.6-0.5,1.6-1,2.3-1C64,54.1,64.7,54.6,64.7,55.5z M60.2,60c0,0.9,0.3,1.5,1.2,1.5
			c0.8,0,1.7-0.7,1.7-1.8c0-1-0.7-1.5-1.7-1.5c-0.3,0-0.7,0.1-1,0.2C60.3,58.9,60.3,59.4,60.2,60z M62.1,57.5c0.8-0.4,1.3-1,1.3-1.6
			c0-0.7-0.3-1-1-1c-0.9,0-1.6,1.5-1.9,3C60.8,57.9,61.6,57.7,62.1,57.5z"/>
		<path class="st0" d="M72.7,56.7c0,2-0.8,3.9-2.6,4.9c-0.8,0.5-1.6,0.7-2.1,0.7c-1.3,0-1.9-1.2-1.9-2.7c0-1.7,0.6-3.5,2-4.5
			c0.8-0.6,2-1,2.7-1C72.2,54.1,72.7,55.5,72.7,56.7z M69,61.4c1.2,0,2.2-2.1,2.2-4.2c0-1.1-0.3-2.2-1.4-2.2c-1.5,0-2.2,2.4-2.2,4.1
			C67.6,60.6,68.1,61.4,69,61.4z"/>
		<path class="st0" d="M81.8,54.4c0,0,0,0.2,0,0.3c-0.1,0.2-0.4,0.9-0.6,1.1c-0.1-0.1-0.5-0.4-1-0.4c-0.9,0-2.1,1.5-2.7,2.2
			c0,0.1-0.1,0.1,0,0.2c0.1,0.1,0.3,0.5,0.6,0.9c1,1.9,1.4,2.4,1.8,2.4c0.4,0,0.7-0.2,1.5-1.1c0,0,0.1,0,0.1,0.1
			c0,0.2-0.1,0.5-0.1,0.6c-0.8,1.2-1.8,1.7-2.4,1.7c-0.4,0-0.7-0.3-1-0.8c-0.4-0.7-1-2-1.3-2.6c-0.1-0.2-0.2-0.3-0.3-0.1
			c-0.2,0.2-0.4,0.7-0.5,1c-0.2,0.8-0.3,1.5-0.3,1.8c-0.2,0.2-1,0.6-1.3,0.6c-0.1,0-0.2-0.2-0.2-0.2c0.1-0.5,1-4.5,1.2-5.9
			c0-0.3,0-0.5-0.1-0.5c-0.2,0-0.6,0.3-1.1,0.7c0,0-0.1,0-0.1-0.1c0-0.2,0-0.5,0.1-0.5c0.7-0.9,2-1.7,2.4-1.7c0.3,0,0.3,0.8,0.2,1.4
			c-0.2,0.9-0.3,1.8-0.5,2.5c0,0.1,0.1,0.1,0.1,0.1c1.2-1.5,3.3-4,4.6-4C81.5,54.1,81.7,54.3,81.8,54.4z"/>
		<path class="st0" d="M90.1,59.9c0,0.1,0,0.5-0.1,0.6c-0.7,1-1.9,1.7-2.4,1.7c-0.4,0-0.5-0.6-0.4-1.5c0.1-0.5,0.1-0.9,0.2-1.6
			c0,0,0,0-0.1,0c-1.2,1.7-2.8,3.1-3.7,3.1c-0.8,0-1-1.2-1-1.9c0-1.6,0.7-3.4,1.8-4.5c0.6-0.6,2.1-1.7,3.7-1.7
			c0.6,0,1.3,0.1,1.7,0.2c-0.2,0.5-0.4,0.9-0.5,1.2c-0.3,1.2-0.7,3.9-0.8,4.7c0,0.4,0.1,0.5,0.2,0.5C89.1,60.7,89.5,60.5,90.1,59.9
			C90.1,59.9,90.1,59.9,90.1,59.9z M87.4,58.4c0.2-0.4,0.4-0.9,0.6-1.5c0.2-0.7,0.4-1.5,0.5-1.7c-0.2-0.1-0.8-0.2-1.2-0.2
			c-1,0-1.7,0.5-2.2,1.5c-0.5,1-0.7,2.1-0.7,3c0,1,0.2,1.3,0.6,1.3C85.5,60.8,86.5,59.8,87.4,58.4z"/>
		<path class="st0" d="M91.3,56.3c0-0.2,0-0.4,0.1-0.6c0.8-0.9,1.9-1.7,2.4-1.7c0.3,0,0.3,0.6,0.2,1.4c-0.1,0.7-0.2,1.2-0.4,1.9
			c0,0,0.1,0,0.1,0c1.4-2,3.2-3.3,4-3.3c0.6,0,0.8,0.6,0.6,1.9c-0.1,0.5-0.2,1.1-0.2,1.5c0,0,0.1,0,0.1,0c1.4-1.9,3.2-3.4,4.1-3.4
			c0.7,0,0.7,0.8,0.4,2.6c-0.3,1.4-0.5,2.4-0.7,3.4c0,0.3,0,0.6,0.2,0.6c0.2,0,0.5-0.1,1.2-0.8c0,0,0.1,0,0.1,0.1
			c0,0.1-0.1,0.5-0.1,0.6c-0.9,1.2-2,1.7-2.4,1.7c-0.4,0-0.5-0.7-0.3-1.9c0.3-1.6,0.6-2.6,0.8-3.8c0.2-0.7,0.2-1.2-0.2-1.2
			c-0.6,0-2,1.2-2.9,2.9c-0.2,0.3-0.5,1-0.7,1.7c-0.1,0.6-0.3,1.2-0.3,1.7c-0.2,0.2-1.1,0.6-1.3,0.6c-0.1,0-0.2-0.1-0.1-0.3
			c0.1-0.7,0.8-3.5,1-5.3c0.2-0.9,0.1-1.2-0.3-1.2c-0.6,0-1.7,0.9-2.8,2.8c-0.2,0.3-0.4,0.7-0.6,1.3c-0.2,0.7-0.5,1.7-0.4,2.1
			c-0.3,0.3-1.2,0.6-1.3,0.6c-0.1,0-0.2-0.2-0.1-0.3c0-0.2,0.1-0.5,0.2-1.1c0.3-1.4,0.8-3.6,1-4.7c0.1-0.4,0-0.5-0.1-0.5
			C92.2,55.7,91.8,56,91.3,56.3C91.3,56.4,91.3,56.4,91.3,56.3z"/>
		<path class="st0" d="M106.1,58.9c0,1.2,0.3,2.1,1.3,2.1c0.6,0,1.4-0.3,2.4-1.5c0,0,0.1,0.1,0.1,0.1c0,0.1,0,0.5-0.1,0.6
			c-1,1.3-2.4,2-3.3,2c-0.7,0-1.2-0.3-1.5-0.9c-0.2-0.4-0.3-1.1-0.3-1.6c0-1.6,0.6-3.5,2.1-4.6c0.8-0.6,1.8-1,2.3-1
			c0.7,0,1.1,0.2,1.2,0.4c0.1,0.1,0.1,0.2,0,0.3c-0.1,0.2-0.5,0.9-0.7,1c0,0-0.2,0-0.2,0c-0.5-0.5-0.9-0.7-1.4-0.7
			C107,55.1,106.1,57,106.1,58.9z"/>
		<path class="st0" d="M118.8,54.4c0,0,0,0.2,0,0.3c-0.1,0.2-0.4,0.9-0.6,1.1c-0.1-0.1-0.5-0.4-1-0.4c-0.9,0-2.1,1.5-2.7,2.2
			c0,0.1-0.1,0.1,0,0.2c0.1,0.1,0.3,0.5,0.6,0.9c1,1.9,1.4,2.4,1.8,2.4c0.4,0,0.7-0.2,1.5-1.1c0,0,0.1,0,0.1,0.1
			c0,0.2-0.1,0.5-0.1,0.6c-0.8,1.2-1.8,1.7-2.4,1.7c-0.4,0-0.7-0.3-1-0.8c-0.4-0.7-1-2-1.3-2.6c-0.1-0.2-0.2-0.3-0.3-0.1
			c-0.2,0.2-0.4,0.7-0.5,1c-0.2,0.8-0.3,1.5-0.3,1.8c-0.2,0.2-1,0.6-1.3,0.6c-0.1,0-0.2-0.2-0.2-0.2c0.1-0.5,1-4.5,1.2-5.9
			c0-0.3,0-0.5-0.1-0.5c-0.2,0-0.6,0.3-1.1,0.7c0,0-0.1,0-0.1-0.1c0-0.2,0-0.5,0.1-0.5c0.7-0.9,2-1.7,2.4-1.7c0.3,0,0.3,0.8,0.2,1.4
			c-0.2,0.9-0.3,1.8-0.5,2.5c0,0.1,0.1,0.1,0.1,0.1c1.2-1.5,3.3-4,4.6-4C118.5,54.1,118.8,54.3,118.8,54.4z"/>
		<path class="st0" d="M126.4,56.7c0,2-0.8,3.9-2.6,4.9c-0.8,0.5-1.6,0.7-2.1,0.7c-1.3,0-1.9-1.2-1.9-2.7c0-1.7,0.6-3.5,2-4.5
			c0.8-0.6,2-1,2.7-1C126,54.1,126.4,55.5,126.4,56.7z M122.7,61.4c1.2,0,2.2-2.1,2.2-4.2c0-1.1-0.3-2.2-1.4-2.2
			c-1.5,0-2.2,2.4-2.2,4.1C121.4,60.6,121.8,61.4,122.7,61.4z"/>
		<path class="st0" d="M133.4,55.3c0,0.9-0.7,1.6-1.9,2.2c-0.8,0.4-1.6,0.7-2.2,0.9c-0.1,0-0.1,0.1-0.1,0.2c0,0.1,0,0.2,0,0.4
			c0,1.2,0.4,2,1.4,2c0.7,0,1.6-0.3,2.5-1.3c0,0,0.1,0.1,0.1,0.1c0,0.1-0.1,0.4-0.1,0.6c-0.9,1.2-2.3,1.9-3.5,1.9
			c-1.4,0-1.8-1.3-1.8-2.6c0-1.4,0.5-3.3,1.6-4.3c0.8-0.7,2-1.2,2.7-1.2C132.8,54.1,133.3,54.6,133.4,55.3z M129.4,57.6
			C129.3,57.7,129.4,57.7,129.4,57.6c0.7,0,1.4-0.3,2-0.6c0.4-0.3,0.7-0.7,0.7-1.2c0-0.4-0.2-0.8-0.8-0.8
			C130.6,55,129.6,55.8,129.4,57.6z"/>
		<path class="st0" d="M144.8,56.6c0,1.9-1.1,4.1-2.8,5.1c-0.6,0.4-1.3,0.6-1.8,0.6c-1.4,0-2-1.3-2-3c0-2.6,1-5.8,3.1-7.8
			c0.9-0.8,1.7-1.3,2.8-1.7c1.1-0.4,1.6-0.5,2-0.8c0.1,0,0.2,0.1,0.2,0.2c-0.1,0.7-0.6,1.5-1.2,1.8c-0.5,0.2-1.2,0.4-2.1,0.6
			c-0.8,0.2-1.3,0.5-1.7,1c-0.7,0.7-1.2,2-1.4,3.5c0,0,0,0.1,0.1,0.1c1.1-1.3,2.5-1.9,3.2-1.9C144.4,54.1,144.8,55.3,144.8,56.6z
			 M140,57c-0.2,0.5-0.3,1.2-0.4,1.7c-0.1,1.5,0.2,2.7,1.3,2.7c1.3,0,2.2-2.4,2.3-4.2c0-1.2-0.3-2.1-1.1-2.1
			C141.4,55.1,140.5,55.9,140,57z"/>
		<path class="st0" d="M146.2,56.4c0-0.1,0-0.5,0.1-0.5c0.8-0.9,1.9-1.7,2.4-1.7c0.3,0,0.3,0.8,0.2,1.5c-0.1,0.7-0.3,1.5-0.4,2
			c0,0.1,0,0.2,0.1,0.2c0.2,0,1.2,0,1.4,0c0.3-1,0.8-2,1.7-2.7c0.9-0.7,1.8-1,2.5-1c1.5,0,2,1.4,2,2.6c0,2-0.8,4-2.6,5
			c-0.8,0.4-1.5,0.6-2,0.6c-1.3,0-1.9-1.3-1.9-2.6c0-0.3,0-0.7,0.1-1.1c-0.1,0-1.4,0.1-1.5,0.1c0,0.1-0.3,1.3-0.3,1.3
			c-0.2,0.7-0.3,1.5-0.3,1.8c-0.2,0.2-1,0.6-1.3,0.6c-0.1,0-0.2-0.1-0.2-0.2c0.1-0.5,1-4.5,1.2-5.9c0-0.3,0-0.5-0.1-0.5
			C147.1,55.7,146.7,56,146.2,56.4C146.2,56.4,146.2,56.4,146.2,56.4z M152.5,61.3c1.2,0,2.2-2,2.2-4.2c0-1.1-0.2-2.2-1.3-2.2
			c-1.5,0-2.2,2.6-2.2,4C151.1,60.6,151.5,61.3,152.5,61.3z"/>
		<path class="st0" d="M163,60.9c-0.8,0.7-1.9,1.3-2.8,1.3c-0.3,0-0.8-0.1-1-0.3c-0.1,0.6-0.4,2.2-0.5,3.2c0,0.5,0,0.7,0.5,0.7
			c0.3,0.1,0.7,0.1,1,0.1c0.1,0.1,0,0.5-0.1,0.5c-1.1,0-2.9,0.2-4.4,0.5c0-0.1,0-0.5,0-0.5c0.3-0.1,0.6-0.2,0.8-0.3
			c0.4-0.2,0.6-0.4,0.7-0.9c0.1-0.6,0.4-2.1,0.7-3.6c0.2-1.4,0.8-4.6,1-5.8c0-0.2,0-0.4-0.1-0.4c-0.2,0-0.6,0.3-1.1,0.8
			c0,0-0.1,0-0.1,0c0-0.1,0-0.5,0.1-0.6c0.6-0.7,2.3-2.1,2.6-2.1c0.1,0,0.2,0.2,0.2,0.4c0,0.6-0.2,1.6-0.4,2.7c0,0,0.1,0,0.1,0
			c1.1-1.4,2.7-2.6,3.6-2.6c0.7,0,1.2,0.9,1.2,2.2C164.9,58.2,164.1,59.9,163,60.9z M162.1,60.8c0.9-0.8,1.3-2.5,1.3-4
			c0-1.2-0.3-1.5-0.7-1.5c-0.6,0-1.6,0.7-2.6,2.1c-0.2,0.2-0.4,0.6-0.5,1.1c-0.2,0.6-0.3,1.4-0.3,1.8c0,0.2,0,0.3,0.1,0.4
			c0.2,0.4,0.8,0.7,1.3,0.7C161.3,61.3,161.7,61.2,162.1,60.8z"/>
		<path class="st0" d="M172.8,56.7c0,2-0.8,3.9-2.6,4.9c-0.8,0.5-1.6,0.7-2.1,0.7c-1.3,0-1.9-1.2-1.9-2.7c0-1.7,0.6-3.5,2-4.5
			c0.8-0.6,2-1,2.7-1C172.3,54.1,172.8,55.5,172.8,56.7z M169.1,61.4c1.2,0,2.2-2.1,2.2-4.2c0-1.1-0.3-2.2-1.4-2.2
			c-1.5,0-2.2,2.4-2.2,4.1C167.7,60.6,168.1,61.4,169.1,61.4z"/>
	</g>
	<g>
		<path class="st0" d="M0.5,15.2L7,0.2h2.3l6.5,15h-2.5l-1.6-3.7H4.5l-1.6,3.7H0.5z M5.3,9.4h5.4L8.1,3.1L5.3,9.4z"/>
		<path class="st0" d="M20.6,13.3c-1.5-1.5-2.2-3.3-2.2-5.6c0-2.2,0.7-4.1,2.2-5.5C22,0.7,23.9,0,26.2,0c1.5,0,2.9,0.3,4,1v2.4
			c-1.2-0.8-2.6-1.2-4-1.2c-1.6,0-2.9,0.5-3.9,1.6c-1,1-1.6,2.4-1.6,4c0,1.6,0.5,2.9,1.6,4c1.1,1,2.4,1.6,4,1.6
			c1.7,0,3.1-0.4,4.3-1.4v2.4c-1.2,0.8-2.7,1.2-4.4,1.2C23.9,15.4,22.1,14.7,20.6,13.3z"/>
		<path class="st0" d="M33.4,0.3h12.2v2.1h-4.9v12.7h-2.3V2.4h-4.9V0.3z"/>
		<path class="st0" d="M47.4,15.2l6.5-15h2.3l6.5,15h-2.5l-1.6-3.7h-7.1l-1.6,3.7H47.4z M52.3,9.4h5.4L55,3.1L52.3,9.4z"/>
		<path class="st0" d="M67.3,15.2V0.3h2.3V13h5.6V0.3h2.3V13h5.6V0.3h2.3v14.9H67.3z"/>
		<path class="st0" d="M92.3,15.2V0.3h2.3v6.1l6.1-6.1h3l-6.9,6.8l8,8.1h-3.2l-7-7.1v7.1H92.3z"/>
		<path class="st0" d="M110,15.2V0.3h10.6v2.1h-8.3v3.7h6.7v2.1h-6.7V13h8.5v2.1H110z"/>
		<path class="st0" d="M126.8,15.2V0.3h6.8c2.7,0,4.4,1.4,4.4,3.7c0,1.5-0.9,2.6-2,3.1c1.8,0.3,3.2,1.8,3.2,4c0,1.3-0.4,2.3-1.4,3
			c-0.9,0.8-2.1,1.1-3.7,1.1H126.8z M129.2,6.3h4c1.6,0,2.5-0.7,2.5-1.9s-0.9-1.9-2.5-1.9h-4V6.3z M129.2,13h4.6
			c1.8,0,2.9-0.9,2.9-2.4c0-1.5-1.1-2.3-2.9-2.3h-4.6V13z"/>
		<path class="st0" d="M144.5,15.2V0.3h2.3v10.9L155,0.3h2v14.9h-2.3v-11l-8.2,11H144.5z"/>
		<path class="st0" d="M171.2,15.2V8.9c-1.2,0.4-2.5,0.7-3.8,0.7c-3.6,0-5.4-1.6-5.4-4.7V0.3h2.3v4.1c0,2.2,1.1,3,3.4,3
			c1.3,0,2.4-0.3,3.5-0.7V0.3h2.3v14.9H171.2z"/>
		<path class="st0" d="M15.2,36.1V21.2h2.3v10.9l8.2-10.9h2v14.9h-2.3v-11l-8.2,11H15.2z"/>
		<path class="st0" d="M39.5,36.1V21.2h12.1v14.9h-2.3V23.4h-7.4v12.7H39.5z"/>
		<path class="st0" d="M56.1,36.1l6.5-15h2.3l6.5,15h-2.5l-1.6-3.7h-7.1l-1.6,3.7H56.1z M60.9,30.3h5.4l-2.7-6.3L60.9,30.3z"/>
		<path class="st0" d="M75.8,36.1V21.2h6.4c1.6,0,2.8,0.4,3.6,1.2c0.9,0.8,1.3,1.8,1.3,3.1c0,1.3-0.4,2.4-1.3,3.2
			c-0.9,0.8-2.1,1.2-3.6,1.2h-4.1v6.1H75.8z M78.1,27.8H82c1.8,0,2.8-0.8,2.8-2.2c0-1.4-1-2.2-2.8-2.2h-3.9V27.8z"/>
		<path class="st0" d="M90.8,21.2H103v2.1h-4.9v12.7h-2.3V23.4h-4.9V21.2z"/>
		<path class="st0" d="M107.7,36.1V21.2h2.3v5.9h7.8v-5.9h2.3v14.9h-2.3v-6.9H110v6.9H107.7z"/>
		<path class="st0" d="M126,36.1V21.2h10.6v2.1h-8.3v3.7h6.7v2.1h-6.7v4.7h8.5v2.1H126z"/>
		<path class="st0" d="M141.7,36.1V21.2h6.4c1.6,0,2.8,0.4,3.6,1.2c0.9,0.8,1.3,1.8,1.3,3.1c0,1.3-0.4,2.4-1.3,3.2
			c-0.9,0.8-2.1,1.2-3.6,1.2h-4.1v6.1H141.7z M144.1,27.8h3.9c1.8,0,2.8-0.8,2.8-2.2c0-1.4-1-2.2-2.8-2.2h-3.9V27.8z"/>
		<path class="st0" d="M157.9,36.1V21.2h2.3v5.1h3.3c1.7,0,3.1,0.4,4.1,1.4c1,0.9,1.5,2.1,1.5,3.5c0,1.4-0.5,2.6-1.5,3.5
			c-1,0.9-2.3,1.3-4.1,1.3H157.9z M160.3,33.9h3.2c2.1,0,3.3-1,3.3-2.7c0-1.7-1.3-2.7-3.3-2.7h-3.2V33.9z M171.2,36.1V21.2h2.3v14.9
			H171.2z"/>
	</g>
	<g>
		<rect x="0.4" y="42.5" class="st0" width="55.8" height="2.9"/>
		<rect x="59.1" y="42.5" class="st0" width="55.8" height="2.9"/>
		<rect x="117.8" y="42.5" class="st0" width="55.8" height="2.9"/>
	</g>
</g>
</svg>
