<?xml version="1.0" encoding="UTF-8" standalone="no"?>
<svg width="171px" height="67px" viewBox="0 0 171 67" version="1.1" xmlns="http://www.w3.org/2000/svg" xmlns:xlink="http://www.w3.org/1999/xlink" xmlns:sketch="http://www.bohemiancoding.com/sketch/ns">
    <!-- Generator: Sketch 3.3.3 (12072) - http://www.bohemiancoding.com/sketch -->
    <title>AP Logo Colors@2x</title>
    <desc>Created with Sketch.</desc>
    <defs></defs>
    <g id="Page-1" stroke="none" stroke-width="1" fill="none" fill-rule="evenodd" sketch:type="MSPage">
        <g id="Practices" sketch:type="MSArtboardGroup" transform="translate(-170.000000, -44.000000)">
            <g id="AP-Logo-Colors" sketch:type="MSLayerGroup" transform="translate(170.000000, 44.000000)">
                <path d="M48.4177266,59.2540939 C48.4362883,59.3672315 48.3987431,59.7627907 48.360776,59.8379342 C47.6647129,60.8181781 46.5159979,61.5527277 46.0262226,61.5527277 C45.6309431,61.5527277 45.4993239,61.006037 45.6309431,60.0827841 C45.7064554,59.6310783 45.7625623,59.1975252 45.8760417,58.5566939 C45.8946034,58.5191221 45.8380746,58.5191221 45.8195129,58.5381191 C44.6522362,60.1769247 43.0896801,61.5527277 42.1856418,61.5527277 C41.4136445,61.5527277 41.1879513,60.3846249 41.1879513,59.6500753 C41.1879513,58.0294223 41.8279075,56.3146289 42.9196719,55.18452 C43.5410664,54.5626857 44.9909869,53.5452922 46.5915102,53.5452922 C47.1559541,53.5452922 47.8338773,53.6204358 48.2671239,53.7149985 C48.0410088,54.2232731 47.9093896,54.5816827 47.8153156,54.9016762 C47.5136883,56.1263477 47.0808636,58.7078254 47.0243349,59.4989438 C47.0057732,59.894503 47.0808636,60.0266375 47.2124828,60.0266375 C47.4006308,60.0266375 47.7773486,59.8189373 48.3422143,59.1975252 C48.3422143,59.1975252 48.4177266,59.2161 48.4177266,59.2540939 L48.4177266,59.2540939 Z M45.7250171,57.7655755 C45.9701157,57.3510193 46.1392801,56.8988913 46.2903047,56.296054 C46.4594691,55.636648 46.6476171,54.8075356 46.7421129,54.6002575 C46.5535431,54.506117 45.9701157,54.4119764 45.5183074,54.4119764 C44.5577404,54.4119764 43.880239,54.9206731 43.3339349,55.9194918 C42.8070363,56.8798944 42.6184664,58.0294223 42.6184664,58.8209629 C42.6184664,59.7627907 42.8445815,60.1203559 43.2023157,60.1203559 C43.8232884,60.1203559 44.8589459,59.1599534 45.7250171,57.7655755 L45.7250171,57.7655755 Z" id="Fill-1" fill="#857874" sketch:type="MSShapeGroup"></path>
                <path d="M52.2954308,49.5132901 C51.9381184,49.5132901 51.4673266,49.5698589 51.1091706,49.7015712 C51.0155184,49.6264276 51.0340801,49.306012 51.1285759,49.2118715 C51.5609788,48.8353092 52.4084883,48.5148936 53.2745595,48.5148936 C55.5340225,48.5148936 56.3811102,50.7755335 56.3621267,53.0365955 C56.343565,56.3336258 55.420965,59.4238002 53.3686335,60.7991811 C52.6535869,61.2888809 51.8811678,61.5151559 51.3728308,61.5151559 C50.0929184,61.5151559 49.5466144,60.2529126 49.5841596,58.8585347 C49.6221267,57.4641568 50.1680089,55.6556449 51.4858883,54.6002575 C52.5405294,53.7711452 53.6137321,53.4511517 54.1410526,53.4511517 C54.4608198,53.4511517 54.8371157,53.5262953 54.9877185,53.6204358 C55.100776,51.0959491 54.1596143,49.5132901 52.2954308,49.5132901 L52.2954308,49.5132901 Z M54.6304061,54.713395 C54.3667458,54.4495482 53.9710445,54.2988389 53.4066006,54.2988389 C51.9756636,54.2988389 51.0530636,56.5033321 51.0340801,58.3684128 C51.0155184,59.8189373 51.4107979,60.591903 52.3144143,60.591903 C53.8204417,60.591903 54.7810088,57.2378818 54.8371157,55.2972354 C54.8560993,55.0338107 54.7810088,54.8641044 54.6304061,54.713395 L54.6304061,54.713395 Z" id="Fill-2" fill="#857874" sketch:type="MSShapeGroup"></path>
                <path d="M63.3088363,54.8831013 C63.3088363,55.7687825 62.4427651,56.4843352 61.6517843,56.8798944 L61.6517843,56.9554601 C62.7629541,57.1437412 63.233324,57.7655755 63.233324,58.4629755 C63.233324,60.1017811 61.1248856,61.5337308 59.2231569,61.5337308 C58.1874994,61.5337308 57.5475432,61.025034 57.509998,59.9514939 C57.4910144,59.5365156 57.5285597,59.009244 57.6606007,58.349838 C58.0558802,56.1639195 58.4887049,55.2596636 59.4302884,54.48712 C60.0326994,53.9598484 60.9742829,53.5452922 61.7272966,53.5452922 C62.6684582,53.5452922 63.3088363,54.0164172 63.3088363,54.8831013 L63.3088363,54.8831013 Z M58.9219514,59.3296597 C58.8844062,60.2529126 59.2417186,60.7991811 60.0892281,60.7991811 C60.8612254,60.7991811 61.7648418,60.1017811 61.7648418,59.0658128 C61.7648418,58.0669941 61.1059021,57.6338631 60.1267733,57.6338631 C59.8255678,57.6338631 59.4492719,57.6900098 59.1100994,57.7845725 C59.0160254,58.2742722 58.9594966,58.7643942 58.9219514,59.3296597 L58.9219514,59.3296597 Z M60.7291843,56.8423226 C61.5391486,56.4843352 61.9719733,55.8625009 61.9719733,55.2786606 C61.9719733,54.6378293 61.6707678,54.2612671 61.0118281,54.2612671 C60.0892281,54.2612671 59.4492719,55.7307885 59.1856117,57.2378818 C59.4678336,57.219307 60.2588144,57.0310258 60.7291843,56.8423226 L60.7291843,56.8423226 Z" id="Fill-3" fill="#857874" sketch:type="MSShapeGroup"></path>
                <path d="M71.177724,56.0322072 C71.177724,57.9728536 70.3871651,59.894503 68.6360391,60.8933217 C67.8830254,61.3450275 67.0355159,61.5527277 66.5837077,61.5527277 C65.3413405,61.5527277 64.7574912,60.3280562 64.7574912,58.9336783 C64.7574912,57.2948727 65.322357,55.5045135 66.6782035,54.506117 C67.4873241,53.9032797 68.6360391,53.5077204 69.2949789,53.5077204 C70.7073541,53.5077204 71.177724,54.8831013 71.177724,56.0322072 L71.177724,56.0322072 Z M67.5442747,60.6484718 C68.7490966,60.6484718 69.7092419,58.6322596 69.7092419,56.5409039 C69.7092419,55.4293699 69.4455816,54.3554076 68.3538172,54.3364107 C66.9038967,54.3364107 66.1884282,56.6916132 66.1884282,58.349838 C66.1884282,59.875506 66.6026912,60.6484718 67.5442747,60.6484718 L67.5442747,60.6484718 Z" id="Fill-4" fill="#857874" sketch:type="MSShapeGroup"></path>
                <path d="M80.0451459,53.8467109 C80.0637076,53.8842827 80.0826912,54.053989 80.0637076,54.1295547 C80.0076007,54.3364107 79.7063952,55.0523855 79.4612967,55.2220918 C79.3857844,55.165523 79.0094884,54.8265326 78.4821679,54.8265326 C77.6165185,54.8265326 76.4112748,56.296054 75.8653926,56.9744571 C75.8278473,57.0310258 75.7903021,57.0871725 75.8278473,57.1251664 C75.940483,57.2378818 76.166598,57.5772944 76.3927131,57.9728536 C77.3904035,59.8189373 77.7671213,60.3280562 78.199946,60.3280562 C78.5576802,60.3280562 78.9339761,60.1583499 79.6869898,59.2161 C79.7249569,59.1975252 79.7814857,59.2540939 79.8000474,59.3110848 C79.8190309,59.461372 79.7439405,59.8003625 79.7063952,59.8569312 C78.9154145,61.0436088 77.8987405,61.5527277 77.37142,61.5527277 C76.995124,61.5527277 76.6745132,61.2888809 76.3733077,60.7611872 C75.9970118,60.0827841 75.432146,58.8209629 75.1123789,58.2367004 C74.9993213,58.0484193 74.923809,57.9728536 74.7921898,58.1421377 C74.5660748,58.3874098 74.3964885,58.782969 74.3028364,59.1409564 C74.1142666,59.9700687 73.9636638,60.6109 74.0201926,60.9498904 C73.8316228,61.1001776 73.0220803,61.5151559 72.75842,61.5527277 C72.6647679,61.5713026 72.5892556,61.3830214 72.6078173,61.3074557 C72.6647679,60.779762 73.586946,56.8988913 73.7565323,55.5235104 C73.7940775,55.2596636 73.7755159,55.0523855 73.6434748,55.0523855 C73.4553268,55.0523855 73.0220803,55.3917981 72.6078173,55.7873573 C72.5892556,55.8063543 72.5327269,55.7497855 72.5327269,55.7117916 C72.5141652,55.5425074 72.5517104,55.2410888 72.5892556,55.18452 C73.3047241,54.3364107 74.509546,53.5077204 74.9613543,53.5077204 C75.2815433,53.5077204 75.2439981,54.2612671 75.1309405,54.9206731 C74.9803378,55.8249291 74.7921898,56.7106102 74.6601488,57.3885911 C74.6415871,57.445582 74.7166775,57.5017286 74.7546446,57.4641568 C75.9594665,56.0132102 78.0303597,53.5262953 79.2921322,53.5262953 C79.7814857,53.5262953 80.0076007,53.7525703 80.0451459,53.8467109" id="Fill-5" fill="#857874" sketch:type="MSShapeGroup"></path>
                <path d="M88.2717679,59.2540939 C88.2907515,59.3672315 88.2532063,59.7627907 88.215661,59.8379342 C87.5187542,60.8181781 86.3700392,61.5527277 85.8806858,61.5527277 C85.4854063,61.5527277 85.3533652,61.006037 85.4854063,60.0827841 C85.5604967,59.6310783 85.6170255,59.1975252 85.730083,58.5566939 C85.7490666,58.5191221 85.6925378,58.5191221 85.6735543,58.5381191 C84.5062776,60.1769247 82.9432995,61.5527277 82.0396831,61.5527277 C81.2676858,61.5527277 81.0419927,60.3846249 81.0419927,59.6500753 C81.0419927,58.0294223 81.6819488,56.3146289 82.7741351,55.18452 C83.3955296,54.5626857 84.8450283,53.5452922 86.4455515,53.5452922 C87.0104173,53.5452922 87.6883405,53.6204358 88.1211652,53.7149985 C87.8950502,54.2232731 87.763431,54.5816827 87.669357,54.9016762 C87.3681515,56.1263477 86.934905,58.7078254 86.878798,59.4989438 C86.8593927,59.894503 86.934905,60.0266375 87.066946,60.0266375 C87.255094,60.0266375 87.6318118,59.8189373 88.1962556,59.1975252 C88.1962556,59.1975252 88.2717679,59.2161 88.2717679,59.2540939 L88.2717679,59.2540939 Z M85.5794803,57.7655755 C85.8245789,57.3510193 85.9937433,56.8988913 86.144346,56.296054 C86.3139323,55.636648 86.5020803,54.8075356 86.5961542,54.6002575 C86.4080063,54.506117 85.8245789,54.4119764 85.3723488,54.4119764 C84.4122036,54.4119764 83.7347022,54.9206731 83.1883981,55.9194918 C82.6614994,56.8798944 82.4729296,58.0294223 82.4729296,58.8209629 C82.4729296,59.7627907 82.6990447,60.1203559 83.056357,60.1203559 C83.6777516,60.1203559 84.7134091,59.1599534 85.5794803,57.7655755 L85.5794803,57.7655755 Z" id="Fill-6" fill="#857874" sketch:type="MSShapeGroup"></path>
                <path d="M89.382094,55.6932167 C89.344127,55.5425074 89.4006557,55.2596636 89.4571845,55.1469482 C90.2857105,54.2232731 91.3589132,53.5077204 91.8107214,53.5077204 C92.1119269,53.5077204 92.1304886,54.0915608 91.9988694,54.9206731 C91.8858119,55.5610822 91.7731762,56.1077729 91.6411351,56.7857538 C91.6601187,56.8047508 91.6976639,56.7857538 91.7162256,56.7857538 C93.1100392,54.8455296 94.8417598,53.5077204 95.6892693,53.5077204 C96.2537132,53.5077204 96.442283,54.1105577 96.2726968,55.3538041 C96.216168,55.8814979 96.1031105,56.4277664 96.02802,56.8423226 C96.0470036,56.8613195 96.0845488,56.8798944 96.1031105,56.8423226 C97.458957,54.939248 99.2666117,53.5077204 100.170228,53.5077204 C100.84773,53.5077204 100.904258,54.3178358 100.546524,56.1077729 C100.282864,57.445582 100.019204,58.4815503 99.8880063,59.461372 C99.850461,59.7252189 99.8690227,60.0076405 100.057593,60.0076405 C100.245319,60.0076405 100.546524,59.875506 101.205464,59.1975252 C101.224447,59.1975252 101.262414,59.2355191 101.262414,59.3110848 C101.262414,59.4048032 101.205464,59.7627907 101.167919,59.8569312 C100.282864,60.9874622 99.210083,61.5527277 98.7768364,61.5527277 C98.3625734,61.5527277 98.3060447,60.8367529 98.5131762,59.7062219 C98.8143817,58.1801317 99.0594802,57.1437412 99.304157,55.9380666 C99.4551816,55.2220918 99.4737432,54.8075356 99.1155872,54.8075356 C98.5131762,54.8075356 97.1952967,56.0132102 96.2537132,57.6148662 C96.0470036,57.9538566 95.7643598,58.5756909 95.5762118,59.3110848 C95.4445926,59.8569312 95.2750063,60.5353343 95.293568,61.006037 C95.1244036,61.1761655 94.2583324,61.5713026 94.0326392,61.5713026 C93.9571269,61.5713026 93.862631,61.4775842 93.9005981,61.2513091 C93.9946721,60.591903 94.6536118,57.8407191 94.9172721,56.0512042 C95.067453,55.18452 94.9738008,54.8265326 94.6536118,54.8265326 C94.1077296,54.8265326 93.0155434,55.7307885 91.8672502,57.5587196 C91.6976639,57.8221443 91.4905324,58.2367004 91.2834009,58.8771095 C91.0387242,59.5935065 90.8315927,60.572906 90.907105,60.9498904 C90.6244612,61.2137373 89.7769516,61.5337308 89.6263489,61.5527277 C89.5326968,61.5527277 89.4757462,61.3830214 89.4951515,61.2513091 C89.5137132,61.0626058 89.570242,60.7421902 89.6832995,60.1963438 C90.0220502,58.782969 90.4552968,56.6730384 90.6244612,55.5800792 C90.6809899,55.2220918 90.6434447,55.0523855 90.5303872,55.0523855 C90.304694,55.0523855 89.9279762,55.3538041 89.4571845,55.7687825 C89.4196393,55.7687825 89.382094,55.7307885 89.382094,55.6932167" id="Fill-7" fill="#857874" sketch:type="MSShapeGroup"></path>
                <path d="M103.991404,58.2742722 C103.991404,59.461372 104.292609,60.3280562 105.290721,60.3280562 C105.855587,60.3280562 106.664708,60.0266375 107.663242,58.8961065 C107.681804,58.9146813 107.738332,58.9526753 107.738332,59.009244 C107.756894,59.1223816 107.700787,59.5175186 107.625697,59.6125035 C106.646146,60.9123186 105.27216,61.5337308 104.368121,61.5337308 C103.671215,61.5337308 103.200845,61.1947403 102.937184,60.6484718 C102.711069,60.2153408 102.598434,59.5365156 102.598434,59.0278189 C102.598434,57.4831538 103.163299,55.5425074 104.631782,54.4685452 C105.440902,53.8657079 106.382486,53.5077204 106.890823,53.5077204 C107.549763,53.5077204 107.945464,53.7149985 108.077083,53.9218545 C108.133612,53.9974202 108.133612,54.1671265 108.114628,54.2232731 C108.039538,54.4495482 107.606291,55.0713825 107.380598,55.2030948 C107.343053,55.2220918 107.211012,55.2220918 107.173467,55.2030948 C106.721658,54.6943981 106.288412,54.4685452 105.798637,54.4685452 C104.800946,54.4685452 103.991404,56.3336258 103.991404,58.2742722" id="Fill-8" fill="#857874" sketch:type="MSShapeGroup"></path>
                <path d="M116.416763,53.8467109 C116.435324,53.8842827 116.454308,54.053989 116.435324,54.1295547 C116.379217,54.3364107 116.07759,55.0523855 115.832913,55.2220918 C115.757823,55.165523 115.381527,54.8265326 114.854206,54.8265326 C113.988135,54.8265326 112.782891,56.296054 112.237009,56.9744571 C112.199464,57.0310258 112.161497,57.0871725 112.199464,57.1251664 C112.312521,57.2378818 112.538215,57.5772944 112.76433,57.9728536 C113.761598,59.8189373 114.138738,60.3280562 114.571563,60.3280562 C114.929297,60.3280562 115.305593,60.1583499 116.059028,59.2161 C116.096574,59.1975252 116.153102,59.2540939 116.171664,59.3110848 C116.190648,59.461372 116.115557,59.8003625 116.07759,59.8569312 C115.286609,61.0436088 114.270357,61.5527277 113.743037,61.5527277 C113.366741,61.5527277 113.046552,61.2888809 112.745346,60.7611872 C112.36905,60.0827841 111.804184,58.8209629 111.483995,58.2367004 C111.370516,58.0484193 111.295426,57.9728536 111.164228,58.1421377 C110.937691,58.3874098 110.768105,58.782969 110.674031,59.1409564 C110.485883,59.9700687 110.33528,60.6109 110.391809,60.9498904 C110.204083,61.1001776 109.394119,61.5151559 109.130459,61.5527277 C109.036385,61.5713026 108.960872,61.3830214 108.979434,61.3074557 C109.036385,60.779762 109.958985,56.8988913 110.128149,55.5235104 C110.165694,55.2596636 110.146711,55.0523855 110.015513,55.0523855 C109.826943,55.0523855 109.394119,55.3917981 108.979434,55.7873573 C108.960872,55.8063543 108.904343,55.7497855 108.904343,55.7117916 C108.885782,55.5425074 108.923327,55.2410888 108.960872,55.18452 C109.676763,54.3364107 110.881584,53.5077204 111.332971,53.5077204 C111.65316,53.5077204 111.615615,54.2612671 111.502979,54.9206731 C111.351954,55.8249291 111.164228,56.7106102 111.031765,57.3885911 C111.013204,57.445582 111.088294,57.5017286 111.126261,57.4641568 C112.331505,56.0132102 114.401976,53.5262953 115.663749,53.5262953 C116.153102,53.5262953 116.379217,53.7525703 116.416763,53.8467109" id="Fill-9" fill="#857874" sketch:type="MSShapeGroup"></path>
                <path d="M123.909354,56.0322072 C123.909354,57.9728536 123.118374,59.894503 121.367248,60.8933217 C120.614656,61.3450275 119.767146,61.5527277 119.314916,61.5527277 C118.072549,61.5527277 117.4887,60.3280562 117.4887,58.9336783 C117.4887,57.2948727 118.053565,55.5045135 119.409412,54.506117 C120.218954,53.9032797 121.367248,53.5077204 122.026187,53.5077204 C123.438563,53.5077204 123.909354,54.8831013 123.909354,56.0322072 L123.909354,56.0322072 Z M120.275905,60.6484718 C121.480727,60.6484718 122.440872,58.6322596 122.440872,56.5409039 C122.440872,55.4293699 122.177212,54.3554076 121.085026,54.3364107 C119.635527,54.3364107 118.919637,56.6916132 118.919637,58.349838 C118.919637,59.875506 119.334322,60.6484718 120.275905,60.6484718 L120.275905,60.6484718 Z" id="Fill-10" fill="#857874" sketch:type="MSShapeGroup"></path>
                <path d="M130.724023,54.713395 C130.743006,55.636648 130.046522,56.3146289 128.897807,56.9178883 C128.125387,57.3324445 127.33525,57.5962913 126.770385,57.7845725 C126.713856,57.8031473 126.656905,57.878713 126.656905,57.9538566 C126.638344,58.0484193 126.61936,58.1991286 126.61936,58.330841 C126.61936,59.4989438 127.015061,60.3090592 127.99419,60.3090592 C128.727798,60.3090592 129.556746,59.9700687 130.478924,58.9902471 C130.497908,58.9902471 130.572998,59.0468158 130.572998,59.1033846 C130.572998,59.2161 130.497908,59.5175186 130.441379,59.6500753 C129.575308,60.8181781 128.144371,61.5337308 127.052607,61.5337308 C125.715744,61.5337308 125.263935,60.2714874 125.263935,58.9336783 C125.263935,57.5772944 125.77185,55.7307885 126.88302,54.732392 C127.636456,54.053989 128.878823,53.5077204 129.556746,53.5077204 C130.196702,53.5077204 130.686478,54.0164172 130.724023,54.713395 L130.724023,54.713395 Z M126.770385,56.9930319 C126.751401,57.0496007 126.788946,57.0871725 126.826492,57.0871725 C127.410341,56.9744571 128.162933,56.7106102 128.727798,56.3716198 C129.161467,56.1077729 129.425127,55.7117916 129.425127,55.165523 C129.425127,54.732392 129.180028,54.3554076 128.671691,54.3554076 C127.975207,54.3554076 127.052607,55.18452 126.770385,56.9930319 L126.770385,56.9930319 Z" id="Fill-11" fill="#857874" sketch:type="MSShapeGroup"></path>
                <path d="M141.906171,55.9946354 C141.906171,57.8601382 140.852374,60.0076405 139.157355,60.9874622 C138.536382,61.3450275 137.877442,61.5337308 137.425634,61.5337308 C136.051226,61.5337308 135.448815,60.2904844 135.467377,58.6132627 C135.48636,56.1077729 136.465067,52.885464 138.554944,50.9072458 C139.402453,50.1161274 140.230979,49.6074307 141.30376,49.2494433 C142.339418,48.872881 142.828771,48.7783183 143.224472,48.4203309 C143.299563,48.4017561 143.431182,48.5148936 143.431182,48.5900372 C143.318546,49.2494433 142.848176,50.0599808 142.264327,50.3424025 C141.812097,50.5682554 141.134596,50.7189647 140.193434,50.9452398 C139.439998,51.1525179 138.932083,51.4349395 138.498837,51.9250615 C137.783368,52.6596111 137.350122,53.9218545 137.086461,55.3352293 C137.086461,55.3538041 137.105023,55.3917981 137.143412,55.3917981 C138.253738,54.1105577 139.553478,53.5262953 140.325053,53.5262953 C141.529875,53.5262953 141.925155,54.732392 141.906171,55.9946354 L141.906171,55.9946354 Z M137.256048,56.3901946 C137.029933,56.8988913 136.917297,57.5207256 136.898313,58.0484193 C136.823223,59.4799468 137.067478,60.6670466 138.216193,60.6670466 C139.496105,60.6670466 140.418705,58.2932692 140.438111,56.5223291 C140.438111,55.2972354 140.098938,54.506117 139.345924,54.506117 C138.611472,54.506117 137.727261,55.3162323 137.256048,56.3901946 L137.256048,56.3901946 Z" id="Fill-12" fill="#857874" sketch:type="MSShapeGroup"></path>
                <path d="M143.261596,55.7307885 C143.22405,55.598654 143.280157,55.2596636 143.317703,55.2030948 C144.070716,54.2988389 145.219431,53.5077204 145.690223,53.5077204 C145.991429,53.5077204 145.972445,54.3178358 145.859387,54.9768197 C145.746752,55.6742198 145.595727,56.4467634 145.483092,56.9744571 C145.483092,57.0310258 145.501653,57.1251664 145.576744,57.1251664 C145.746752,57.1627382 146.763004,57.1251664 146.970557,57.1061694 C147.252779,56.0887759 147.761538,55.1089543 148.608204,54.48712 C149.455292,53.8467109 150.415437,53.5077204 151.093782,53.5077204 C152.543702,53.5077204 153.032634,54.8831013 153.032634,56.0322072 C153.032634,57.9538566 152.242497,59.9139221 150.491371,60.9123186 C149.737935,61.3450275 149.022889,61.5337308 148.570659,61.5337308 C147.32787,61.5337308 146.725459,60.2904844 146.725459,58.9336783 C146.725459,58.6702536 146.744442,58.2367004 146.800549,57.8601382 C146.66893,57.89771 145.407579,57.9538566 145.294522,57.9352818 C145.275538,58.0294223 145.031283,59.2161 145.031283,59.2161 C144.880259,59.8569312 144.711516,60.6670466 144.730078,60.9498904 C144.560492,61.1571685 143.731966,61.5151559 143.468305,61.5527277 C143.392793,61.5713026 143.317703,61.4210154 143.317703,61.3264527 C143.374231,60.7991811 144.315393,56.8798944 144.485401,55.5045135 C144.522946,55.2410888 144.522946,55.0523855 144.390483,55.0523855 C144.165212,55.0523855 143.750527,55.3728011 143.336686,55.7873573 C143.317703,55.7873573 143.280157,55.7687825 143.261596,55.7307885 L143.261596,55.7307885 Z M149.455292,60.6109 C150.62299,60.6109 151.582714,58.6702536 151.582714,56.5223291 C151.582714,55.4103729 151.338881,54.3554076 150.265256,54.3554076 C148.834319,54.3554076 148.11885,56.8798944 148.11885,58.330841 C148.11885,59.894503 148.533113,60.6109 149.455292,60.6109 L149.455292,60.6109 Z" id="Fill-13" fill="#857874" sketch:type="MSShapeGroup"></path>
                <path d="M159.753229,60.2153408 C158.999793,60.8743247 157.90845,61.5151559 156.966867,61.5151559 C156.628116,61.5151559 156.19487,61.3830214 155.968755,61.2323121 C155.856119,61.8541464 155.592459,63.3612396 155.498385,64.3972079 C155.479401,64.8497581 155.53593,65.0574583 155.968755,65.1326019 C156.26996,65.1887485 156.6471,65.1887485 156.929322,65.2077455 C156.985851,65.2828891 156.91076,65.6602956 156.834826,65.7164422 C155.7245,65.7164422 154.010919,65.9232982 152.542437,66.187145 C152.504892,66.1120014 152.523453,65.7354392 152.579982,65.6788704 C152.918733,65.5843077 153.125864,65.5281611 153.389525,65.4150236 C153.822349,65.2453173 153.935829,65.0574583 154.086009,64.4917706 C154.218472,63.9455021 154.481289,62.3818401 154.726388,60.9498904 C154.971064,59.5935065 155.53593,56.4467634 155.686111,55.2410888 C155.705516,55.0523855 155.686111,54.8831013 155.554914,54.8831013 C155.384905,54.8831013 154.952081,55.2030948 154.443744,55.6742198 C154.406199,55.6742198 154.34967,55.6742198 154.331108,55.636648 C154.312125,55.5045135 154.368653,55.165523 154.406199,55.0713825 C155.027593,54.3739825 156.628116,53.0175985 157.004412,53.0175985 C157.098486,53.0175985 157.249511,53.2248766 157.249511,53.4321547 C157.211966,54.0164172 157.004412,54.9958167 156.816264,56.0887759 C156.816264,56.1077729 156.872371,56.1077729 156.91076,56.0887759 C158.002103,54.6943981 159.564659,53.5077204 160.487259,53.5077204 C161.184587,53.5077204 161.654535,54.3929794 161.654535,55.6932167 C161.654535,57.5587196 160.864398,59.2540939 159.753229,60.2153408 L159.753229,60.2153408 Z M158.887157,60.1017811 C159.790774,59.2912436 160.205037,57.6714349 160.205037,56.2209105 C160.205037,55.0899573 159.884848,54.7509668 159.527114,54.7509668 C158.981231,54.7509668 157.964557,55.4483669 157.004412,56.8237477 C156.853809,57.0496007 156.6471,57.445582 156.552604,57.878713 C156.402001,58.4815503 156.251398,59.2912436 156.232415,59.6125035 C156.213431,59.7627907 156.251398,59.9139221 156.288944,59.9700687 C156.53362,60.3846249 157.098486,60.6294748 157.607245,60.6294748 C158.153127,60.6294748 158.473316,60.4973403 158.887157,60.1017811 L158.887157,60.1017811 Z" id="Fill-14" fill="#857874" sketch:type="MSShapeGroup"></path>
                <path d="M169.411209,56.0322072 C169.411209,57.9728536 168.620229,59.894503 166.869103,60.8933217 C166.116511,61.3450275 165.269001,61.5527277 164.816771,61.5527277 C163.574404,61.5527277 162.990555,60.3280562 162.990555,58.9336783 C162.990555,57.2948727 163.55542,55.5045135 164.911267,54.506117 C165.720388,53.9032797 166.869103,53.5077204 167.528042,53.5077204 C168.940418,53.5077204 169.411209,54.8831013 169.411209,56.0322072 L169.411209,56.0322072 Z M165.777338,60.6484718 C166.982582,60.6484718 167.942727,58.6322596 167.942727,56.5409039 C167.942727,55.4293699 167.679067,54.3554076 166.586881,54.3364107 C165.137382,54.3364107 164.421492,56.6916132 164.421492,58.349838 C164.421492,59.875506 164.836177,60.6484718 165.777338,60.6484718 L165.777338,60.6484718 Z" id="Fill-15" fill="#857874" sketch:type="MSShapeGroup"></path>
                <path d="M0.245520435,42.0799854 L56.8848068,42.0799854 L56.8848068,44.9025135 L0.245520435,44.9025135 L0.245520435,42.0799854 Z" id="Fill-16" fill="#008588" sketch:type="MSShapeGroup"></path>
                <path d="M56.8848068,42.0799854 L113.524093,42.0799854 L113.524093,44.9025135 L56.8848068,44.9025135 L56.8848068,42.0799854 Z" id="Fill-17" fill="#005A80" sketch:type="MSShapeGroup"></path>
                <path d="M113.524093,42.0799854 L170.163379,42.0799854 L170.163379,44.9025135 L113.524093,44.9025135 L113.524093,42.0799854 Z" id="Fill-18" fill="#857874" sketch:type="MSShapeGroup"></path>
                <path d="M0.245520435,15.2676567 L6.63284845,0.562732577 L8.84506351,0.562732577 L15.2323915,15.2676567 L12.7695938,15.2676567 L11.1829918,11.6329024 L4.2531564,11.6329024 L2.68806909,15.2676567 L0.245520435,15.2676567 L0.245520435,15.2676567 Z M5.04624647,9.60698068 L10.3899017,9.60698068 L7.71828501,3.46631447 L5.04624647,9.60698068 L5.04624647,9.60698068 Z" id="Fill-19" fill="#005A80" sketch:type="MSShapeGroup"></path>
                <path d="M19.9799636,13.4084862 C18.518653,11.9672491 17.7884196,10.1502941 17.7884196,7.9567769 C17.7884196,5.76368182 18.518653,3.94630467 19.9799636,2.52617535 C21.4412743,1.08493828 23.2780371,0.374451459 25.490674,0.374451459 C26.9929047,0.374451459 28.3078312,0.708798197 29.4565462,1.35638392 L29.4565462,3.67485902 C28.2660674,2.90189327 26.9511409,2.52617535 25.5109231,2.52617535 C23.9875996,2.52617535 22.6933441,3.04795889 21.6703423,4.0716847 C20.6477624,5.09498835 20.1470188,6.3901598 20.1470188,7.9567769 C20.1470188,9.523394 20.6688552,10.8396732 21.6914351,11.8629768 C22.7351079,12.8867027 24.0293634,13.3878006 25.5944507,13.3878006 C27.2434874,13.3878006 28.6423633,12.9487594 29.7691418,12.0508358 L29.7691418,14.3693109 C28.5588358,15.1422767 27.1392889,15.5391023 25.490674,15.5391023 C23.2987081,15.5391023 21.4619452,14.8290377 19.9799636,13.4084862" id="Fill-20" fill="#005A80" sketch:type="MSShapeGroup"></path>
                <path d="M32.6014858,0.646319261 L44.5615371,0.646319261 L44.5615371,2.75582765 L39.7190473,2.75582765 L39.7190473,15.2676567 L37.4233047,15.2676567 L37.4233047,2.75582765 L32.6014858,2.75582765 L32.6014858,0.646319261" id="Fill-21" fill="#005A80" sketch:type="MSShapeGroup"></path>
                <path d="M46.3329122,15.2676567 L52.7202402,0.562732577 L54.9324553,0.562732577 L61.3197833,15.2676567 L58.8569855,15.2676567 L57.2703835,11.6329024 L50.3405482,11.6329024 L48.775039,15.2676567 L46.3329122,15.2676567 L46.3329122,15.2676567 Z M51.1336382,9.60698068 L56.4772935,9.60698068 L53.8052549,3.46631447 L51.1336382,9.60698068 L51.1336382,9.60698068 Z" id="Fill-22" fill="#005A80" sketch:type="MSShapeGroup"></path>
                <path d="M65.8551616,15.2676567 L65.8551616,0.646319261 L68.151748,0.646319261 L68.151748,13.1577261 L73.5996017,13.1577261 L73.5996017,0.646319261 L75.8953444,0.646319261 L75.8953444,13.1577261 L81.3431981,13.1577261 L81.3431981,0.646319261 L83.6393626,0.646319261 L83.6393626,15.2676567 L65.8551616,15.2676567" id="Fill-23" fill="#005A80" sketch:type="MSShapeGroup"></path>
                <path d="M90.404674,15.2676567 L90.404674,0.646319261 L92.7008385,0.646319261 L92.7008385,6.62023426 L98.6916215,0.646319261 L101.63407,0.646319261 L94.8717116,7.33029892 L102.719928,15.2676567 L99.5889101,15.2676567 L92.7008385,8.24890814 L92.7008385,15.2676567 L90.404674,15.2676567" id="Fill-24" fill="#005A80" sketch:type="MSShapeGroup"></path>
                <path d="M107.773346,15.2676567 L107.773346,0.646319261 L118.16831,0.646319261 L118.16831,2.75582765 L110.069511,2.75582765 L110.069511,6.41084539 L116.665236,6.41084539 L116.665236,8.52077594 L110.069511,8.52077594 L110.069511,13.1577261 L118.439564,13.1577261 L118.439564,15.2676567 L107.773346,15.2676567" id="Fill-25" fill="#005A80" sketch:type="MSShapeGroup"></path>
                <path d="M124.286072,15.2676567 L124.286072,0.646319261 L130.923561,0.646319261 C133.532321,0.646319261 135.223543,1.9828619 135.223543,4.23843591 C135.223543,5.74257407 134.388268,6.82920097 133.28216,7.24671224 C135.056488,7.58105897 136.392086,9.0011883 136.392086,11.15249 C136.392086,12.3847604 135.954199,13.3878006 135.056488,14.1396586 C134.179449,14.8915166 132.989814,15.2676567 131.46649,15.2676567 L124.286072,15.2676567 L124.286072,15.2676567 Z M126.582237,6.53664757 L130.527016,6.53664757 C132.050761,6.53664757 132.94805,5.8679541 132.94805,4.63568374 C132.94805,3.40341338 132.050761,2.75582765 130.527016,2.75582765 L126.582237,2.75582765 L126.582237,6.53664757 L126.582237,6.53664757 Z M126.582237,13.1577261 L131.048852,13.1577261 C132.82318,13.1577261 133.908617,12.3011737 133.908617,10.8185654 C133.908617,9.37732838 132.864522,8.56256928 131.048852,8.56256928 L126.582237,8.56256928 L126.582237,13.1577261 L126.582237,13.1577261 Z" id="Fill-26" fill="#005A80" sketch:type="MSShapeGroup"></path>
                <path d="M141.622262,15.2676567 L141.622262,0.646319261 L143.918426,0.646319261 L143.918426,11.3825645 L151.954369,0.646319261 L153.958187,0.646319261 L153.958187,15.2676567 L151.662023,15.2676567 L151.662023,4.48961812 L143.584316,15.2676567 L141.622262,15.2676567" id="Fill-27" fill="#005A80" sketch:type="MSShapeGroup"></path>
                <path d="M167.837263,15.2676567 L167.837263,9.14725392 C166.647206,9.58587293 165.394714,9.79483964 164.079788,9.79483964 C160.573317,9.79483964 158.820082,8.24890814 158.820082,5.15788944 L158.820082,0.646319261 L161.116247,0.646319261 L161.116247,4.69858483 C161.116247,6.87099431 162.159498,7.64353791 164.434991,7.64353791 C165.687061,7.64353791 166.814261,7.39277786 167.837263,6.9123655 L167.837263,0.646319261 L170.133006,0.646319261 L170.133006,15.2676567 L167.837263,15.2676567" id="Fill-28" fill="#005A80" sketch:type="MSShapeGroup"></path>
                <path d="M14.7497878,35.8304032 L14.7497878,21.2090658 L17.0459523,21.2090658 L17.0459523,31.945311 L25.0818952,21.2090658 L27.0857131,21.2090658 L27.0857131,35.8304032 L24.7895487,35.8304032 L24.7895487,25.0519425 L16.711842,35.8304032 L14.7497878,35.8304032" id="Fill-29" fill="#005A80" sketch:type="MSShapeGroup"></path>
                <path d="M38.5766601,35.8304032 L38.5766601,21.2090658 L50.4531838,21.2090658 L50.4531838,35.8304032 L48.1574412,35.8304032 L48.1574412,23.3185741 L40.8728246,23.3185741 L40.8728246,35.8304032 L38.5766601,35.8304032" id="Fill-30" fill="#005A80" sketch:type="MSShapeGroup"></path>
                <path d="M54.8181322,35.8304032 L61.2054602,21.1254791 L63.4176752,21.1254791 L69.8050033,35.8304032 L67.3422055,35.8304032 L65.7556035,32.1956489 L58.8253463,32.1956489 L57.260259,35.8304032 L54.8181322,35.8304032 L54.8181322,35.8304032 Z M59.6188582,30.169305 L64.9620916,30.169305 L62.2904749,24.029061 L59.6188582,30.169305 L59.6188582,30.169305 Z" id="Fill-31" fill="#005A80" sketch:type="MSShapeGroup"></path>
                <path d="M74.1695298,35.8304032 L74.1695298,21.2090658 L80.4526592,21.2090658 C81.9764046,21.2090658 83.1660397,21.6054693 84.0219864,22.3995428 C84.8981822,23.1725085 85.3369128,24.1958122 85.3369128,25.4491903 C85.3369128,26.723254 84.8981822,27.7676654 84.0219864,28.5824245 C83.1660397,29.3967614 81.9764046,29.7935871 80.4526592,29.7935871 L76.4656942,29.7935871 L76.4656942,35.8304032 L74.1695298,35.8304032 L74.1695298,35.8304032 Z M76.4656942,27.6840787 L80.2645113,27.6840787 C81.9970756,27.6840787 83.0196555,26.8900052 83.0196555,25.4905615 C83.0196555,24.0915399 81.9970756,23.3185741 80.2645113,23.3185741 L76.4656942,23.3185741 L76.4656942,27.6840787 L76.4656942,27.6840787 Z" id="Fill-32" fill="#005A80" sketch:type="MSShapeGroup"></path>
                <path d="M88.9496912,21.2090658 L100.909742,21.2090658 L100.909742,23.3185741 L96.0672527,23.3185741 L96.0672527,35.8304032 L93.7715101,35.8304032 L93.7715101,23.3185741 L88.9496912,23.3185741 L88.9496912,21.2090658" id="Fill-33" fill="#005A80" sketch:type="MSShapeGroup"></path>
                <path d="M105.504181,35.8304032 L105.504181,21.2090658 L107.800345,21.2090658 L107.800345,26.9735919 L115.41865,26.9735919 L115.41865,21.2090658 L117.714815,21.2090658 L117.714815,35.8304032 L115.41865,35.8304032 L115.41865,29.0835224 L107.800345,29.0835224 L107.800345,35.8304032 L105.504181,35.8304032" id="Fill-34" fill="#005A80" sketch:type="MSShapeGroup"></path>
                <path d="M123.436031,35.8304032 L123.436031,21.2090658 L133.830574,21.2090658 L133.830574,23.3185741 L125.732196,23.3185741 L125.732196,26.9735919 L132.327921,26.9735919 L132.327921,29.0835224 L125.732196,29.0835224 L125.732196,33.7204726 L134.101827,33.7204726 L134.101827,35.8304032 L123.436031,35.8304032" id="Fill-35" fill="#005A80" sketch:type="MSShapeGroup"></path>
                <path d="M138.904663,35.8304032 L138.904663,21.2090658 L145.187792,21.2090658 C146.711537,21.2090658 147.901173,21.6054693 148.757119,22.3995428 C149.633315,23.1725085 150.072046,24.1958122 150.072046,25.4491903 C150.072046,26.723254 149.633315,27.7676654 148.757119,28.5824245 C147.901173,29.3967614 146.711537,29.7935871 145.187792,29.7935871 L141.200827,29.7935871 L141.200827,35.8304032 L138.904663,35.8304032 L138.904663,35.8304032 Z M141.200827,27.6840787 L144.999644,27.6840787 C146.732208,27.6840787 147.754788,26.8900052 147.754788,25.4905615 C147.754788,24.0915399 146.732208,23.3185741 144.999644,23.3185741 L141.200827,23.3185741 L141.200827,27.6840787 L141.200827,27.6840787 Z" id="Fill-36" fill="#005A80" sketch:type="MSShapeGroup"></path>
                <path d="M154.812024,35.8304032 L154.812024,21.2090658 L157.108189,21.2090658 L157.108189,26.2635272 L160.38517,26.2635272 C162.075548,26.2635272 163.411567,26.7025684 164.392805,27.600492 C165.373622,28.4988378 165.853694,29.6475215 165.853694,31.0676508 C165.853694,32.4670945 165.352529,33.6157782 164.371713,34.5137018 C163.390475,35.3917842 162.075548,35.8304032 160.38517,35.8304032 L154.812024,35.8304032 L154.812024,35.8304032 Z M157.108189,33.7204726 L160.259878,33.7204726 C162.326131,33.7204726 163.515766,32.7385402 163.515766,31.0676508 C163.515766,29.3760758 162.284367,28.3730356 160.259878,28.3730356 L157.108189,28.3730356 L157.108189,33.7204726 L157.108189,33.7204726 Z M167.836841,21.2090658 L170.132584,21.2090658 L170.132584,35.8304032 L167.836841,35.8304032 L167.836841,21.2090658 Z" id="Fill-37" fill="#005A80" sketch:type="MSShapeGroup"></path>
            </g>
        </g>
    </g>
</svg>