<?xml version="1.0" encoding="UTF-8" standalone="no"?>
<svg width="45px" height="45px" viewBox="0 0 45 45" version="1.1" xmlns="http://www.w3.org/2000/svg" xmlns:xlink="http://www.w3.org/1999/xlink">
    <!-- Generator: Sketch 3.7.2 (28276) - http://www.bohemiancoding.com/sketch -->
    <title>Shape + Shape Copy</title>
    <desc>Created with Sketch.</desc>
    <defs></defs>
    <g id="Page-1" stroke="none" stroke-width="1" fill="none" fill-rule="evenodd">
        <g id="Mainpage-image-1-–-1280-Copy-2" transform="translate(-221.000000, -645.000000)" fill="#FFFFFF">
            <g id="Shape-+-Shape-Copy" transform="translate(243.500000, 667.500000) rotate(-180.000000) translate(-243.500000, -667.500000) translate(221.000000, 645.000000)">
                <path d="M22.119,44.237 C9.922,44.237 0,34.315 0,22.119 C0,9.923 9.922,0.001 22.119,0.001 C34.316,0.001 44.238,9.923 44.238,22.119 C44.238,34.315 34.314,44.237 22.119,44.237 L22.119,44.237 Z M22.119,1.501 C10.75,1.501 1.5,10.75 1.5,22.119 C1.5,33.487 10.75,42.737 22.119,42.737 C33.488,42.737 42.738,33.487 42.738,22.119 C42.738,10.75 33.488,1.501 22.119,1.501 L22.119,1.501 Z" id="Shape"></path>
                <path d="M24.667,29.884 C24.475,29.884 24.283,29.812 24.137,29.664 L16.809,22.33 C16.517,22.037 16.517,21.562 16.809,21.269 L24.137,13.936 C24.43,13.643 24.905,13.643 25.198,13.936 C25.491,14.229 25.491,14.704 25.198,14.997 L18.4,21.8 L25.198,28.605 C25.49,28.898 25.49,29.374 25.198,29.666 C25.051,29.812 24.859,29.884 24.667,29.884 L24.667,29.884 Z" id="Shape"></path>
            </g>
        </g>
    </g>
</svg>