<?xml version="1.0" encoding="utf-8"?>
<!-- Generator: Adobe Illustrator 19.2.0, SVG Export Plug-In . SVG Version: 6.00 Build 0)  -->
<svg version="1.1" id="Layer_1" xmlns="http://www.w3.org/2000/svg" xmlns:xlink="http://www.w3.org/1999/xlink" x="0px" y="0px"
	 viewBox="0 0 313 175" style="enable-background:new 0 0 313 175;" xml:space="preserve">
<style type="text/css">
	.st0{fill:#FFFFFF;}
	.st1{fill:#847874;}
	.st2{fill:#258487;}
	.st3{fill:none;}
</style>
<title>Group</title>
<desc>Created with Sketch.</desc>
<g>
	<g>
		<g>
			<g>
				<path class="st0" d="M194.6,149.7c0,1.1,0,2.2,0,3.3l22.7,22.7h7.8l-30.5-30.5C194.6,146.7,194.6,148.2,194.6,149.7z"/>
				<path class="st1" d="M226.5,176.3H217l-23-23v-0.2c0-1.1,0-2.2,0-3.3c0-1.5,0-3,0-4.5v-1.4L226.5,176.3z M217.5,175.1h6.1
					l-28.4-28.4c0,1,0,2.1,0,3.1s0,2,0,3L217.5,175.1z"/>
			</g>
			<g>
				<path class="st0" d="M194.6,145.2l30.5,30.5h7.8l-38-38C194.7,140.2,194.6,142.7,194.6,145.2z"/>
				<path class="st1" d="M234.3,176.3h-9.5L194,145.5v-0.3c0-2.5,0.1-5.1,0.2-7.6l0.1-1.4L234.3,176.3z M225.3,175.1h6.1l-36-36
					c-0.1,2-0.1,3.9-0.2,5.9L225.3,175.1z"/>
			</g>
			<g>
				<path class="st0" d="M194.8,137.7l38,38h3.3c0.1-1.4,0.3-2.7,0.4-4.1l-41.3-41.3C195.1,132.7,194.9,135.2,194.8,137.7z"/>
				<path class="st1" d="M236.7,176.3h-4.1l-38.4-38.4v-0.3c0.1-2.5,0.2-5,0.4-7.4l0.1-1.3l42.4,42.4v0.3c-0.1,1.6-0.2,2.9-0.4,4.1
					L236.7,176.3z M233.1,175.1h2.5c0.1-1,0.2-2.1,0.3-3.3l-40.1-40.1c-0.1,1.9-0.2,3.8-0.3,5.8L233.1,175.1z"/>
			</g>
			<g>
				<path class="st0" d="M194.8,161l14.7,14.7h7.8L194.6,153C194.6,155.7,194.7,158.4,194.8,161z"/>
				<path class="st1" d="M218.7,176.3h-9.5l-15-15v-0.2c-0.1-2.7-0.2-5.4-0.2-8v-1.5L218.7,176.3z M209.7,175.1h6.1l-20.6-20.6
					c0,2.1,0.1,4.2,0.2,6.3L209.7,175.1z"/>
			</g>
			<g>
				<path class="st0" d="M195.8,175.7h5.9l-6.4-6.4C195.4,171.5,195.6,173.6,195.8,175.7z"/>
				<path class="st1" d="M203.1,176.3h-7.9l-0.1-0.5c-0.2-2.1-0.4-4.2-0.5-6.4l-0.1-1.6L203.1,176.3z M196.3,175.1h3.9l-4.2-4.2
					C196.1,172.3,196.2,173.7,196.3,175.1z"/>
			</g>
			<g>
				<path class="st0" d="M195.2,169.3l6.4,6.4h7.8L194.7,161C194.9,163.8,195,166.6,195.2,169.3z"/>
				<path class="st1" d="M210.9,176.3h-9.5l-6.8-6.8v-0.2c-0.2-2.6-0.3-5.4-0.5-8.3l-0.1-1.5L210.9,176.3z M201.9,175.1h6.1
					l-12.6-12.6c0.1,2.2,0.2,4.4,0.4,6.5L201.9,175.1z"/>
			</g>
			<g>
				<path class="st0" d="M215.1,87.8l18.6,18.6c-0.7-3.6-1.4-6.9-2.2-10l-8.8-8.8l8.8,8.8c-3.9-15-9.4-24.3-15.6-24.3
					c-5.3,0-10.1,6.9-13.8,18.3l34.1,34.1c-0.3-3-0.6-6-1-8.8l-28-28l28,28c-0.4-3.2-0.9-6.3-1.5-9.3L215.1,87.8z"/>
				<path class="st1" d="M237,126.1l-35.5-35.5l0.1-0.4c4-12.3,9-18.7,14.4-18.7c6.2,0,11.9,8.7,16.1,24.6v0.2l0,0l0.6,2.1l0,0
					c0.6,2.5,1.2,5.1,1.7,7.7l0,0v0.2l0,0l0.4,1.9l0,0c0.4,2.3,0.8,4.7,1.1,7.2l0,0v0.2c0,0,0,0,0,0.1l0.2,1.7l0,0
					c0.3,2.3,0.6,4.7,0.8,7.1L237,126.1z M202.8,90.3l32.6,32.6c-0.2-2.3-0.5-4.7-0.8-6.9l-27.9-27.9l0.9-0.9l26.8,26.8
					c-0.4-2.5-0.8-5-1.2-7.3l-18.5-18.5l0.9-0.9l17.2,17.2c-0.5-2.8-1.1-5.4-1.8-7.9l-8.7-8.7l0.9-0.9l7.2,7.2
					c-3.9-13.8-9.1-21.7-14.4-21.7C211.2,72.7,206.6,78.9,202.8,90.3z"/>
			</g>
			<g>
				<path class="st0" d="M198.9,102.8l38.3,38.3c-0.1-2.8-0.2-5.5-0.4-8.2l-36.5-36.5C199.9,98.5,199.4,100.6,198.9,102.8z"/>
				<path class="st1" d="M237.9,142.6L198.3,103l0.1-0.3c0.5-2.2,1-4.3,1.5-6.3l0.3-1l37.4,37.4v0.2c0.2,2.7,0.3,5.4,0.4,8.2
					L237.9,142.6z M199.6,102.6l37,37c-0.1-2.1-0.2-4.3-0.3-6.4l-35.6-35.6C200.3,99.2,199.9,100.9,199.6,102.6z"/>
			</g>
			<g>
				<path class="st0" d="M200.4,96.5l36.5,36.5c-0.2-2.9-0.4-5.7-0.7-8.5l-34.1-34.1C201.5,92.3,200.9,94.3,200.4,96.5z"/>
				<path class="st1" d="M237.6,134.5l-37.8-37.8l0.1-0.3c0.6-2.1,1.1-4.2,1.8-6.1l0.3-0.9l34.9,34.9v0.2c0.3,2.8,0.5,5.6,0.7,8.5
					L237.6,134.5z M201.1,96.3l35.1,35.1c-0.2-2.2-0.3-4.5-0.5-6.6l-33.2-33.2C201.9,93.1,201.5,94.6,201.1,96.3z"/>
			</g>
			<g>
				<path class="st0" d="M197.7,109.3l39.7,39.7c0-2.7-0.1-5.3-0.1-7.9L199,102.8C198.5,104.9,198.1,107.1,197.7,109.3z"/>
				<path class="st1" d="M238,150.5l-41-40.9l0.1-0.3c0.4-2.2,0.8-4.5,1.2-6.6l0.2-1.1l39.3,39.3v0.2c0.1,2.6,0.1,5.3,0.1,7.9
					L238,150.5z M198.3,109.1l38.4,38.4c0-2.1-0.1-4.2-0.1-6.2l-37.4-37.4C198.9,105.7,198.6,107.4,198.3,109.1z"/>
			</g>
			<g>
				<path class="st0" d="M195.8,123.1l41.2,41.2c0.1-2.5,0.2-5,0.3-7.5l-40.6-40.6C196.4,118.4,196.1,120.7,195.8,123.1z"/>
				<path class="st1" d="M237.5,165.6l-42.3-42.3V123c0.2-2.4,0.5-4.7,0.8-7l0.2-1.2l41.7,41.7v0.3c-0.1,2.4-0.2,5-0.3,7.5
					L237.5,165.6z M196.5,122.9l40,40c0.1-2,0.2-4,0.2-5.9l-39.6-39.6C196.9,119.2,196.7,121,196.5,122.9z"/>
			</g>
			<g>
				<path class="st0" d="M195.2,130.3l41.3,41.3c0.2-2.4,0.4-4.8,0.5-7.3l-41.2-41.2C195.6,125.5,195.4,127.8,195.2,130.3z"/>
				<path class="st1" d="M237,172.9l-42.4-42.4v-0.3c0.2-2.4,0.4-4.8,0.6-7.2l0.1-1.3l42.2,42.2v0.3c-0.1,2.5-0.3,4.9-0.5,7.3
					L237,172.9z M195.8,130.1l40.2,40.1c0.1-1.9,0.3-3.8,0.4-5.7l-40.1-40.1C196.1,126.3,196,128.2,195.8,130.1z"/>
			</g>
			<g>
				<path class="st0" d="M196.7,116.1l40.6,40.6c0.1-2.3,0.1-4.7,0.1-7c0-0.2,0-0.5,0-0.7l-39.7-39.7
					C197.3,111.5,197,113.8,196.7,116.1z"/>
				<path class="st1" d="M237.9,158.2L196,116.3V116c0.3-2.3,0.6-4.6,1-6.8l0.2-1.2l40.7,40.7v0.9c0,2.3,0,4.7-0.1,7L237.9,158.2z
					 M197.3,115.9l39.4,39.4c0-1.9,0.1-3.8,0.1-5.6v-0.4l-38.7-38.7C197.8,112.3,197.5,114.1,197.3,115.9z"/>
			</g>
		</g>
		<g>
			<g>
				<rect x="201.6" y="83.6" class="st1" width="28.6" height="1.2"/>
			</g>
			<g>
				<rect x="200.8" y="87" class="st1" width="30.2" height="1.2"/>
			</g>
		</g>
	</g>
	<g>
		<g>
			<path class="st0" d="M130.7,63.5c-27.9,0-50.6,22.6-50.6,50.6s22.6,50.6,50.6,50.6c27.9,0,50.6-22.6,50.6-50.6
				S158.7,63.5,130.7,63.5z M130.7,158.7c-24.6,0-44.6-20-44.6-44.6s20-44.6,44.6-44.6s44.6,20,44.6,44.6S155.3,158.7,130.7,158.7z"
				/>
			<path class="st1" d="M130.7,165.3c-28.2,0-51.2-23-51.2-51.2s23-51.2,51.2-51.2s51.2,23,51.2,51.2S159,165.3,130.7,165.3z
				 M130.7,64.1c-27.6,0-50,22.4-50,50s22.4,50,50,50s50-22.4,50-50S158.3,64.1,130.7,64.1z M130.7,159.3
				c-24.9,0-45.2-20.3-45.2-45.2s20.3-45.2,45.2-45.2s45.2,20.3,45.2,45.2S155.6,159.3,130.7,159.3z M130.7,70.1
				c-24.2,0-44,19.7-44,44c0,24.2,19.7,44,44,44s44-19.7,44-44C174.7,89.9,155,70.1,130.7,70.1z"/>
		</g>
		<g>
			<g>
				<circle class="st0" cx="130.9" cy="60.2" r="3.2"/>
				<path class="st1" d="M130.9,64.1c-2.1,0-3.8-1.7-3.8-3.8s1.7-3.8,3.8-3.8s3.8,1.7,3.8,3.8S133.1,64.1,130.9,64.1z M130.9,57.6
					c-1.4,0-2.6,1.2-2.6,2.6c0,1.4,1.2,2.6,2.6,2.6s2.6-1.2,2.6-2.6C133.6,58.8,132.4,57.6,130.9,57.6z"/>
			</g>
			<g>
				<ellipse transform="matrix(0.9659 -0.2588 0.2588 0.9659 -12.0601 32.3912)" class="st0" cx="117" cy="62" rx="3.2" ry="3.2"/>
				<path class="st1" d="M117,65.8c-0.7,0-1.3-0.2-1.9-0.5c-0.9-0.5-1.5-1.3-1.8-2.3c-0.5-2,0.7-4.1,2.7-4.7c1-0.3,2-0.1,2.9,0.4
					s1.5,1.3,1.8,2.3l0,0c0.5,2-0.7,4.1-2.7,4.7C117.7,65.8,117.3,65.8,117,65.8z M117,59.4c-0.2,0-0.5,0-0.7,0.1
					c-1.4,0.4-2.2,1.8-1.9,3.2c0.4,1.4,1.8,2.2,3.2,1.9c1.4-0.4,2.2-1.8,1.9-3.2l0,0C119.2,60.2,118.2,59.4,117,59.4z"/>
			</g>
			<g>
				<ellipse transform="matrix(0.866 -0.5 0.5 0.866 -19.718 61.005)" class="st0" cx="104" cy="67.3" rx="3.2" ry="3.2"/>
				<path class="st1" d="M104,71.2c-1.3,0-2.6-0.7-3.3-1.9c-1.1-1.8-0.4-4.2,1.4-5.2c1.8-1.1,4.2-0.4,5.2,1.4l0,0
					c1.1,1.8,0.4,4.2-1.4,5.2C105.3,71,104.6,71.2,104,71.2z M104,64.7c-0.4,0-0.9,0.1-1.3,0.4c-1.3,0.7-1.7,2.3-1,3.6
					c0.7,1.3,2.3,1.7,3.6,1c1.3-0.7,1.7-2.3,1-3.6l0,0C105.8,65.2,104.9,64.7,104,64.7z"/>
			</g>
			<g>
				
					<ellipse transform="matrix(0.7071 -0.7071 0.7071 0.7071 -26.4692 87.864)" class="st0" cx="92.8" cy="75.9" rx="3.2" ry="3.2"/>
				<path class="st1" d="M92.8,79.7c-1,0-2-0.4-2.7-1.1c-1.5-1.5-1.5-3.9,0-5.4s3.9-1.5,5.4,0l0,0c1.5,1.5,1.5,3.9,0,5.4
					C94.8,79.3,93.8,79.7,92.8,79.7z M92.8,73.2c-0.7,0-1.3,0.3-1.9,0.8c-1,1-1,2.7,0,3.7s2.7,1,3.7,0s1-2.7,0-3.7
					C94.1,73.5,93.5,73.2,92.8,73.2z"/>
			</g>
			<g>
				<ellipse transform="matrix(0.5 -0.866 0.866 0.5 -33.2262 116.4163)" class="st0" cx="84.2" cy="87" rx="3.2" ry="3.2"/>
				<path class="st1" d="M84.2,90.8c-0.6,0-1.3-0.2-1.9-0.5c-1.8-1.1-2.5-3.4-1.4-5.2c1.1-1.8,3.4-2.5,5.2-1.4
					c0.9,0.5,1.5,1.3,1.8,2.3s0.1,2-0.4,2.9C86.8,90.1,85.5,90.8,84.2,90.8z M84.2,84.4c-0.9,0-1.8,0.5-2.3,1.3
					c-0.7,1.3-0.3,2.9,1,3.6s2.9,0.3,3.6-1s0.3-2.9-1-3.6l0,0C85.1,84.5,84.6,84.4,84.2,84.4z"/>
			</g>
			<g>
				
					<ellipse transform="matrix(0.2588 -0.9659 0.9659 0.2588 -38.1072 150.1856)" class="st0" cx="78.8" cy="99.9" rx="3.2" ry="3.2"/>
				<path class="st1" d="M78.8,103.8c-0.3,0-0.7,0-1-0.1c-1-0.3-1.8-0.9-2.3-1.8s-0.6-1.9-0.4-2.9c0.5-2,2.7-3.3,4.7-2.7
					c1,0.3,1.8,0.9,2.3,1.8s0.6,1.9,0.4,2.9C82,102.7,80.4,103.8,78.8,103.8z M78.8,97.3c-1.2,0-2.2,0.8-2.5,1.9
					c-0.4,1.4,0.5,2.8,1.9,3.2c1.4,0.4,2.8-0.5,3.2-1.9c0.2-0.7,0.1-1.4-0.3-2s-0.9-1-1.6-1.2l0,0C79.2,97.4,79,97.3,78.8,97.3z"/>
			</g>
			<g>
				<circle class="st0" cx="76.9" cy="113.9" r="3.2"/>
				<path class="st1" d="M76.9,117.7c-2.1,0-3.8-1.7-3.8-3.8c0-2.1,1.7-3.8,3.8-3.8c2.1,0,3.8,1.7,3.8,3.8
					C80.7,116,79,117.7,76.9,117.7z M76.9,111.3c-1.4,0-2.6,1.2-2.6,2.6s1.2,2.6,2.6,2.6s2.6-1.2,2.6-2.6
					C79.5,112.4,78.3,111.3,76.9,111.3z"/>
			</g>
			<g>
				
					<ellipse transform="matrix(0.9659 -0.2588 0.2588 0.9659 -30.4012 24.6936)" class="st0" cx="78.6" cy="127.8" rx="3.2" ry="3.2"/>
				<path class="st1" d="M78.6,131.7c-0.7,0-1.3-0.2-1.9-0.5c-0.9-0.5-1.5-1.3-1.8-2.3c-0.5-2,0.7-4.1,2.7-4.7l0,0
					c1-0.3,2-0.1,2.9,0.4s1.5,1.3,1.8,2.3s0.1,2-0.4,2.9c-0.5,0.9-1.3,1.5-2.3,1.8C79.3,131.6,79,131.7,78.6,131.7z M78,125.3
					c-1.4,0.4-2.2,1.8-1.9,3.2c0.2,0.7,0.6,1.2,1.2,1.6c0.6,0.4,1.3,0.4,2,0.3c0.7-0.2,1.2-0.6,1.6-1.2c0.4-0.6,0.4-1.3,0.3-2
					c-0.2-0.7-0.6-1.2-1.2-1.6S78.6,125.1,78,125.3L78,125.3z"/>
			</g>
			<g>
				<ellipse transform="matrix(0.866 -0.5 0.5 0.866 -59.1845 60.8852)" class="st0" cx="84" cy="140.9" rx="3.2" ry="3.2"/>
				<path class="st1" d="M84,144.7c-0.3,0-0.7,0-1-0.1c-1-0.3-1.8-0.9-2.3-1.8c-0.5-0.9-0.6-1.9-0.4-2.9c0.3-1,0.9-1.8,1.8-2.3l0,0
					c1.8-1.1,4.2-0.4,5.2,1.4c1.1,1.8,0.4,4.2-1.4,5.2C85.3,144.5,84.6,144.7,84,144.7z M82.7,138.6c-1.3,0.7-1.7,2.3-1,3.6
					c0.4,0.6,0.9,1,1.6,1.2s1.4,0.1,2-0.3c1.3-0.7,1.7-2.3,1-3.6C85.5,138.3,83.9,137.9,82.7,138.6L82.7,138.6z"/>
			</g>
			<g>
				
					<ellipse transform="matrix(0.7071 -0.7071 0.7071 0.7071 -80.4047 109.9059)" class="st0" cx="92.5" cy="152" rx="3.2" ry="3.2"/>
				<path class="st1" d="M92.5,155.9c-1,0-2-0.4-2.7-1.1c-1.5-1.5-1.5-3.9,0-5.4l0,0c1.5-1.5,3.9-1.5,5.4,0c0.7,0.7,1.1,1.7,1.1,2.7
					s-0.4,2-1.1,2.7C94.5,155.5,93.5,155.9,92.5,155.9z M90.6,150.2c-1,1-1,2.7,0,3.7s2.7,1,3.7,0c0.5-0.5,0.8-1.2,0.8-1.9
					s-0.3-1.4-0.8-1.9C93.3,149.2,91.7,149.2,90.6,150.2L90.6,150.2z"/>
			</g>
			<g>
				<ellipse transform="matrix(0.5 -0.866 0.866 0.5 -87.3407 170.0085)" class="st0" cx="103.6" cy="160.6" rx="3.2" ry="3.2"/>
				<path class="st1" d="M103.6,164.5c-0.7,0-1.3-0.2-1.9-0.5c-0.9-0.5-1.5-1.3-1.8-2.3s-0.1-2,0.4-2.9s1.3-1.5,2.3-1.8
					s2-0.1,2.9,0.4s1.5,1.3,1.8,2.3s0.1,2-0.4,2.9s-1.3,1.5-2.3,1.8C104.3,164.4,103.9,164.5,103.6,164.5z M103.6,158
					c-0.2,0-0.5,0-0.7,0.1c-0.7,0.2-1.2,0.6-1.6,1.2l0,0c-0.4,0.6-0.4,1.3-0.3,2c0.2,0.7,0.6,1.2,1.2,1.6c1.3,0.7,2.9,0.3,3.6-1
					c0.4-0.6,0.4-1.3,0.3-2c-0.2-0.7-0.6-1.2-1.2-1.6C104.5,158.1,104.1,158,103.6,158z"/>
			</g>
			<g>
				
					<ellipse transform="matrix(0.2588 -0.9659 0.9659 0.2588 -73.9931 235.7286)" class="st0" cx="116.6" cy="166.1" rx="3.2" ry="3.2"/>
				<path class="st1" d="M116.6,169.9c-0.3,0-0.7,0-1-0.1c-2-0.5-3.3-2.7-2.7-4.7c0.5-2,2.6-3.3,4.7-2.7c2,0.5,3.3,2.7,2.7,4.7
					C119.8,168.8,118.3,169.9,116.6,169.9z M116.6,163.5c-1.2,0-2.2,0.8-2.5,1.9c-0.4,1.4,0.5,2.8,1.9,3.2s2.8-0.5,3.2-1.9
					c0.4-1.4-0.5-2.8-1.9-3.2C117,163.5,116.8,163.5,116.6,163.5z"/>
			</g>
			<g>
				<circle class="st0" cx="130.5" cy="168" r="3.2"/>
				<path class="st1" d="M130.5,171.8c-2.1,0-3.8-1.7-3.8-3.8s1.7-3.8,3.8-3.8s3.8,1.7,3.8,3.8C134.4,170.1,132.6,171.8,130.5,171.8
					z M130.5,165.3c-1.4,0-2.6,1.2-2.6,2.6c0,1.4,1.2,2.6,2.6,2.6s2.6-1.2,2.6-2.6C133.2,166.5,132,165.3,130.5,165.3z"/>
			</g>
			<g>
				
					<ellipse transform="matrix(0.9659 -0.2588 0.2588 0.9659 -38.0888 43.0588)" class="st0" cx="144.5" cy="166.2" rx="3.2" ry="3.2"/>
				<path class="st1" d="M144.5,170c-1.7,0-3.2-1.1-3.7-2.8c-0.3-1-0.1-2,0.4-2.9s1.3-1.5,2.3-1.8s2-0.1,2.9,0.4s1.5,1.3,1.8,2.3
					c0.5,2-0.7,4.1-2.7,4.7C145.1,170,144.8,170,144.5,170z M144.5,163.6c-0.2,0-0.5,0-0.7,0.1c-0.7,0.2-1.2,0.6-1.6,1.2
					c-0.4,0.6-0.4,1.3-0.3,2c0.4,1.4,1.8,2.2,3.2,1.9c1.4-0.4,2.2-1.8,1.9-3.2c-0.2-0.7-0.6-1.2-1.2-1.6
					C145.4,163.7,144.9,163.6,144.5,163.6z"/>
			</g>
			<g>
				<ellipse transform="matrix(0.866 -0.5 0.5 0.866 -59.341 100.3151)" class="st0" cx="157.5" cy="160.9" rx="3.2" ry="3.2"/>
				<path class="st1" d="M157.5,164.7c-1.3,0-2.6-0.7-3.3-1.9l0,0c-1.1-1.8-0.4-4.2,1.4-5.2c0.9-0.5,1.9-0.6,2.9-0.4
					c1,0.3,1.8,0.9,2.3,1.8c0.5,0.9,0.6,1.9,0.4,2.9s-0.9,1.8-1.8,2.3C158.8,164.5,158.1,164.7,157.5,164.7z M155.2,162.2
					c0.7,1.3,2.3,1.7,3.6,1c0.6-0.4,1-0.9,1.2-1.6c0.2-0.7,0.1-1.4-0.3-2c-0.4-0.6-0.9-1-1.6-1.2c-0.7-0.2-1.4-0.1-2,0.3
					C154.9,159.3,154.5,160.9,155.2,162.2L155.2,162.2z"/>
			</g>
			<g>
				
					<ellipse transform="matrix(0.7071 -0.7071 0.7071 0.7071 -58.292 163.8706)" class="st0" cx="168.7" cy="152.3" rx="3.2" ry="3.2"/>
				<path class="st1" d="M168.7,156.2c-1,0-2-0.4-2.7-1.1l0,0c-0.7-0.7-1.1-1.7-1.1-2.7s0.4-2,1.1-2.7c1.5-1.5,3.9-1.5,5.4,0
					c0.7,0.7,1.1,1.7,1.1,2.7s-0.4,2-1.1,2.7C170.6,155.8,169.7,156.2,168.7,156.2z M166.8,154.2c1,1,2.7,1,3.7,0
					c0.5-0.5,0.8-1.2,0.8-1.9s-0.3-1.4-0.8-1.9c-1-1-2.7-1-3.7,0c-0.5,0.5-0.8,1.2-0.8,1.9S166.3,153.7,166.8,154.2L166.8,154.2z"/>
			</g>
			<g>
				<ellipse transform="matrix(0.5 -0.866 0.866 0.5 -33.6485 224.123)" class="st0" cx="177.3" cy="141.2" rx="3.2" ry="3.2"/>
				<path class="st1" d="M177.3,145c-0.7,0-1.3-0.2-1.9-0.5l0,0c-0.9-0.5-1.5-1.3-1.8-2.3s-0.1-2,0.4-2.9s1.3-1.5,2.3-1.8
					s2-0.1,2.9,0.4s1.5,1.3,1.8,2.3s0.1,2-0.4,2.9s-1.3,1.5-2.3,1.8C177.9,145,177.6,145,177.3,145z M177.3,138.6
					c-0.9,0-1.8,0.5-2.3,1.3c-0.4,0.6-0.4,1.3-0.3,2c0.2,0.7,0.6,1.2,1.2,1.6l0,0c1.3,0.7,2.9,0.3,3.6-1c0.4-0.6,0.4-1.3,0.3-2
					c-0.2-0.7-0.6-1.2-1.2-1.6C178.2,138.7,177.7,138.6,177.3,138.6z"/>
			</g>
			<g>
				
					<ellipse transform="matrix(0.2588 -0.9659 0.9659 0.2588 11.5032 271.5021)" class="st0" cx="182.7" cy="128.3" rx="3.2" ry="3.2"/>
				<path class="st1" d="M182.7,132.1c-0.3,0-0.7,0-1-0.1l0,0c-2-0.5-3.3-2.7-2.7-4.7c0.5-2,2.6-3.3,4.7-2.7c2,0.5,3.3,2.7,2.7,4.7
					C186,130.9,184.4,132.1,182.7,132.1z M182,130.8c1.4,0.4,2.8-0.5,3.2-1.9c0.4-1.4-0.5-2.8-1.9-3.2c-1.4-0.4-2.8,0.5-3.2,1.9
					C179.8,129,180.6,130.4,182,130.8L182,130.8z"/>
			</g>
			<g>
				<circle class="st0" cx="184.6" cy="114.3" r="3.2"/>
				<path class="st1" d="M184.6,118.1c-2.1,0-3.8-1.7-3.8-3.8c0-2.1,1.7-3.8,3.8-3.8s3.8,1.7,3.8,3.8
					C188.4,116.4,186.7,118.1,184.6,118.1z M184.6,111.7c-1.4,0-2.6,1.2-2.6,2.6s1.2,2.6,2.6,2.6c1.4,0,2.6-1.2,2.6-2.6
					C187.2,112.9,186.1,111.7,184.6,111.7z"/>
			</g>
			<g>
				
					<ellipse transform="matrix(0.9659 -0.2588 0.2588 0.9659 -19.7577 50.7323)" class="st0" cx="182.8" cy="100.4" rx="3.2" ry="3.2"/>
				<path class="st1" d="M182.8,104.2c-0.7,0-1.3-0.2-1.9-0.5c-0.9-0.5-1.5-1.3-1.8-2.3s-0.1-2,0.4-2.9s1.3-1.5,2.3-1.8
					s2-0.1,2.9,0.4s1.5,1.3,1.8,2.3s0.1,2-0.4,2.9s-1.3,1.5-2.3,1.8C183.5,104.1,183.2,104.2,182.8,104.2z M182.8,97.7
					c-0.2,0-0.5,0-0.7,0.1c-0.7,0.2-1.2,0.6-1.6,1.2c-0.4,0.6-0.4,1.3-0.3,2c0.2,0.7,0.6,1.2,1.2,1.6c0.6,0.4,1.3,0.4,2,0.3l0,0
					c0.7-0.2,1.2-0.6,1.6-1.2c0.4-0.6,0.4-1.3,0.3-2c-0.2-0.7-0.6-1.2-1.2-1.6C183.7,97.9,183.3,97.7,182.8,97.7z"/>
			</g>
			<g>
				<ellipse transform="matrix(0.866 -0.5 0.5 0.866 -19.8744 100.435)" class="st0" cx="177.5" cy="87.3" rx="3.2" ry="3.2"/>
				<path class="st1" d="M177.5,91.2c-0.3,0-0.7,0-1-0.1c-1-0.3-1.8-0.9-2.3-1.8s-0.6-1.9-0.4-2.9c0.3-1,0.9-1.8,1.8-2.3
					c0.9-0.5,1.9-0.6,2.9-0.4c1,0.3,1.8,0.9,2.3,1.8s0.6,1.9,0.4,2.9c-0.3,1-0.9,1.8-1.8,2.3l0,0C178.8,91,178.2,91.2,177.5,91.2z
					 M177.5,84.7c-0.5,0-0.9,0.1-1.3,0.4c-0.6,0.4-1,0.9-1.2,1.6s-0.1,1.4,0.3,2s0.9,1,1.6,1.2c0.7,0.2,1.4,0.1,2-0.3l0,0
					c0.6-0.4,1-0.9,1.2-1.6s0.1-1.4-0.3-2s-0.9-1-1.6-1.2C178,84.8,177.7,84.7,177.5,84.7z"/>
			</g>
			<g>
				
					<ellipse transform="matrix(0.7071 -0.7071 0.7071 0.7071 -4.3566 141.8286)" class="st0" cx="169" cy="76.2" rx="3.2" ry="3.2"/>
				<path class="st1" d="M169,80c-1,0-2-0.4-2.7-1.1c-1.5-1.5-1.5-3.9,0-5.4s3.9-1.5,5.4,0s1.5,3.9,0,5.4C170.9,79.6,170,80,169,80z
					 M169,73.5c-0.7,0-1.4,0.3-1.9,0.8c-1,1-1,2.7,0,3.7c0.5,0.5,1.2,0.8,1.9,0.8s1.4-0.3,1.9-0.8c1-1,1-2.7,0-3.7
					C170.3,73.8,169.7,73.5,169,73.5z"/>
			</g>
			<g>
				<ellipse transform="matrix(0.5 -0.866 0.866 0.5 20.466 170.5307)" class="st0" cx="157.9" cy="67.5" rx="3.2" ry="3.2"/>
				<path class="st1" d="M157.8,71.4c-0.7,0-1.3-0.2-1.9-0.5c-0.9-0.5-1.5-1.3-1.8-2.3s-0.1-2,0.4-2.9s1.3-1.5,2.3-1.8
					s2-0.1,2.9,0.4c0.9,0.5,1.5,1.3,1.8,2.3s0.1,2-0.4,2.9s-1.3,1.5-2.3,1.8C158.5,71.3,158.2,71.4,157.8,71.4z M157.9,64.9
					c-0.2,0-0.5,0-0.7,0.1c-0.7,0.2-1.2,0.6-1.6,1.2c-0.4,0.6-0.4,1.3-0.3,2c0.2,0.7,0.6,1.2,1.2,1.6c0.6,0.4,1.3,0.4,2,0.3
					c0.7-0.2,1.2-0.6,1.6-1.2l0,0c0.4-0.6,0.4-1.3,0.3-2c-0.2-0.7-0.6-1.2-1.2-1.6C158.8,65,158.3,64.9,157.9,64.9z"/>
			</g>
			<g>
				
					<ellipse transform="matrix(0.2588 -0.9659 0.9659 0.2588 47.3892 185.9591)" class="st0" cx="144.9" cy="62.1" rx="3.2" ry="3.2"/>
				<path class="st1" d="M144.9,65.9c-0.3,0-0.7,0-1-0.1c-2-0.5-3.3-2.7-2.7-4.7c0.5-2,2.7-3.3,4.7-2.7c1,0.3,1.8,0.9,2.3,1.8
					c0.5,0.9,0.6,1.9,0.4,2.9l0,0c-0.3,1-0.9,1.8-1.8,2.3C146.2,65.8,145.6,65.9,144.9,65.9z M144.9,59.5c-1.2,0-2.2,0.8-2.5,1.9
					c-0.4,1.4,0.5,2.8,1.9,3.2c0.7,0.2,1.4,0.1,2-0.3c0.6-0.4,1-0.9,1.2-1.6l0,0c0.2-0.7,0.1-1.4-0.3-2c-0.4-0.6-0.9-1-1.6-1.2
					C145.3,59.5,145.1,59.5,144.9,59.5z"/>
			</g>
		</g>
		<g>
			<g>
				<polygon class="st0" points="130.6,122 117.2,175.6 113,175.6 126.7,121 				"/>
				<path class="st1" d="M117.7,176.2h-5.4l14-55.9l5.1,1.3L117.7,176.2z M113.8,175h2.9l13.1-52.6l-2.7-0.7L113.8,175z"/>
			</g>
			<g>
				<polygon class="st0" points="130.6,122 144,175.6 148.1,175.6 134.5,121 				"/>
				<path class="st1" d="M148.9,176.2h-5.4l-13.7-54.7l5.1-1.3L148.9,176.2z M144.4,175h2.9L134,121.7l-2.7,0.7L144.4,175z"/>
			</g>
		</g>
		<g>
			<circle class="st0" cx="130.3" cy="114.1" r="4.4"/>
			<path class="st1" d="M130.3,119.1c-2.8,0-5-2.2-5-5s2.2-5,5-5s5,2.2,5,5C135.3,116.9,133,119.1,130.3,119.1z M130.3,110.3
				c-2.1,0-3.8,1.7-3.8,3.8c0,2.1,1.7,3.8,3.8,3.8s3.8-1.7,3.8-3.8C134.1,112,132.4,110.3,130.3,110.3z"/>
		</g>
		<g>
			<rect x="124.3" y="116.1" class="st0" width="12" height="6.2"/>
			<path class="st1" d="M136.9,122.8h-13.2v-7.4h13.2V122.8z M124.9,121.6h10.8v-5h-10.8C124.9,116.6,124.9,121.6,124.9,121.6z"/>
		</g>
	</g>
	<g>
		<g>
			<g>
				<g>
					<g>
						<rect x="3.6" y="160.3" class="st0" width="30.7" height="15.3"/>
						<path class="st1" d="M34.9,176.2H3v-16.5h31.9V176.2z M4.2,175h29.5v-14.1H4.2V175z"/>
					</g>
					<g>
						<rect x="7.2" y="105.7" class="st0" width="23.5" height="21.5"/>
						<path class="st1" d="M31.3,127.8H6.6v-22.7h24.7C31.3,105.1,31.3,127.8,31.3,127.8z M7.8,126.6h22.3v-20.3H7.8V126.6z"/>
					</g>
					<g>
						<rect x="8.6" y="127.2" class="st0" width="20.7" height="33.1"/>
						<path class="st1" d="M29.9,160.9H8v-34.3h21.9V160.9z M9.2,159.7h19.5v-31.9H9.2V159.7z"/>
					</g>
				</g>
				<g>
					<polygon class="st0" points="18.9,84.7 12.7,105.7 25.1,105.7 					"/>
					<path class="st1" d="M26,106.3H12l7-23.7L26,106.3z M13.5,105.1h10.8l-5.4-18.3L13.5,105.1z"/>
				</g>
				<g>
					<polygon class="st0" points="9.9,96.1 7,105.7 12.8,105.7 					"/>
					<path class="st1" d="M13.6,106.3H6.2l3.6-12.4L13.6,106.3z M7.9,105.1H12l-2.1-6.9L7.9,105.1z"/>
				</g>
				<g>
					<polygon class="st0" points="28,96.1 25.2,105.7 30.9,105.7 					"/>
					<path class="st1" d="M31.7,106.3h-7.3L28,94L31.7,106.3z M26,105.1h4.1L28,98.2L26,105.1z"/>
				</g>
			</g>
			<g>
				<g>
					<rect x="18.3" y="77.1" class="st1" width="1.2" height="7.6"/>
				</g>
				<g>
					<rect x="17.2" y="78.1" class="st1" width="3.4" height="1.2"/>
				</g>
			</g>
			<g>
				<g>
					<rect x="9.3" y="88.7" class="st1" width="1.2" height="7.6"/>
				</g>
				<g>
					<rect x="8.2" y="89.7" class="st1" width="3.4" height="1.2"/>
				</g>
			</g>
			<g>
				<g>
					<rect x="27.4" y="88.7" class="st1" width="1.2" height="7.6"/>
				</g>
				<g>
					<rect x="26.3" y="89.7" class="st1" width="3.4" height="1.2"/>
				</g>
			</g>
			<g>
				<g>
					<path class="st1" d="M17.4,160.3h-1.2v-5.4c0-1.5,1.3-2.8,2.8-2.8s2.8,1.3,2.8,2.8v5.3h-1.2v-5.3c0-0.9-0.7-1.6-1.6-1.6
						s-1.6,0.7-1.6,1.6C17.4,154.9,17.4,160.3,17.4,160.3z"/>
				</g>
				<g>
					<path class="st1" d="M25.8,160.9H12.1v-55.8h13.6L25.8,160.9L25.8,160.9z M13.3,159.7h11.2v-53.4H13.3V159.7z"/>
				</g>
				<g>
					<rect x="5.4" y="111.2" class="st1" width="27" height="1.2"/>
				</g>
				<g>
					<rect x="5.4" y="114.5" class="st1" width="27" height="1.2"/>
				</g>
				<g>
					<rect x="5.4" y="126.7" class="st1" width="27" height="1.2"/>
				</g>
				<g>
					<rect x="6.6" y="137.5" class="st1" width="24.6" height="1.2"/>
				</g>
				<g>
					<rect x="6.6" y="148.9" class="st1" width="24.6" height="1.2"/>
				</g>
			</g>
		</g>
		<g>
			<g>
				<g>
					<rect x="93.7" y="160.3" class="st0" width="30.7" height="15.3"/>
					<path class="st1" d="M125,176.2H93.1v-16.5H125V176.2z M94.3,175h29.5v-14.1H94.3V175z"/>
				</g>
				<g>
					<rect x="97.3" y="105.7" class="st0" width="23.5" height="21.5"/>
					<path class="st1" d="M121.4,127.8H96.7v-22.7h24.7C121.4,105.1,121.4,127.8,121.4,127.8z M97.9,126.6h22.3v-20.3H97.9V126.6z"
						/>
				</g>
				<g>
					<rect x="98.7" y="127.2" class="st0" width="20.7" height="33.1"/>
					<path class="st1" d="M120,160.9H98.1v-34.3H120V160.9z M99.3,159.7h19.5v-31.9H99.3V159.7z"/>
				</g>
				<g>
					<polygon class="st0" points="109,84.7 102.9,105.7 115.3,105.7 					"/>
					<path class="st1" d="M116.1,106.3h-14l7-23.7L116.1,106.3z M103.7,105.1h10.8L109,86.8L103.7,105.1z"/>
				</g>
				<g>
					<polygon class="st0" points="100,96.1 97.2,105.7 102.9,105.7 					"/>
					<path class="st1" d="M103.7,106.3h-7.3l3.6-12.4L103.7,106.3z M98,105.1h4.1l-2.1-6.9L98,105.1z"/>
				</g>
				<g>
					<polygon class="st0" points="118.1,96.1 115.3,105.7 121,105.7 					"/>
					<path class="st1" d="M121.8,106.3h-7.3l3.6-12.4L121.8,106.3z M116.1,105.1h4.1l-2.1-6.9L116.1,105.1z"/>
				</g>
			</g>
			<g>
				<g>
					<g>
						<rect x="108.5" y="77.1" class="st1" width="1.2" height="7.6"/>
					</g>
					<g>
						<rect x="107.3" y="78.1" class="st1" width="3.4" height="1.2"/>
					</g>
				</g>
				<g>
					<g>
						<rect x="99.4" y="88.7" class="st1" width="1.2" height="7.6"/>
					</g>
					<g>
						<rect x="98.3" y="89.7" class="st1" width="3.4" height="1.2"/>
					</g>
				</g>
				<g>
					<g>
						<rect x="117.5" y="88.7" class="st1" width="1.2" height="7.6"/>
					</g>
					<g>
						<rect x="116.4" y="89.7" class="st1" width="3.4" height="1.2"/>
					</g>
				</g>
				<g>
					<path class="st1" d="M107.5,160.3h-1.2v-5.4c0-1.5,1.3-2.8,2.8-2.8s2.8,1.3,2.8,2.8v5.3h-1.2v-5.3c0-0.9-0.7-1.6-1.6-1.6
						s-1.6,0.7-1.6,1.6L107.5,160.3L107.5,160.3z"/>
				</g>
				<g>
					<path class="st1" d="M115.9,160.9h-13.6v-55.8h13.6V160.9z M103.5,159.7h11.2v-53.4h-11.2V159.7z"/>
				</g>
				<g>
					<rect x="95.6" y="111.2" class="st1" width="27" height="1.2"/>
				</g>
				<g>
					<rect x="95.6" y="114.5" class="st1" width="27" height="1.2"/>
				</g>
				<g>
					<rect x="95.6" y="126.7" class="st1" width="27" height="1.2"/>
				</g>
				<g>
					<rect x="96.8" y="137.5" class="st1" width="24.6" height="1.2"/>
				</g>
				<g>
					<rect x="96.8" y="148.9" class="st1" width="24.6" height="1.2"/>
				</g>
			</g>
		</g>
		<g>
			<rect x="30.7" y="118.6" class="st0" width="66.7" height="4.6"/>
			<path class="st1" d="M97.9,123.8H30V118h67.9V123.8z M31.3,122.6h65.5v-3.4H31.3V122.6z"/>
		</g>
		<g>
			<polygon class="st0" points="93.7,168.6 64,162.6 34.3,168.6 34.3,160.3 93.7,160.3 			"/>
			<path class="st1" d="M33.7,169.3v-9.6h60.6v9.6L64,163.2L33.7,169.3z M64,162l29.1,5.8v-6.9H34.9v6.9L64,162z"/>
		</g>
	</g>
	<g>
		<g>
			<g>
				<rect x="281.1" y="89.9" class="st0" width="20.5" height="85.7"/>
				<path class="st1" d="M302.2,176.2h-21.7V89.3h21.7V176.2z M281.7,175H301V90.5h-19.3V175z"/>
			</g>
			<g>
				<polygon class="st0" points="297.9,76.6 285.1,76.6 281.1,89.9 301.6,89.9 				"/>
				<path class="st1" d="M302.4,90.5h-22.1l4.3-14.5h13.7L302.4,90.5z M282,89.3h18.9l-3.3-12h-11.9L282,89.3z"/>
			</g>
			<g>
				<rect x="285.1" y="68.8" class="st0" width="12.8" height="7.8"/>
				<path class="st1" d="M298.5,77.2h-14v-9h14V77.2z M285.7,76h11.6v-6.6h-11.6V76z"/>
			</g>
			<g>
				<polygon class="st0" points="291.5,50 285.1,68.8 297.9,68.8 				"/>
				<path class="st1" d="M298.7,69.4h-14.5l7.2-21.2L298.7,69.4z M285.9,68.2H297l-5.6-16.3L285.9,68.2z"/>
			</g>
			<g>
				<rect x="202.1" y="135.5" class="st0" width="79" height="40.1"/>
				<path class="st1" d="M281.8,176.2h-80.2v-41.4h80.2V176.2z M202.7,175h77.8v-38.9h-77.8V175z"/>
			</g>
		</g>
		<g>
			<g>
				<rect x="279.5" y="95.9" class="st0" width="23.7" height="18.7"/>
				<path class="st1" d="M303.8,115.2h-24.9V95.3h24.9V115.2z M280.1,114h22.5V96.5h-22.5V114z"/>
			</g>
			<g>
				<rect x="279.5" y="171" class="st0" width="23.7" height="4.6"/>
				<path class="st1" d="M303.8,176.2h-24.9v-5.8h24.9V176.2z M280.1,175h22.5v-3.4h-22.5V175z"/>
			</g>
			<g>
				<circle class="st0" cx="291.4" cy="105.3" r="5.4"/>
				<path class="st1" d="M291.4,111.4c-3.3,0-6-2.7-6-6s2.7-6,6-6s6,2.7,6,6S294.7,111.4,291.4,111.4z M291.4,100.5
					c-2.7,0-4.8,2.2-4.8,4.8c0,2.7,2.2,4.8,4.8,4.8s4.8-2.2,4.8-4.8C296.2,102.7,294,100.5,291.4,100.5z"/>
			</g>
			<g>
				<path class="st1" d="M299.4,176.2h-16.1V89.3h16.1V176.2z M284.6,175h13.6V90.5h-13.6V175z"/>
			</g>
		</g>
		<g>
			<g>
				<rect x="230.8" y="126.7" class="st0" width="17.4" height="48.9"/>
				<path class="st1" d="M248.8,176.2h-18.6v-50.1h18.6V176.2z M231.4,175h16.2v-47.7h-16.2V175z"/>
			</g>
			<g>
				<path class="st1" d="M245.7,176.2h-12.4v-50.1h12.4V176.2z M234.5,175h10v-47.7h-10V175z"/>
			</g>
			<g>
				<g>
					<rect x="236.9" y="162.7" class="st0" width="5.2" height="7.2"/>
					<path class="st1" d="M242.7,170.5h-6.4v-8.4h6.4V170.5z M237.6,169.3h3.9v-6h-3.9V169.3z"/>
				</g>
				<g>
					<rect x="236.9" y="132" class="st0" width="5.2" height="7.2"/>
					<path class="st1" d="M242.7,139.9h-6.4v-8.4h6.4V139.9z M237.6,138.7h3.9v-6h-3.9V138.7z"/>
				</g>
				<g>
					<rect x="236.9" y="147.3" class="st0" width="5.2" height="7.2"/>
					<path class="st1" d="M242.7,155.1h-6.4v-8.4h6.4V155.1z M237.6,153.9h3.9v-6h-3.9V153.9z"/>
				</g>
			</g>
			<g>
				<polygon class="st0" points="244,116.5 234.8,116.5 230.8,126.7 248.2,126.7 				"/>
				<path class="st1" d="M249.1,127.3h-19.2l4.4-11.4h10.1L249.1,127.3z M231.7,126.1h15.6l-3.7-9h-8.4L231.7,126.1z"/>
			</g>
			<g>
				<rect x="230.2" y="115.9" class="st1" width="1.2" height="11.4"/>
			</g>
			<g>
				<rect x="247.6" y="115.9" class="st1" width="1.2" height="11.4"/>
			</g>
		</g>
		<g>
			<g>
				<rect x="202.1" y="126.7" class="st0" width="17.4" height="48.9"/>
				<path class="st1" d="M220.1,176.2h-18.6v-50.1h18.6V176.2z M202.7,175h16.2v-47.7h-16.2V175z"/>
			</g>
			<g>
				<path class="st1" d="M217,176.2h-12.4v-50.1H217V176.2z M205.8,175h10v-47.7h-10V175z"/>
			</g>
			<g>
				<g>
					<rect x="208.3" y="162.7" class="st0" width="5.2" height="7.2"/>
					<path class="st1" d="M214,170.5h-6.4v-8.4h6.4V170.5z M208.9,169.3h3.9v-6h-3.9V169.3z"/>
				</g>
				<g>
					<rect x="208.3" y="132" class="st0" width="5.2" height="7.2"/>
					<path class="st1" d="M214,139.9h-6.4v-8.4h6.4V139.9z M208.9,138.7h3.9v-6h-3.9V138.7z"/>
				</g>
				<g>
					<rect x="208.3" y="147.3" class="st0" width="5.2" height="7.2"/>
					<path class="st1" d="M214,155.1h-6.4v-8.4h6.4V155.1z M208.9,153.9h3.9v-6h-3.9V153.9z"/>
				</g>
			</g>
			<g>
				<polygon class="st0" points="215.3,116.5 206.1,116.5 202.1,126.7 219.5,126.7 				"/>
				<path class="st1" d="M220.4,127.3h-19.2l4.4-11.4h10.1L220.4,127.3z M203,126.1h15.6l-3.7-9h-8.4L203,126.1z"/>
			</g>
			<g>
				<rect x="201.5" y="115.9" class="st1" width="1.2" height="11.4"/>
			</g>
			<g>
				<rect x="218.9" y="115.9" class="st1" width="1.2" height="11.4"/>
			</g>
		</g>
		<g>
			<g>
				<rect x="222.7" y="147.3" class="st0" width="5.2" height="7.2"/>
				<path class="st1" d="M228.5,155.1h-6.4v-8.4h6.4V155.1z M223.3,153.9h3.9v-6h-3.9V153.9z"/>
			</g>
			<g>
				<rect x="251.2" y="147.3" class="st0" width="5.2" height="7.2"/>
				<path class="st1" d="M257,155.1h-6.4v-8.4h6.4V155.1z M251.8,153.9h3.9v-6h-3.9V153.9z"/>
			</g>
			<g>
				<rect x="262.1" y="147.3" class="st0" width="5.2" height="7.2"/>
				<path class="st1" d="M267.9,155.1h-6.4v-8.4h6.4V155.1z M262.7,153.9h3.9v-6h-3.9V153.9z"/>
			</g>
			<g>
				<rect x="272.7" y="147.3" class="st0" width="5.2" height="7.2"/>
				<path class="st1" d="M278.4,155.1H272v-8.4h6.4V155.1z M273.3,153.9h3.9v-6h-3.9V153.9z"/>
			</g>
			<g>
				<rect x="222.7" y="162.6" class="st0" width="5.2" height="7.2"/>
				<path class="st1" d="M228.5,170.4h-6.4V162h6.4V170.4z M223.3,169.2h3.9v-6h-3.9V169.2z"/>
			</g>
			<g>
				<rect x="251.2" y="162.6" class="st0" width="5.2" height="7.2"/>
				<path class="st1" d="M257,170.4h-6.4V162h6.4V170.4z M251.8,169.2h3.9v-6h-3.9V169.2z"/>
			</g>
			<g>
				<rect x="262.1" y="162.6" class="st0" width="5.2" height="7.2"/>
				<path class="st1" d="M267.9,170.4h-6.4V162h6.4V170.4z M262.7,169.2h3.9v-6h-3.9V169.2z"/>
			</g>
			<g>
				<rect x="272.7" y="162.6" class="st0" width="5.2" height="7.2"/>
				<path class="st1" d="M278.4,170.4H272V162h6.4V170.4z M273.3,169.2h3.9v-6h-3.9V169.2z"/>
			</g>
		</g>
		<g>
			<g>
				<rect x="200.1" y="141.1" class="st1" width="103.1" height="1.2"/>
			</g>
			<g>
				<rect x="200.1" y="144.1" class="st1" width="103.1" height="1.2"/>
			</g>
			<g>
				<rect x="200.1" y="156.4" class="st1" width="103.1" height="1.2"/>
			</g>
			<g>
				<rect x="200.1" y="159.4" class="st1" width="103.1" height="1.2"/>
			</g>
			<g>
				<rect x="279.5" y="126.1" class="st1" width="23.7" height="1.2"/>
			</g>
			<g>
				<rect x="279.5" y="129.1" class="st1" width="23.7" height="1.2"/>
			</g>
			<g>
				<rect x="258.6" y="135.4" class="st1" width="1.2" height="39.8"/>
			</g>
			<g>
				<rect x="269.5" y="135.4" class="st1" width="1.2" height="39.8"/>
			</g>
		</g>
	</g>
	<g>
		<g>
			<g>
				<circle class="st0" cx="164.5" cy="172.3" r="4.4"/>
				<path class="st1" d="M164.5,177.3c-2.8,0-5-2.3-5-5c0-2.8,2.3-5,5-5c2.8,0,5,2.3,5,5C169.5,175.1,167.3,177.3,164.5,177.3z
					 M164.5,168.5c-2.1,0-3.8,1.7-3.8,3.8s1.7,3.8,3.8,3.8s3.8-1.7,3.8-3.8S166.6,168.5,164.5,168.5z"/>
			</g>
			<g>
				<circle class="st0" cx="190.1" cy="172.3" r="4.4"/>
				<path class="st1" d="M190.1,177.3c-2.8,0-5-2.3-5-5c0-2.8,2.3-5,5-5c2.8,0,5,2.3,5,5C195.1,175.1,192.9,177.3,190.1,177.3z
					 M190.1,168.5c-2.1,0-3.8,1.7-3.8,3.8s1.7,3.8,3.8,3.8s3.8-1.7,3.8-3.8C193.9,170.2,192.2,168.5,190.1,168.5z"/>
			</g>
		</g>
		<g>
			<path class="st0" d="M153.8,172.4h62.8v-23.7c0-2.2-1.8-4-4-4h-54.8c-2.2,0-4,1.8-4,4v9.4h0.1h17.7v4h-13.8c-2.2,0-4,1.8-4,4
				V172.4z"/>
			<path class="st1" d="M217.2,173h-64v-6.8c0-2.5,2.1-4.6,4.6-4.6h13.1v-2.8h-17.8v-10c0-2.5,2.1-4.6,4.6-4.6h54.8
				c2.5,0,4.6,2.1,4.6,4.6L217.2,173L217.2,173z M154.4,171.8H216v-23.1c0-1.9-1.5-3.4-3.4-3.4h-54.8c-1.9,0-3.4,1.5-3.4,3.4v8.8
				h17.8v5.2h-14.4c-1.9,0-3.4,1.5-3.4,3.4L154.4,171.8L154.4,171.8z"/>
		</g>
		<g>
			<g>
				<circle class="st0" cx="177.4" cy="172.3" r="4.4"/>
				<path class="st1" d="M177.4,177.3c-2.8,0-5-2.3-5-5c0-2.8,2.3-5,5-5c2.8,0,5,2.3,5,5C182.4,175.1,180.1,177.3,177.4,177.3z
					 M177.4,168.5c-2.1,0-3.8,1.7-3.8,3.8s1.7,3.8,3.8,3.8s3.8-1.7,3.8-3.8S179.5,168.5,177.4,168.5z"/>
			</g>
			<g>
				<circle class="st0" cx="203" cy="172.3" r="4.4"/>
				<path class="st1" d="M203,177.3c-2.8,0-5-2.3-5-5c0-2.8,2.3-5,5-5c2.8,0,5,2.3,5,5C208,175.1,205.7,177.3,203,177.3z M203,168.5
					c-2.1,0-3.8,1.7-3.8,3.8s1.7,3.8,3.8,3.8s3.8-1.7,3.8-3.8S205.1,168.5,203,168.5z"/>
			</g>
		</g>
		<g>
			<g>
				<rect x="179.6" y="158.2" class="st0" width="4" height="4"/>
				<path class="st1" d="M184.2,162.8H179v-5.2h5.2V162.8z M180.2,161.6h2.8v-2.8h-2.8V161.6z"/>
			</g>
			<g>
				<rect x="187.6" y="158.2" class="st0" width="4" height="4"/>
				<path class="st1" d="M192.2,162.8H187v-5.2h5.2V162.8z M188.2,161.6h2.8v-2.8h-2.8V161.6z"/>
			</g>
			<g>
				<rect x="195.5" y="158.2" class="st0" width="4" height="4"/>
				<path class="st1" d="M200.2,162.8H195v-5.2h5.2V162.8z M196.1,161.6h2.8v-2.8h-2.8V161.6z"/>
			</g>
			<g>
				<rect x="203.5" y="158.2" class="st0" width="4" height="4"/>
				<path class="st1" d="M208.1,162.8h-5.2v-5.2h5.2V162.8z M204.1,161.6h2.8v-2.8h-2.8V161.6z"/>
			</g>
			<g>
				<rect x="179.6" y="149.1" class="st0" width="4" height="4"/>
				<path class="st1" d="M184.2,153.7H179v-5.2h5.2V153.7z M180.2,152.5h2.8v-2.8h-2.8V152.5z"/>
			</g>
			<g>
				<rect x="187.6" y="149.1" class="st0" width="4" height="4"/>
				<path class="st1" d="M192.2,153.7H187v-5.2h5.2V153.7z M188.2,152.5h2.8v-2.8h-2.8V152.5z"/>
			</g>
			<g>
				<rect x="179.6" y="158.2" class="st0" width="4" height="4"/>
				<path class="st1" d="M184.2,162.8H179v-5.2h5.2V162.8z M180.2,161.6h2.8v-2.8h-2.8V161.6z"/>
			</g>
			<g>
				<rect x="171.5" y="149.1" class="st0" width="4" height="4"/>
				<path class="st1" d="M176.2,153.7H171v-5.2h5.2V153.7z M172.1,152.5h2.8v-2.8h-2.8V152.5z"/>
			</g>
			<g>
				<rect x="179.6" y="149.1" class="st0" width="4" height="4"/>
				<path class="st1" d="M184.2,153.7H179v-5.2h5.2V153.7z M180.2,152.5h2.8v-2.8h-2.8V152.5z"/>
			</g>
			<g>
				<rect x="163.4" y="149.1" class="st0" width="4" height="4"/>
				<path class="st1" d="M168,153.7h-5.2v-5.2h5.2V153.7z M164,152.5h2.8v-2.8H164V152.5z"/>
			</g>
			<g>
				<rect x="195.5" y="149.1" class="st0" width="4" height="4"/>
				<path class="st1" d="M200.2,153.7H195v-5.2h5.2V153.7z M196.1,152.5h2.8v-2.8h-2.8V152.5z"/>
			</g>
			<g>
				<rect x="203.5" y="149.1" class="st0" width="4" height="4"/>
				<path class="st1" d="M208.1,153.7h-5.2v-5.2h5.2V153.7z M204.1,152.5h2.8v-2.8h-2.8V152.5z"/>
			</g>
		</g>
		<g>
			<rect x="158.5" y="158.3" class="st1" width="1.2" height="3.9"/>
		</g>
	</g>
	<g>
		<g>
			<g>
				<g>
					<polyline class="st0" points="303.3,168.4 303.3,175.6 299,175.6 299,168.4 					"/>
					<polygon class="st2" points="303.9,176.2 298.4,176.2 298.4,168.4 299.6,168.4 299.6,175 302.7,175 302.7,168.4 303.9,168.4 
											"/>
				</g>
				<g>
					<path class="st0" d="M311.8,159.8c0-2.3-1.7-4.1-3.9-4.3c0.4-0.7,0.6-1.4,0.6-2.2c0-2.2-1.7-4.1-3.9-4.3
						c-0.6-1.7-2.2-2.8-4-2.8c-2.4,0-4.3,1.9-4.3,4.3c0,0.1,0,0.3,0,0.4c-1.5,0.7-2.6,2.2-2.6,4c0,0.6,0.1,1.2,0.3,1.7
						c-1.8,0.5-3.1,2.2-3.1,4.2c0,1.6,0.9,3,2.2,3.8c-0.1,0.4-0.2,0.9-0.2,1.3c0,2.4,1.9,4.3,4.3,4.3c1.8,0,3.4-1.1,4-2.7
						c0.6,1.6,2.2,2.7,4,2.7c2.4,0,4.3-1.9,4.3-4.3c0-0.7-0.2-1.4-0.5-2C310.6,163.2,311.8,161.6,311.8,159.8z"/>
					<path class="st2" d="M305.2,170.7c-1.6,0-3.1-0.8-4-2.1c-0.9,1.3-2.4,2.1-4,2.1c-2.7,0-4.9-2.2-4.9-4.9c0-0.4,0-0.7,0.1-1.1
						c-1.3-0.9-2.1-2.4-2.1-4c0-2,1.2-3.8,3-4.5c-0.1-0.4-0.2-0.9-0.2-1.3c0-1.8,1-3.5,2.6-4.3c0,0,0,0,0-0.1c0-2.7,2.2-4.9,4.9-4.9
						c1.9,0,3.7,1.1,4.5,2.9c2.3,0.4,4.1,2.4,4.1,4.8c0,0.6-0.1,1.2-0.3,1.8c2.1,0.6,3.6,2.5,3.6,4.8c0,1.8-1,3.5-2.6,4.3
						c0.2,0.5,0.3,1.1,0.3,1.7C310.1,168.5,307.9,170.7,305.2,170.7z M301.2,165.7l0.6,1.4c0.6,1.4,1.9,2.4,3.5,2.4
						c2,0,3.7-1.7,3.7-3.7c0-0.6-0.1-1.2-0.4-1.7l-0.3-0.6l0.6-0.2c1.4-0.5,2.4-1.9,2.4-3.5c0-1.9-1.5-3.5-3.4-3.7l-1-0.1l0.5-0.8
						c0.4-0.6,0.5-1.2,0.5-1.9c0-1.9-1.4-3.5-3.3-3.7h-0.4l-0.2-0.4c-0.5-1.5-1.9-2.4-3.5-2.4c-2,0-3.7,1.7-3.7,3.7
						c0,0.1,0,0.3,0,0.4v0.4l-0.4,0.2c-1.4,0.6-2.3,1.9-2.3,3.4c0,0.5,0.1,1,0.3,1.4l0.3,0.6l-0.7,0.2c-1.6,0.4-2.7,1.9-2.7,3.6
						c0,1.3,0.7,2.6,1.9,3.2l0.4,0.2l-0.2,0.5c-0.1,0.4-0.2,0.8-0.2,1.2c0,2,1.7,3.7,3.7,3.7c1.5,0,2.9-0.9,3.5-2.4L301.2,165.7z"/>
				</g>
			</g>
			<g>
				<g>
					<path class="st0" d="M136.7,168.1c0.2-0.5,0.4-1,0.4-1.6c0-2-1.6-3.6-3.6-3.6s-3.6,1.6-3.6,3.6c0,0.2,0,0.4,0.1,0.6
						c-1,0.5-1.6,1.4-1.6,2.5c0,1.6,1.3,2.8,2.8,2.8c1.2,0,3.8,0,4.8,0c1.3,0,2.3-1,2.3-2.3C138.3,169.3,137.6,168.4,136.7,168.1z"
						/>
					<path class="st2" d="M136,173.2h-4.8c-1.9,0-3.4-1.5-3.4-3.4c0-1.2,0.6-2.2,1.6-2.9c0-0.1,0-0.2,0-0.3c0-2.3,1.9-4.2,4.2-4.2
						s4.2,1.9,4.2,4.2c0,0.4-0.1,0.8-0.2,1.2c0.9,0.5,1.4,1.4,1.4,2.5C138.9,171.9,137.6,173.2,136,173.2z M133.5,163.6
						c-1.6,0-3,1.3-3,3c0,0.2,0,0.3,0,0.5l0.1,0.4l-0.4,0.2c-0.8,0.4-1.3,1.2-1.3,2c0,1.2,1,2.2,2.2,2.2h4.8c0.9,0,1.7-0.8,1.7-1.7
						c0-0.7-0.5-1.4-1.2-1.6l-0.7-0.2l0.3-0.6c0.2-0.4,0.3-0.8,0.3-1.3C136.5,164.9,135.2,163.6,133.5,163.6z"/>
				</g>
				<g>
					<line class="st3" x1="133.4" y1="172.6" x2="133.4" y2="176.1"/>
					<rect x="132.8" y="172.6" class="st2" width="1.2" height="3.5"/>
				</g>
			</g>
			<g>
				<g>
					<path class="st0" d="M14.9,167.7c0.2-0.5,0.4-1,0.4-1.6c0-2-1.6-3.6-3.6-3.6s-3.6,1.7-3.6,3.7c0,0.2,0,0.4,0.1,0.6
						c-1,0.5-1.6,1.4-1.6,2.5c0,1.6,1.3,2.8,2.8,2.8c1.2,0,3.8,0,4.8,0c1.3,0,2.3-1,2.3-2.3C16.5,168.9,15.9,168,14.9,167.7z"/>
					<path class="st2" d="M14.2,172.8H9.4c-1.9,0-3.4-1.5-3.4-3.4c0-1.2,0.6-2.2,1.6-2.9c0-0.1,0-0.2,0-0.3c0-2.3,1.9-4.2,4.2-4.2
						s4.2,1.9,4.2,4.2c0,0.4-0.1,0.8-0.2,1.2c0.9,0.5,1.4,1.4,1.4,2.5C17.1,171.5,15.8,172.8,14.2,172.8z M11.7,163.2
						c-1.6,0-3,1.3-3,3c0,0.2,0,0.3,0,0.5l0.1,0.4l-0.4,0.2c-0.8,0.4-1.3,1.2-1.3,2c0,1.2,1,2.2,2.2,2.2h4.8c0.9,0,1.7-0.8,1.7-1.7
						c0-0.7-0.5-1.4-1.2-1.6l-0.7-0.2l0.3-0.6c0.2-0.4,0.3-0.8,0.3-1.3C14.7,164.5,13.4,163.2,11.7,163.2z"/>
				</g>
				<g>
					<line class="st3" x1="11.7" y1="172.2" x2="11.7" y2="175.7"/>
					<rect x="11.1" y="172.2" class="st2" width="1.2" height="3.5"/>
				</g>
			</g>
		</g>
		<g>
			<g>
				<path class="st0" d="M269.5,49.7c0.1,0,0.1,0,0.2,0c0.1-2,1.7-3.5,3.7-3.5s3.7,1.6,3.7,3.7c0.3-0.1,0.7-0.2,1-0.2
					c1.7,0,3,1.3,3,3s-1.3,3-3,3c-1.5,0-7.2,0-8.6,0c-1.7,0-3-1.3-3-3S267.8,49.7,269.5,49.7z"/>
				<path class="st2" d="M278.1,56.3h-8.6c-2,0-3.6-1.6-3.6-3.6c0-1.9,1.4-3.4,3.3-3.6c0.4-2,2.1-3.5,4.2-3.5s3.9,1.5,4.2,3.5
					c0.2,0,0.3,0,0.5,0c2,0,3.6,1.6,3.6,3.6S280.1,56.3,278.1,56.3z M269.5,50.3c-1.3,0-2.4,1.1-2.4,2.4c0,1.3,1.1,2.4,2.4,2.4h8.6
					c1.3,0,2.4-1.1,2.4-2.4c0-1.3-1.1-2.4-2.4-2.4c-0.3,0-0.5,0-0.8,0.1l-0.8,0.3v-0.8c0-1.7-1.4-3.1-3.1-3.1s-3,1.3-3.1,3v0.6h-0.6
					C269.6,50.3,269.5,50.3,269.5,50.3z"/>
			</g>
			<g>
				<path class="st0" d="M189.1,66.1c0.5,0,1,0.1,1.4,0.3c0.2-1.9,1.8-3.3,3.7-3.3c1.6,0,2.9,1,3.5,2.3c2,0.1,3.6,1.7,3.6,3.8
					s-1.7,3.8-3.8,3.8c-1.6,0-6.8,0-8.5,0c-1.9,0-3.4-1.5-3.4-3.4C185.7,67.6,187.2,66.1,189.1,66.1z"/>
				<path class="st2" d="M197.6,73.5h-8.5c-2.2,0-4-1.8-4-4s1.8-4,4-4c0.3,0,0.7,0,1,0.1c0.5-1.8,2.2-3.1,4.2-3.1
					c1.6,0,3.1,0.9,3.9,2.3c2.2,0.3,3.8,2.1,3.8,4.3C201.9,71.5,200,73.5,197.6,73.5z M189.1,66.7c-1.5,0-2.8,1.3-2.8,2.8
					s1.3,2.8,2.8,2.8h8.5c1.7,0,3.2-1.4,3.2-3.2c0-1.7-1.3-3.1-3-3.2h-0.4l-0.1-0.4c-0.5-1.2-1.6-1.9-2.9-1.9c-1.6,0-3,1.2-3.1,2.8
					l-0.1,0.8l-0.8-0.4C189.9,66.8,189.5,66.7,189.1,66.7z"/>
			</g>
			<g>
				<path class="st0" d="M45.4,61.2c0.2,0,0.4,0,0.5,0c0.1-5.5,4.6-9.9,10.2-9.9c4.1,0,7.7,2.4,9.3,6c0.6-0.2,1.3-0.3,2-0.3
					c3.3,0,6,2.7,6,6s-2.7,6-6,6c-1.3,0-20.9,0-21.9,0c-2.1,0-3.9-1.7-3.9-3.9C41.5,62.9,43.2,61.2,45.4,61.2z"/>
				<path class="st2" d="M67.3,69.6H45.4c-2.5,0-4.5-2-4.5-4.5s2-4.5,4.5-4.5c0.4-5.5,5.1-9.9,10.7-9.9c4,0,7.7,2.3,9.6,5.8
					c0.5-0.1,1.1-0.2,1.7-0.2c3.7,0,6.6,3,6.6,6.6S71,69.6,67.3,69.6z M45.4,61.8c-1.8,0-3.3,1.5-3.3,3.3c0,1.8,1.5,3.3,3.3,3.3
					h21.9c3,0,5.4-2.4,5.4-5.4s-2.4-5.4-5.4-5.4c-0.6,0-1.2,0.1-1.8,0.3L65,58l-0.2-0.5c-1.6-3.4-5-5.6-8.7-5.6
					c-5.2,0-9.4,4.2-9.6,9.4V62l-0.7-0.1C45.6,61.8,45.5,61.8,45.4,61.8z"/>
			</g>
		</g>
		<g>
			<g>
				<path class="st2" d="M46.9,90.1h-1.2c0-2.4-2-4.4-4.4-4.4v-1.2c2.2,0,4.1,1.3,5,3.1c0.9-1.8,2.8-3.1,5-3.1v1.2
					C48.8,85.7,46.9,87.7,46.9,90.1z"/>
			</g>
			<g>
				<path class="st2" d="M99,45h-1.2c0-2.4-2-4.4-4.4-4.4v-1.2c2.2,0,4.1,1.3,5,3.1c0.9-1.8,2.8-3.1,5-3.1v1.2
					C100.9,40.6,99,42.6,99,45z"/>
			</g>
			<g>
				<path class="st2" d="M23.1,55.5h-1.2c0-1.7-1.4-3.2-3.2-3.2v-1.1c1.6,0,3,0.9,3.8,2.2c0.8-1.3,2.2-2.2,3.8-2.2v1.2
					C24.5,52.4,23.1,53.8,23.1,55.5z"/>
			</g>
			<g>
				<path class="st2" d="M145,95.1h-1.2c0-1.3-1.1-2.4-2.4-2.4v-1.2c1.2,0,2.3,0.6,3,1.6c0.6-1,1.7-1.6,3-1.6v1.2
					C146.1,92.8,145,93.8,145,95.1z"/>
			</g>
			<g>
				<path class="st2" d="M250.4,100.6h-1.2c0-1.3-1.1-2.4-2.4-2.4V97c1.2,0,2.3,0.6,3,1.6c0.6-1,1.7-1.6,3-1.6v1.2
					C251.4,98.2,250.4,99.3,250.4,100.6z"/>
			</g>
			<g>
				<path class="st2" d="M266,79.9h-1.2c0-2.4-2-4.4-4.4-4.4v-1.2c2.2,0,4.1,1.3,5,3.1c0.9-1.8,2.8-3.1,5-3.1v1.2
					C268,75.5,266,77.5,266,79.9z"/>
			</g>
		</g>
	</g>
</g>
</svg>
