<?xml version="1.0" encoding="utf-8"?>
<!-- Generator: Adobe Illustrator 19.2.0, SVG Export Plug-In . SVG Version: 6.00 Build 0)  -->
<svg version="1.1" id="Layer_1" xmlns="http://www.w3.org/2000/svg" xmlns:xlink="http://www.w3.org/1999/xlink" x="0px" y="0px"
	 viewBox="0 0 315 176" style="enable-background:new 0 0 315 176;" xml:space="preserve">
<style type="text/css">
	.st0{fill:#FFFFFF;}
	.st1{fill:#847874;}
	.st2{fill:none;}
	.st3{fill:#258487;}
</style>
<title>Group</title>
<desc>Created with Sketch.</desc>
<g>
	<g>
		<g>
			<path class="st0" d="M23.5,62.7c2.6-0.5,5.2,0.6,6.8,2.5c0.4-1.1,0.5-2.4,0.3-3.6c-0.7-3.9-4.4-6.5-8.3-5.8s-6.5,4.4-5.8,8.3
				c0.2,1.3,0.8,2.4,1.5,3.3C18.9,65,20.9,63.2,23.5,62.7z"/>
			<path class="st1" d="M18.3,68.6l-0.7-0.8c-0.9-1-1.4-2.3-1.7-3.6c-0.4-2,0.1-4.1,1.3-5.8s3-2.8,5-3.2s4.1,0.1,5.8,1.3
				s2.8,3,3.2,5c0.2,1.3,0.1,2.7-0.3,3.9l-0.4,1l-0.7-0.8c-1.5-1.8-3.9-2.7-6.2-2.3l0,0c-2.3,0.4-4.2,2.1-5,4.3L18.3,68.6z
				 M23.6,56.3c-0.4,0-0.8,0-1.2,0.1c-1.7,0.3-3.2,1.3-4.2,2.7c-1,1.4-1.4,3.2-1.1,4.9c0.1,0.8,0.4,1.5,0.8,2.2
				c1.1-2.1,3.1-3.6,5.5-4s4.8,0.3,6.6,1.9c0.1-0.8,0.1-1.5,0-2.3c-0.3-1.7-1.3-3.2-2.7-4.2C26.2,56.7,24.9,56.3,23.6,56.3z"/>
		</g>
		<g>
			<path class="st0" d="M25.8,52.1c0.8,4.4-0.3,10.7-0.3,10.7l-3.9,0.6c0,0-3.1-5.5-3.9-9.9C16.5,47,19.6,41,19.6,41
				S24.6,45.6,25.8,52.1z"/>
			<path class="st1" d="M21.3,64.1l-0.2-0.4c-0.1-0.2-3.2-5.6-4-10.1C15.9,47,19,41,19.1,40.8l0.4-0.7l0.6,0.5
				c0.2,0.2,5.1,4.8,6.3,11.4l0,0c0.8,4.5-0.2,10.6-0.3,10.9l0,0.4L21.3,64.1z M19.9,42.2c-0.8,1.8-2.4,6.4-1.5,11.3
				c0.6,3.6,2.9,8,3.6,9.3l3-0.5c0.2-1.5,0.8-6.4,0.2-10l0,0C24.3,47.3,21.2,43.6,19.9,42.2z"/>
		</g>
		<g>
			<path class="st0" d="M68.1,148.8c0,0-21.4,6.4-26.9-1.6c-5.5-8.1-18.8-83.8-18.8-83.8l2.5-0.4C24.9,63,52,145,68.1,148.8z"/>
			<path class="st1" d="M52.6,151.9c-4.9,0-9.6-1-11.9-4.3c-5.5-8.1-18.4-80.9-18.9-84L21.7,63l3.6-0.6l0.2,0.5
				c0.1,0.2,6.9,20.7,15.6,41.4c11.4,27.3,20.9,42.5,27.2,44l2.2,0.5l-2.2,0.7C67.8,149.6,60,151.9,52.6,151.9z M23.2,63.9
				c1.3,7.2,13.6,75.5,18.6,82.9c4.3,6.3,19.2,3.2,24.4,1.9c-15.8-8.5-39.3-77.8-41.7-85L23.2,63.9z"/>
		</g>
	</g>
	<g>
		<g>
			<polygon class="st0" points="164,176.6 145.8,176.6 150.7,157.8 158.9,157.8 			"/>
			<path class="st1" d="M164.8,177.2H145l5.2-20.1h9.1L164.8,177.2z M146.6,176h16.6l-4.7-17.6h-7.2L146.6,176z"/>
		</g>
		<g>
			<g>
				<polygon class="st0" points="154.9,166.8 152.6,176.6 157.2,176.6 				"/>
				<path class="st1" d="M157.2,177.2h-4.6l-0.6-0.8l2.3-9.8h1.2l2.3,9.8L157.2,177.2z M153.4,176h3l-1.5-6.5L153.4,176z"/>
			</g>
			<g>
				<polygon class="st0" points="150.3,170.9 148,176.6 152.6,176.6 				"/>
				<path class="st1" d="M152.6,177.2H148l-0.6-0.8l2.3-5.7h1.1l2.3,5.7L152.6,177.2z M148.9,176h2.8l-1.4-3.5L148.9,176z"/>
			</g>
			<g>
				<polygon class="st0" points="159.5,170.9 157.2,176.6 161.8,176.6 				"/>
				<path class="st1" d="M161.8,177.2h-4.6l-0.6-0.8l2.3-5.7h1.1l2.3,5.7L161.8,177.2z M158.1,176h2.8l-1.4-3.5L158.1,176z"/>
			</g>
		</g>
		<g>
			<rect x="150.9" y="115.3" class="st0" width="8.1" height="42.5"/>
			<path class="st1" d="M159.5,158.4h-9.3v-43.7h9.3V158.4z M151.5,157.2h6.8v-41.3h-6.8V157.2z"/>
		</g>
		<g>
			<rect x="152.3" y="85.7" class="st0" width="5.2" height="29.5"/>
			<path class="st1" d="M158.1,115.9h-6.4V85.1h6.4V115.9z M152.9,114.6h4V86.4h-4V114.6z"/>
		</g>
		<g>
			<rect x="152.7" y="64.7" class="st0" width="4.4" height="17.1"/>
			<path class="st1" d="M157.7,82.4h-5.6V64.1h5.6V82.4z M153.3,81.2h3.1V65.3h-3.1V81.2z"/>
		</g>
		<g>
			<rect x="151.8" y="81.8" class="st0" width="6.2" height="3.9"/>
			<path class="st1" d="M158.6,86.4h-7.4v-5.2h7.4V86.4z M152.4,85.1h5v-2.7h-5V85.1z"/>
		</g>
		<g>
			<rect x="151.8" y="52.3" class="st0" width="6.2" height="12.4"/>
			<path class="st1" d="M158.6,65.3h-7.4V51.7h7.4V65.3z M152.4,64.1h5V52.9h-5V64.1z"/>
		</g>
		<g>
			<line class="st2" x1="154.9" y1="52.3" x2="154.9" y2="14.2"/>
			<rect x="154.3" y="14.2" class="st1" width="1.2" height="38.1"/>
		</g>
		<g>
			<line class="st2" x1="153" y1="39.5" x2="156.8" y2="39.5"/>
			<rect x="153" y="38.9" class="st1" width="3.8" height="1.2"/>
		</g>
		<g>
			<line class="st2" x1="153.4" y1="30.1" x2="156.4" y2="30.1"/>
			<rect x="153.4" y="29.5" class="st1" width="3.1" height="1.2"/>
		</g>
		<g>
			<line class="st2" x1="153.7" y1="23.8" x2="156.1" y2="23.8"/>
			<rect x="153.7" y="23.2" class="st1" width="2.5" height="1.2"/>
		</g>
		<g>
			<line class="st2" x1="153.9" y1="17.8" x2="155.9" y2="17.8"/>
			<rect x="153.9" y="17.2" class="st1" width="2" height="1.2"/>
		</g>
		<g>
			<line class="st2" x1="153.9" y1="14.8" x2="155.9" y2="14.8"/>
			<rect x="153.9" y="14.1" class="st1" width="2" height="1.2"/>
		</g>
		<g>
			<line class="st2" x1="148.7" y1="115.3" x2="161.1" y2="115.3"/>
			<rect x="148.7" y="114.6" class="st1" width="12.4" height="1.2"/>
		</g>
		<g>
			<line class="st2" x1="148.7" y1="118.2" x2="161.1" y2="118.2"/>
			<rect x="148.7" y="117.6" class="st1" width="12.4" height="1.2"/>
		</g>
		<g>
			<line class="st2" x1="148.7" y1="121" x2="161.1" y2="121"/>
			<rect x="148.7" y="120.4" class="st1" width="12.4" height="1.2"/>
		</g>
		<g>
			<line class="st2" x1="154.9" y1="167" x2="154.9" y2="121.2"/>
			<rect x="154.3" y="121.2" class="st1" width="1.2" height="45.8"/>
		</g>
		<g>
			<line class="st2" x1="154.9" y1="115.2" x2="154.9" y2="86"/>
			<rect x="154.3" y="86" class="st1" width="1.2" height="29.2"/>
		</g>
		<g>
			<line class="st2" x1="154.9" y1="81.8" x2="154.9" y2="64.9"/>
			<rect x="154.3" y="64.9" class="st1" width="1.2" height="16.9"/>
		</g>
	</g>
	<g>
		<g>
			<polygon class="st0" points="240,176.6 240,145 242.2,146 244.4,145 244.4,152.3 247.5,152.3 247.5,145 249.7,146 251.9,145 
				251.9,152.3 295.6,152.3 295.6,145 297.8,146 300,145 300,152.3 303.1,152.3 303.1,145 305.3,146 307.5,145 307.5,176.6 			"/>
			<path class="st1" d="M308.2,177.2h-68.8V144l2.8,1.4l2.9-1.4v7.7h1.8V144l2.8,1.4l2.9-1.4v7.7H295V144l2.8,1.4l2.9-1.4v7.7h1.8
				V144l2.8,1.4l2.9-1.4L308.2,177.2L308.2,177.2z M240.6,175.9h66.3v-30l-1.6,0.8l-1.6-0.8v7h-4.3v-7l-1.6,0.8l-1.6-0.8v7h-44.9v-7
				l-1.6,0.8l-1.6-0.8v7h-4.3v-7l-1.6,0.8l-1.6-0.8L240.6,175.9L240.6,175.9z"/>
		</g>
		<g>
			<g>
				<rect x="252.8" y="118.3" class="st0" width="41.9" height="11.7"/>
				<path class="st1" d="M295.3,130.6h-43.1v-13h43.1V130.6z M253.4,129.4h40.7v-10.5h-40.7L253.4,129.4L253.4,129.4z"/>
			</g>
			<g>
				<rect x="263" y="103.1" class="st0" width="21.4" height="15.1"/>
				<path class="st1" d="M285.1,118.9h-22.6v-16.4h22.6V118.9z M263.7,117.7h20.2v-13.9h-20.2V117.7z"/>
			</g>
			<g>
				<rect x="264.8" y="89.8" class="st0" width="17.9" height="13.4"/>
				<path class="st1" d="M283.3,103.8h-19.1V89.2h19.1V103.8z M265.4,102.5H282V90.4h-16.6V102.5z"/>
			</g>
			<g>
				<g>
					<rect x="255" y="130" class="st0" width="37.5" height="46.5"/>
					<path class="st1" d="M293.1,177.2h-38.8v-47.8h38.8V177.2z M255.6,175.9h36.3v-45.3h-36.3L255.6,175.9L255.6,175.9z"/>
				</g>
				<g>
					<g>
						<rect x="255" y="130" class="st0" width="4.3" height="46.5"/>
						<path class="st1" d="M259.9,177.1h-5.5v-47.7h5.5V177.1z M255.6,175.9h3.1v-45.3h-3.1V175.9z"/>
					</g>
					<g>
						<rect x="288.2" y="130" class="st0" width="4.3" height="46.5"/>
						<path class="st1" d="M293.2,177.1h-5.5v-47.7h5.5V177.1z M288.9,175.9h3.1v-45.3h-3.1V175.9z"/>
					</g>
				</g>
			</g>
		</g>
		<g>
			<g>
				<polyline class="st0" points="273.8,38 264.8,78.2 282.6,78.2 273.7,38 				"/>
				<path class="st1" d="M283.4,78.8H264l9.1-41l0.6,0.1l0.6-0.1L283.4,78.8z M265.6,77.6h16.3L273.8,41L265.6,77.6z"/>
			</g>
			<g>
				
					<rect x="251.9" y="57.6" transform="matrix(9.571327e-02 -0.9954 0.9954 9.571327e-02 187.8672 323.1387)" class="st1" width="39.7" height="1.2"/>
			</g>
			<g>
				
					<rect x="275" y="38.6" transform="matrix(0.9956 -9.381624e-02 9.381624e-02 0.9956 -4.2495 26.1132)" class="st1" width="1.2" height="39.3"/>
			</g>
			<g>
				<polygon class="st0" points="273.7,29.2 275.5,32.1 278.8,32.8 276.5,35.4 276.9,38.8 273.7,37.4 270.6,38.8 271,35.4 
					268.7,32.8 272,32.1 				"/>
				<path class="st1" d="M277.6,39.8l-3.8-1.7l-3.8,1.7l0.4-4.2l-2.8-3.1l4.1-0.9l2.1-3.6l2.1,3.6l4.1,0.9l-2.8,3.1L277.6,39.8z
					 M269.9,33.2l1.7,2l-0.2,2.6l2.4-1l2.4,1l-0.2-2.6l1.7-2l-2.6-0.6l-1.3-2.3l-1.3,2.3L269.9,33.2z"/>
			</g>
		</g>
		<g>
			<g>
				<path class="st0" d="M269.9,78.5c0-1.4-1.1-2.6-2.6-2.6s-2.6,1.1-2.6,2.6V79v10.8h5.1L269.9,78.5z"/>
				<path class="st1" d="M270.5,90.3h-6.3V78.4c0-1.8,1.4-3.2,3.2-3.2s3.2,1.4,3.2,3.2L270.5,90.3z M265.4,89.1h3.9V78.5
					c0-1.1-0.9-1.9-1.9-1.9c-1.1,0-1.9,0.9-1.9,1.9V79v10.1H265.4z"/>
			</g>
			<g>
				<path class="st0" d="M277.6,78.5c0-1.4,1.1-2.6,2.6-2.6s2.6,1.1,2.6,2.6V79v10.8h-5.1L277.6,78.5z"/>
				<path class="st1" d="M283.3,90.3H277V78.4c0-1.7,1.4-3.2,3.2-3.2s3.2,1.4,3.2,3.2L283.3,90.3z M278.2,89.1h3.9V78.5
					c0-1.1-0.9-1.9-1.9-1.9c-1.1,0-1.9,0.9-1.9,1.9L278.2,89.1z"/>
			</g>
			<g>
				<path class="st0" d="M277.6,89.5H270v-11c0-2.1,1.7-3.8,3.8-3.8s3.8,1.7,3.8,3.8L277.6,89.5z"/>
				<path class="st1" d="M278.2,90.1h-8.9V78.6c0-2.4,2-4.4,4.4-4.4s4.4,2,4.4,4.4L278.2,90.1z M270.5,88.9h6.4V78.6
					c0-1.8-1.4-3.2-3.2-3.2s-3.2,1.4-3.2,3.2L270.5,88.9L270.5,88.9z"/>
			</g>
		</g>
		<g>
			<g>
				<path class="st0" d="M280.3,107.9c0-8.5-6.4-11.3-6.4-11.3s-6.4,3-6.4,11.3"/>
				<path class="st1" d="M280.9,107.9h-1.2c0-7.1-4.7-10-5.8-10.6c-1.2,0.6-5.8,3.6-5.8,10.6h-1.2c0-8.6,6.5-11.7,6.8-11.8l0.2-0.1
					l0.3,0.1C274.2,96.1,280.9,99.1,280.9,107.9z"/>
			</g>
			<g>
				<circle class="st0" cx="273.9" cy="108.4" r="6.4"/>
				<path class="st1" d="M273.9,115.4c-3.9,0-7.1-3.2-7.1-7.1s3.2-7.1,7.1-7.1s7.1,3.2,7.1,7.1C280.9,112.3,277.7,115.4,273.9,115.4
					z M273.9,102.5c-3.2,0-5.8,2.6-5.8,5.8c0,3.2,2.6,5.8,5.8,5.8s5.8-2.6,5.8-5.8C279.7,105.1,277.1,102.5,273.9,102.5z"/>
			</g>
		</g>
		<g>
			<g>
				<rect x="262.4" y="89.1" class="st1" width="22.6" height="1.2"/>
			</g>
			<g>
				<rect x="262.4" y="92.2" class="st1" width="22.6" height="1.2"/>
			</g>
			<g>
				<g>
					<path class="st1" d="M257.7,130.6h-5.5v-13h5.5V130.6z M253.4,129.4h3.1v-10.5h-3.1V129.4z"/>
				</g>
				<g>
					<polygon class="st0" points="257.1,118.3 252.8,118.3 255,106.6 					"/>
					<path class="st1" d="M257.1,118.9h-4.3l-0.6-0.7l2.2-11.7h1.2l2.1,11.7L257.1,118.9z M253.6,117.7h2.8L255,110L253.6,117.7z"/>
				</g>
				<g>
					<polygon class="st0" points="294.7,118.3 290.4,118.3 292.6,106.6 					"/>
					<path class="st1" d="M294.7,118.9h-4.3l-0.6-0.7l2.2-11.7h1.2l2.1,11.7L294.7,118.9z M291.1,117.7h2.8l-1.4-7.7L291.1,117.7z"
						/>
				</g>
				<g>
					<path class="st1" d="M295.3,130.6h-5.5v-13h5.5V130.6z M291,129.4h3.1v-10.5H291V129.4z"/>
				</g>
				<g>
					<g>
						<rect x="252.3" y="137.5" class="st1" width="42.9" height="1.2"/>
					</g>
					<g>
						<path class="st1" d="M280.9,177.2h-14.1v-11.1c0-3.9,3.2-7.1,7.1-7.1s7.1,3.2,7.1,7.1L280.9,177.2z M268,175.9h11.7V166
							c0-3.2-2.6-5.8-5.8-5.8c-3.2,0-5.8,2.6-5.8,5.8L268,175.9z"/>
					</g>
					<g>
						<path class="st1" d="M276.9,156.9h-6.1v-6.1h6.1V156.9z M271.9,155.6h3.7v-3.7h-3.7V155.6z"/>
					</g>
					<g>
						<rect x="262.5" y="124" class="st1" width="1.2" height="6"/>
					</g>
					<g>
						<rect x="265.2" y="124" class="st1" width="1.2" height="6"/>
					</g>
					<g>
						<rect x="259.8" y="124" class="st1" width="1.2" height="6"/>
					</g>
					<g>
						<rect x="267.9" y="124" class="st1" width="1.2" height="6"/>
					</g>
					<g>
						<rect x="270.5" y="124" class="st1" width="1.2" height="6"/>
					</g>
					<g>
						<rect x="273.2" y="124" class="st1" width="1.2" height="6"/>
					</g>
					<g>
						<rect x="275.9" y="124" class="st1" width="1.2" height="6"/>
					</g>
					<g>
						<rect x="278.6" y="124" class="st1" width="1.2" height="6"/>
					</g>
					<g>
						<rect x="281.2" y="124" class="st1" width="1.2" height="6"/>
					</g>
					<g>
						<rect x="283.9" y="124" class="st1" width="1.2" height="6"/>
					</g>
					<g>
						<rect x="286.6" y="124" class="st1" width="1.2" height="6"/>
					</g>
				</g>
			</g>
		</g>
		<g>
			<g>
				<rect x="262.5" y="142.5" class="st1" width="1.7" height="3.1"/>
			</g>
			<g>
				<rect x="266.7" y="142.5" class="st1" width="1.7" height="3.1"/>
			</g>
			<g>
				<rect x="270.9" y="142.5" class="st1" width="1.7" height="3.1"/>
			</g>
			<g>
				<rect x="275" y="142.5" class="st1" width="1.7" height="3.1"/>
			</g>
			<g>
				<rect x="279.2" y="142.5" class="st1" width="1.7" height="3.1"/>
			</g>
			<g>
				<rect x="283.4" y="142.4" class="st1" width="1.7" height="3.1"/>
			</g>
		</g>
	</g>
	<g>
		<g>
			<polygon class="st0" points="236.7,176.6 171.9,176.6 171.9,142.1 174.6,137.7 233.9,137.7 236.7,142.1 			"/>
			<path class="st1" d="M237.4,177.2h-66v-35.3l2.9-4.8h60l3.1,4.8V177.2z M172.5,176h63.6v-33.7l-2.6-4h-58.6l-2.4,4V176z"/>
		</g>
		<g>
			<g>
				<path class="st0" d="M181.7,144.9c0-1.5-1.4-2.7-3.2-2.7s-3.2,1.2-3.2,2.7v31.8h6.4V144.9z"/>
				<path class="st1" d="M182.3,177.3h-7.7v-32.4c0-1.8,1.7-3.3,3.8-3.3s3.8,1.5,3.8,3.3L182.3,177.3z M175.9,176h5.2v-31.2
					c0-1.1-1.2-2-2.6-2c-1.4,0-2.6,0.9-2.6,2L175.9,176z"/>
			</g>
			<g>
				<path class="st0" d="M175.2,144.9c0-1.5-1.4-2.7-3.2-2.7s-3.2,1.2-3.2,2.7v31.8h6.4V144.9z"/>
				<path class="st1" d="M175.8,177.3h-7.7v-32.4c0-1.8,1.7-3.3,3.8-3.3s3.8,1.5,3.8,3.3L175.8,177.3z M169.4,176h5.2v-31.2
					c0-1.1-1.2-2-2.6-2c-1.4,0-2.6,0.9-2.6,2L169.4,176z"/>
			</g>
			<g>
				<path class="st0" d="M194.7,144.9c0-1.5-1.4-2.7-3.2-2.7s-3.2,1.2-3.2,2.7v31.8h6.4V144.9z"/>
				<path class="st1" d="M195.3,177.3h-7.7v-32.4c0-1.8,1.7-3.3,3.8-3.3s3.8,1.5,3.8,3.3L195.3,177.3z M188.8,176h5.2v-31.2
					c0-1.1-1.2-2-2.6-2c-1.4,0-2.6,0.9-2.6,2L188.8,176z"/>
			</g>
			<g>
				<path class="st0" d="M188.2,144.9c0-1.5-1.4-2.7-3.2-2.7s-3.2,1.2-3.2,2.7v31.8h6.4V144.9z"/>
				<path class="st1" d="M188.8,177.3h-7.7v-32.4c0-1.8,1.7-3.3,3.8-3.3s3.8,1.5,3.8,3.3L188.8,177.3z M182.3,176h5.2v-31.2
					c0-1.1-1.2-2-2.6-2c-1.4,0-2.6,0.9-2.6,2L182.3,176z"/>
			</g>
			<g>
				<path class="st0" d="M207.6,144.9c0-1.5-1.4-2.7-3.2-2.7s-3.2,1.2-3.2,2.7v31.8h6.4V144.9z"/>
				<path class="st1" d="M208.2,177.3h-7.7v-32.4c0-1.8,1.7-3.3,3.8-3.3s3.8,1.5,3.8,3.3L208.2,177.3z M201.8,176h5.2v-31.2
					c0-1.1-1.2-2-2.6-2c-1.4,0-2.6,0.9-2.6,2L201.8,176z"/>
			</g>
			<g>
				<path class="st0" d="M201.1,144.9c0-1.5-1.4-2.7-3.2-2.7s-3.2,1.2-3.2,2.7v31.8h6.4V144.9z"/>
				<path class="st1" d="M201.8,177.3h-7.7v-32.4c0-1.8,1.7-3.3,3.8-3.3s3.8,1.5,3.8,3.3L201.8,177.3z M195.3,176h5.2v-31.2
					c0-1.1-1.2-2-2.6-2s-2.6,0.9-2.6,2L195.3,176z"/>
			</g>
			<g>
				<path class="st0" d="M220.6,144.9c0-1.5-1.4-2.7-3.2-2.7s-3.2,1.2-3.2,2.7v31.8h6.4V144.9z"/>
				<path class="st1" d="M221.2,177.3h-7.7v-32.4c0-1.8,1.7-3.3,3.8-3.3s3.8,1.5,3.8,3.3L221.2,177.3z M214.7,176h5.2v-31.2
					c0-1.1-1.2-2-2.6-2c-1.4,0-2.6,0.9-2.6,2L214.7,176z"/>
			</g>
			<g>
				<path class="st0" d="M214.1,144.9c0-1.5-1.4-2.7-3.2-2.7s-3.2,1.2-3.2,2.7v31.8h6.4V144.9z"/>
				<path class="st1" d="M214.7,177.3H207v-32.4c0-1.8,1.7-3.3,3.8-3.3s3.8,1.5,3.8,3.3L214.7,177.3z M208.2,176h5.2v-31.2
					c0-1.1-1.2-2-2.6-2s-2.6,0.9-2.6,2L208.2,176z"/>
			</g>
			<g>
				<path class="st0" d="M233.5,144.9c0-1.5-1.4-2.7-3.2-2.7s-3.2,1.2-3.2,2.7v31.8h6.4V144.9z"/>
				<path class="st1" d="M234.1,177.3h-7.7v-32.4c0-1.8,1.7-3.3,3.8-3.3s3.8,1.5,3.8,3.3L234.1,177.3z M227.7,176h5.2v-31.2
					c0-1.1-1.2-2-2.6-2c-1.4,0-2.6,0.9-2.6,2L227.7,176z"/>
			</g>
			<g>
				<path class="st0" d="M227,144.9c0-1.5-1.4-2.7-3.2-2.7s-3.2,1.2-3.2,2.7v31.8h6.4V144.9z"/>
				<path class="st1" d="M227.6,177.3H220v-32.4c0-1.8,1.7-3.3,3.8-3.3s3.8,1.5,3.8,3.3V177.3z M221.2,176h5.2v-31.2
					c0-1.1-1.2-2-2.6-2c-1.4,0-2.6,0.9-2.6,2L221.2,176z"/>
			</g>
			<g>
				<path class="st0" d="M239.9,144.9c0-1.5-1.4-2.7-3.2-2.7s-3.2,1.2-3.2,2.7v31.8h6.4V144.9z"/>
				<path class="st1" d="M240.5,177.3h-7.7v-32.4c0-1.8,1.7-3.3,3.8-3.3s3.8,1.5,3.8,3.3L240.5,177.3z M234.1,176h5.2v-31.2
					c0-1.1-1.2-2-2.6-2c-1.4,0-2.6,0.9-2.6,2L234.1,176z"/>
			</g>
		</g>
		<g>
			<g>
				<polygon class="st0" points="205.5,75.7 205.5,81.5 205.5,81.8 215,109.5 193.4,109.6 202.9,81.8 202.9,81.5 202.9,75.7 				"/>
				<path class="st1" d="M192.6,110.2l9.8-28.8V75h3.8v6.6l9.7,28.5L192.6,110.2z M203.6,76.3l-0.1,5.7l-9.2,27h19.9L205,82v-0.3
					v-5.3L203.6,76.3L203.6,76.3z"/>
			</g>
			<g>
				<polygon class="st1" points="200.2,109.7 199,109.5 203.4,81.5 205,81.5 209.4,109.3 208.2,109.5 204.2,84.4 				"/>
			</g>
		</g>
		<g>
			<g>
				<path class="st0" d="M208.8,110.2c0-2.1-2.1-3.8-4.6-3.8c-2.6,0-4.6,1.7-4.6,3.8v25.1h9.3L208.8,110.2z"/>
				<path class="st1" d="M209.5,135.9h-10.6v-25.7c0-2.4,2.4-4.4,5.3-4.4c2.9,0,5.2,2,5.2,4.4L209.5,135.9z M200.2,134.7h8.1v-24.5
					c0-1.8-1.8-3.2-4-3.2s-4,1.4-4,3.2L200.2,134.7z"/>
			</g>
			<g>
				<path class="st0" d="M199.6,110.1c0-1.4-1.4-2.6-3.1-2.6c-1.7,0-3.1,1.1-3.1,2.6v27.5h6.2L199.6,110.1z"/>
				<path class="st1" d="M200.2,138.2h-7.4v-28.1c0-1.7,1.7-3.2,3.7-3.2s3.7,1.4,3.7,3.2V138.2z M194,137h5v-26.9
					c0-1.1-1.1-1.9-2.5-1.9s-2.5,0.9-2.5,1.9V137z"/>
			</g>
			<g>
				<path class="st0" d="M208.8,110.1c0-1.4,1.4-2.6,3.1-2.6c1.7,0,3.1,1.1,3.1,2.6v27.5h-6.2L208.8,110.1z"/>
				<path class="st1" d="M215.7,138.2h-7.4v-28.1c0-1.7,1.7-3.2,3.7-3.2s3.7,1.4,3.7,3.2V138.2z M209.5,137h5v-26.9
					c0-1.1-1.1-1.9-2.5-1.9s-2.5,0.9-2.5,1.9V137z"/>
			</g>
		</g>
		<g>
			<g>
				<g>
					<path class="st0" d="M205.9,75.6c0.6-0.4,1-1.2,1-2.1c0-1.7-2.5-3.5-2.7-4.2c-0.1,0.7-2.7,2.5-2.7,4.2c0,0.9,0.4,1.7,1,2.1
						H205.9z"/>
					<path class="st1" d="M206.1,76.3h-3.8l-0.1-0.1c-0.7-0.5-1.2-1.5-1.2-2.6c0-1.3,1.1-2.6,2-3.5c0.3-0.3,0.7-0.7,0.7-0.9l0.6-3
						l0.6,3c0,0.1,0.4,0.5,0.7,0.8c0.8,0.9,2,2.1,2,3.5c0,1.1-0.5,2.2-1.3,2.6L206.1,76.3z M202.7,75h3.1c0.3-0.3,0.5-0.9,0.5-1.5
						c0-0.8-1-1.9-1.7-2.6c-0.1-0.2-0.3-0.3-0.4-0.4c-0.1,0.1-0.3,0.3-0.4,0.5c-0.7,0.7-1.7,1.8-1.7,2.6
						C202.1,74.1,202.3,74.7,202.7,75z"/>
				</g>
				<g>
					<line class="st2" x1="204.2" y1="69.9" x2="204.2" y2="59.1"/>
					<rect x="203.6" y="59.1" class="st1" width="1.2" height="10.8"/>
				</g>
				<g>
					<line class="st2" x1="202.4" y1="60.7" x2="205.9" y2="60.7"/>
					<rect x="202.4" y="60.1" class="st1" width="3.5" height="1.2"/>
				</g>
			</g>
			<g>
				<circle class="st0" cx="204.2" cy="65.7" r="1.3"/>
				<path class="st1" d="M204.2,67.7c-1.1,0-1.9-0.9-1.9-1.9c0-1.1,0.9-1.9,1.9-1.9c1.1,0,1.9,0.9,1.9,1.9
					C206.1,66.8,205.3,67.7,204.2,67.7z M204.2,65c-0.4,0-0.7,0.3-0.7,0.7s0.3,0.7,0.7,0.7s0.7-0.3,0.7-0.7S204.6,65,204.2,65z"/>
			</g>
		</g>
		<g>
			<g>
				<g>
					<g>
						<rect x="179" y="106.3" class="st1" width="1.2" height="11.4"/>
					</g>
					<g>
						<rect x="177.8" y="107.3" class="st1" width="3.5" height="1.2"/>
					</g>
				</g>
				<g>
					<circle class="st0" cx="179.6" cy="113.2" r="1.3"/>
					<path class="st1" d="M179.6,115.2c-1.1,0-1.9-0.9-1.9-1.9c0-1.1,0.9-1.9,1.9-1.9c1.1,0,1.9,0.9,1.9,1.9
						S180.6,115.2,179.6,115.2z M179.6,112.5c-0.4,0-0.7,0.3-0.7,0.7c0,0.4,0.3,0.7,0.7,0.7s0.7-0.3,0.7-0.7S180,112.5,179.6,112.5z
						"/>
				</g>
			</g>
			<g>
				<g>
					<path class="st0" d="M184.8,129.9c0,0,1.9-1.1,1.9-4.2c0-3.4-6.9-7-7.2-8.4c-0.3,1.4-7.1,4.9-7.1,8.4c0,3.2,2,4.2,2,4.2H184.8z
						"/>
					<path class="st1" d="M185,130.5h-10.7l-0.1-0.1c-0.1,0-2.3-1.2-2.3-4.8c0-2.4,2.8-4.7,5-6.5c0.9-0.7,2-1.6,2.1-2l0.7-2.4
						l0.5,2.4c0.1,0.3,1.3,1.3,2.1,1.9c2.3,1.8,5.1,4.1,5.1,6.5c0,3.5-2.1,4.7-2.2,4.8L185,130.5z M174.6,129.3h10.1
						c0.4-0.3,1.5-1.3,1.5-3.6c0-1.9-2.7-4-4.6-5.6c-0.9-0.7-1.5-1.2-1.9-1.7c-0.4,0.5-1.1,1-1.9,1.7c-1.9,1.6-4.6,3.7-4.6,5.6
						C173,128,174.2,129,174.6,129.3z"/>
				</g>
				<g>
					<path class="st1" d="M177.5,130.1c0-0.3-1.2-7.5,1.6-12.6l1.1,0.6c-2.5,4.7-1.4,11.7-1.4,11.8L177.5,130.1z"/>
				</g>
				<g>
					<path class="st1" d="M176.2,130.5c-0.1-0.1-1.7-1.5-1.8-4.1s1.4-5.4,4.4-8.3l0.9,0.9c-2.7,2.6-4.1,5.1-4,7.3
						c0.1,2,1.3,3.1,1.4,3.2L176.2,130.5z"/>
				</g>
				<g>
					<path class="st1" d="M181.7,130.1l-1.2-0.2c0-0.1,1.1-7.1-1.4-11.8l1.1-0.6C182.8,122.6,181.7,129.8,181.7,130.1z"/>
				</g>
				<g>
					<path class="st1" d="M182.9,130.5l-0.8-0.9l0.4,0.5l-0.4-0.5c0.1,0,1.3-1.1,1.4-3.2c0.1-2.2-1.3-4.7-4-7.3l0.9-0.9
						c3,2.9,4.5,5.7,4.4,8.3C184.6,129,183,130.4,182.9,130.5z"/>
				</g>
			</g>
			<g>
				<rect x="174.6" y="129.9" class="st0" width="10" height="7.8"/>
				<path class="st1" d="M185.2,138.3h-11.3v-9h11.3V138.3z M175.2,137.1h8.8v-6.6h-8.8V137.1z"/>
			</g>
			<g>
				<rect x="177.3" y="130.2" class="st1" width="1.2" height="7.4"/>
			</g>
			<g>
				<rect x="180.6" y="130.2" class="st1" width="1.2" height="7.4"/>
			</g>
		</g>
		<g>
			<g>
				<g>
					<path class="st0" d="M234.2,129.9c0,0,1.9-1.1,1.9-4.2c0-3.4-6.9-7-7.2-8.4c-0.3,1.4-7.1,4.9-7.1,8.4c0,3.2,2,4.2,2,4.2H234.2z
						"/>
					<path class="st1" d="M234.4,130.5h-10.7l-0.1-0.1c-0.1,0-2.3-1.2-2.3-4.8c0-2.4,2.8-4.7,5-6.5c0.9-0.7,2-1.6,2.1-2l0.7-2.4
						l0.5,2.4c0.1,0.3,1.3,1.3,2.1,1.9c2.3,1.8,5.1,4.1,5.1,6.5c0,3.5-2.1,4.7-2.2,4.8L234.4,130.5z M224,129.3h10.1
						c0.4-0.3,1.5-1.3,1.5-3.6c0-1.9-2.7-4-4.6-5.6c-0.9-0.7-1.5-1.2-1.9-1.7c-0.4,0.5-1.1,1-1.9,1.7c-1.9,1.6-4.6,3.7-4.6,5.6
						C222.4,128,223.6,129,224,129.3z"/>
				</g>
				<g>
					<g>
						<rect x="228.3" y="106.3" class="st1" width="1.2" height="11.4"/>
					</g>
					<g>
						<rect x="227.2" y="107.3" class="st1" width="3.5" height="1.2"/>
					</g>
					<g>
						<circle class="st0" cx="228.9" cy="113.2" r="1.3"/>
						<path class="st1" d="M228.9,115.2c-1.1,0-1.9-0.9-1.9-1.9c0-1.1,0.9-1.9,1.9-1.9s1.9,0.9,1.9,1.9
							C230.9,114.3,230,115.2,228.9,115.2z M228.9,112.5c-0.4,0-0.7,0.3-0.7,0.7c0,0.4,0.3,0.7,0.7,0.7s0.7-0.3,0.7-0.7
							C229.6,112.8,229.3,112.5,228.9,112.5z"/>
					</g>
				</g>
				<g>
					<g>
						<polygon class="st1" points="229,128.6 226.7,127 224.4,128.6 221.7,126.7 222.4,125.7 224.4,127.1 226.7,125.5 229,127.1 
							231.3,125.5 233.6,127.1 235.6,125.7 236.3,126.7 233.6,128.6 231.3,127 						"/>
					</g>
					<g>
						<polygon class="st1" points="224.4,125.3 222.3,123.9 223,122.9 224.4,123.8 226.7,122.2 229,123.8 231.3,122.2 233.6,123.8 
							234.9,122.9 235.6,123.9 233.6,125.3 231.3,123.7 229,125.3 226.7,123.7 						"/>
					</g>
					<g>
						<polygon class="st1" points="229,122 226.3,120.2 227,119.2 229,120.5 231,119.2 231.7,120.2 						"/>
					</g>
				</g>
			</g>
			<g>
				<g>
					<rect x="223.9" y="129.9" class="st0" width="10" height="7.8"/>
					<path class="st1" d="M234.6,138.3h-11.3v-9h11.3V138.3z M224.5,137.1h8.8v-6.6h-8.8V137.1z"/>
				</g>
				<g>
					<line class="st2" x1="227.3" y1="137.6" x2="227.3" y2="130.2"/>
					<rect x="226.7" y="130.2" class="st1" width="1.2" height="7.4"/>
				</g>
				<g>
					<line class="st2" x1="230.6" y1="137.6" x2="230.6" y2="130.2"/>
					<rect x="230" y="130.2" class="st1" width="1.2" height="7.4"/>
				</g>
			</g>
		</g>
		<g>
			<g>
				<g>
					<path class="st0" d="M208.9,128.1c1.3-0.8,2.1-2.7,2.1-4.6c0-3.7-6.4-7.5-6.7-9c-0.3,1.5-6.7,5.3-6.7,9c0,1.9,0.8,3.8,2.1,4.6
						H208.9z"/>
					<path class="st1" d="M209.1,128.7h-9.7l-0.1-0.1c-1.4-0.9-2.4-2.9-2.4-5.1c0-2.6,2.6-5,4.7-7c0.9-0.8,1.9-1.8,2-2.1l0.6-3
						l0.6,3c0.1,0.4,1.1,1.3,2,2.1c2.1,2,4.8,4.4,4.8,7c0,2.2-1,4.2-2.4,5.1L209.1,128.7z M199.7,127.5h9c1-0.7,1.6-2.3,1.6-3.9
						c0-2.1-2.5-4.4-4.4-6.1c-0.8-0.7-1.4-1.3-1.8-1.7c-0.4,0.5-1,1-1.8,1.7c-1.8,1.7-4.3,4-4.3,6.1
						C198.1,125.2,198.8,126.8,199.7,127.5z"/>
				</g>
				<g>
					<line class="st2" x1="204.2" y1="114.8" x2="204.2" y2="103.1"/>
					<rect x="203.6" y="103.1" class="st1" width="1.2" height="11.7"/>
				</g>
				<g>
					<line class="st2" x1="202.3" y1="104.9" x2="206.1" y2="104.9"/>
					<rect x="202.3" y="104.3" class="st1" width="3.8" height="1.2"/>
				</g>
				<g>
					<circle class="st0" cx="204.2" cy="111.2" r="1.4"/>
					<path class="st1" d="M204.2,113.2c-1.1,0-2-0.9-2-2s0.9-2,2-2s2,0.9,2,2S205.4,113.2,204.2,113.2z M204.2,110.4
						c-0.5,0-0.8,0.4-0.8,0.8s0.4,0.8,0.8,0.8c0.5,0,0.8-0.4,0.8-0.8S204.7,110.4,204.2,110.4z"/>
				</g>
				<g>
					<rect x="199.6" y="128.1" class="st0" width="9.3" height="9.5"/>
					<path class="st1" d="M209.5,138.2H199v-10.7h10.5V138.2z M200.2,137h8v-8.3h-8V137z"/>
				</g>
			</g>
			<g>
				<rect x="203.6" y="128.3" class="st1" width="1.2" height="9.1"/>
			</g>
		</g>
		<g>
			<g>
				<rect x="185.4" y="164.9" class="st0" width="38" height="11.8"/>
				<path class="st1" d="M224,177.3h-39.2v-13H224V177.3z M186,176h36.8v-10.5H186V176z"/>
			</g>
			<g>
				<rect x="185.4" y="150.4" class="st0" width="9.2" height="26.1"/>
				<path class="st1" d="M195.2,177.1h-10.4v-27.3h10.4V177.1z M186,175.9h8v-24.8h-8V175.9z"/>
			</g>
			<g>
				<rect x="214.2" y="150.4" class="st0" width="9.2" height="26.1"/>
				<path class="st1" d="M224,177.1h-10.4v-27.3H224V177.1z M214.8,175.9h8v-24.8h-8V175.9z"/>
			</g>
			<g>
				<path class="st1" d="M187.9,176.2h-1.2v-6.5c0-1.8,1.5-3.3,3.3-3.3s3.3,1.5,3.3,3.3v6.4H192v-6.4c0-1.1-0.9-2-2-2s-2,0.9-2,2
					v6.5H187.9z"/>
			</g>
			<g>
				<path class="st1" d="M216.7,176.2h-1.2v-6.5c0-1.8,1.5-3.3,3.3-3.3s3.3,1.5,3.3,3.3v6.4h-1.2v-6.4c0-1.1-0.9-2-2-2s-2,0.9-2,2
					v6.5H216.7z"/>
			</g>
			<g>
				<rect x="184.1" y="157.7" class="st1" width="12" height="1.2"/>
			</g>
			<g>
				<rect x="212.8" y="157.7" class="st1" width="12" height="1.2"/>
			</g>
			<g>
				<g>
					<g>
						<path class="st0" d="M194.7,141.6c1.3-0.8,2.1-2.7,2.1-4.6c0-3.7-6.4-7.5-6.7-9c-0.3,1.5-6.7,5.3-6.7,9c0,1.9,0.8,3.8,2.1,4.6
							H194.7z"/>
						<path class="st1" d="M194.9,142.3h-9.7l-0.1-0.1c-1.4-0.9-2.4-2.9-2.4-5.1c0-2.6,2.6-5,4.7-7c0.9-0.8,1.9-1.8,2-2.1l0.6-3
							l0.6,3c0.1,0.4,1.1,1.3,2,2.1c2.1,2,4.8,4.4,4.8,7c0,2.2-1,4.2-2.4,5.1L194.9,142.3z M185.5,141h9c1-0.7,1.6-2.3,1.6-3.9
							c0-2.1-2.5-4.4-4.4-6.1c-0.8-0.7-1.4-1.3-1.8-1.7c-0.4,0.5-1,1-1.8,1.7c-1.8,1.7-4.3,4-4.3,6.1
							C183.9,138.8,184.6,140.3,185.5,141z"/>
					</g>
					<g>
						<line class="st2" x1="190" y1="128.4" x2="190" y2="116.7"/>
						<rect x="189.4" y="116.7" class="st1" width="1.2" height="11.7"/>
					</g>
					<g>
						<line class="st2" x1="188.1" y1="118.5" x2="191.9" y2="118.5"/>
						<rect x="188.1" y="117.9" class="st1" width="3.8" height="1.2"/>
					</g>
					<g>
						<circle class="st0" cx="190" cy="124.8" r="1.4"/>
						<path class="st1" d="M190,126.8c-1.1,0-2-0.9-2-2s0.9-2,2-2s2,0.9,2,2S191.2,126.8,190,126.8z M190,123.9
							c-0.5,0-0.8,0.4-0.8,0.8s0.4,0.8,0.8,0.8c0.5,0,0.8-0.4,0.8-0.8S190.5,123.9,190,123.9z"/>
					</g>
					<g>
						<rect x="185.4" y="141.6" class="st0" width="9.3" height="8.7"/>
						<path class="st1" d="M195.3,151h-10.5v-9.9h10.5V151z M186,149.8h8v-7.5h-8V149.8z"/>
					</g>
				</g>
				<g>
					<rect x="189.4" y="141.9" class="st1" width="1.2" height="8.2"/>
				</g>
			</g>
			<g>
				<g>
					<g>
						<path class="st0" d="M223.4,141.6c1.3-0.8,2.1-2.7,2.1-4.6c0-3.7-6.4-7.5-6.7-9c-0.3,1.5-6.7,5.3-6.7,9c0,1.9,0.8,3.8,2.1,4.6
							H223.4z"/>
						<path class="st1" d="M223.6,142.3h-9.7l-0.1-0.1c-1.4-0.9-2.4-2.9-2.4-5.1c0-2.6,2.6-5,4.7-7c0.9-0.8,1.9-1.8,2-2.1l0.6-3
							l0.6,3c0.1,0.4,1.1,1.3,2,2.1c2.1,2,4.8,4.4,4.8,7c0,2.2-1,4.2-2.4,5.1L223.6,142.3z M214.2,141h9c1-0.7,1.6-2.3,1.6-3.9
							c0-2.1-2.5-4.4-4.4-6.1c-0.8-0.7-1.4-1.3-1.8-1.7c-0.4,0.5-1,1-1.8,1.7c-1.8,1.7-4.3,4-4.3,6.1
							C212.6,138.8,213.3,140.3,214.2,141z"/>
					</g>
					<g>
						<line class="st2" x1="218.7" y1="128.4" x2="218.7" y2="116.7"/>
						<rect x="218.1" y="116.7" class="st1" width="1.2" height="11.7"/>
					</g>
					<g>
						<line class="st2" x1="216.8" y1="118.5" x2="220.6" y2="118.5"/>
						<rect x="216.8" y="117.9" class="st1" width="3.8" height="1.2"/>
					</g>
					<g>
						<circle class="st0" cx="218.7" cy="124.8" r="1.4"/>
						<path class="st1" d="M218.7,126.8c-1.1,0-2-0.9-2-2s0.9-2,2-2s2,0.9,2,2S219.9,126.8,218.7,126.8z M218.7,123.9
							c-0.5,0-0.8,0.4-0.8,0.8s0.4,0.8,0.8,0.8s0.8-0.4,0.8-0.8S219.2,123.9,218.7,123.9z"/>
					</g>
					<g>
						<rect x="214.1" y="141.6" class="st0" width="9.3" height="8.7"/>
						<path class="st1" d="M224,151h-10.5v-9.9H224V151z M214.7,149.8h8v-7.5h-8V149.8z"/>
					</g>
				</g>
				<g>
					<rect x="218.1" y="141.9" class="st1" width="1.2" height="8.2"/>
				</g>
			</g>
		</g>
	</g>
	<g>
		<g>
			<g>
				<g>
					<g>
						<rect x="15.1" y="133.5" class="st0" width="13.3" height="43.2"/>
						<path class="st1" d="M29,177.3H14.5v-44.4H29V177.3z M15.7,176h12.1v-42H15.7V176z"/>
					</g>
					<g>
						<rect x="18.2" y="124.3" class="st0" width="7.1" height="9.2"/>
						<path class="st1" d="M25.9,134.1h-8.3v-10.4h8.3C25.9,123.7,25.9,134.1,25.9,134.1z M18.8,132.9h5.8v-8h-5.8V132.9z"/>
					</g>
					<g>
						<rect x="20.1" y="119.1" class="st0" width="3.4" height="5.2"/>
						<path class="st1" d="M24.1,124.9h-4.6v-6.4h4.6V124.9z M20.7,123.6h2.1v-3.9h-2.1V123.6z"/>
					</g>
				</g>
				<g>
					<rect x="11.6" y="135.1" class="st0" width="3.5" height="41.6"/>
					<path class="st1" d="M15.7,177.3H11v-42.8h4.7V177.3z M12.2,176h2.3v-40.4h-2.3V176z"/>
				</g>
				<g>
					<rect x="28.4" y="135.1" class="st0" width="3.5" height="41.6"/>
					<path class="st1" d="M32.5,177.3h-4.7v-42.8h4.7V177.3z M29.1,176h2.3v-40.4h-2.3V176z"/>
				</g>
			</g>
			<g>
				<g>
					<rect x="32" y="140.5" class="st0" width="13.3" height="36.1"/>
					<path class="st1" d="M45.9,177.3H31.4v-37.4h14.5V177.3z M32.6,176h12.1v-34.9H32.6V176z"/>
				</g>
				<g>
					<rect x="50.3" y="140.5" class="st0" width="8.2" height="36.1"/>
					<path class="st1" d="M59.1,177.3h-9.4v-37.4h9.4V177.3z M50.9,176h7v-34.9h-7V176z"/>
				</g>
				<g>
					<rect x="45.3" y="135" class="st0" width="5" height="41.7"/>
					<path class="st1" d="M50.9,177.3h-6.2v-42.9h6.2V177.3z M45.9,176h3.8v-40.4h-3.8V176z"/>
				</g>
			</g>
			<g>
				<g>
					<rect x="34.4" y="143" class="st1" width="3.3" height="1.8"/>
				</g>
				<g>
					<rect x="34.4" y="146.1" class="st1" width="3.3" height="1.8"/>
				</g>
				<g>
					<rect x="34.4" y="149.2" class="st1" width="3.3" height="1.8"/>
				</g>
				<g>
					<rect x="34.4" y="152.3" class="st1" width="3.3" height="1.8"/>
				</g>
				<g>
					<rect x="34.4" y="155.4" class="st1" width="3.3" height="1.8"/>
				</g>
				<g>
					<rect x="34.4" y="158.5" class="st1" width="3.3" height="1.8"/>
				</g>
				<g>
					<rect x="34.4" y="161.6" class="st1" width="3.3" height="1.8"/>
				</g>
				<g>
					<rect x="34.4" y="164.7" class="st1" width="3.3" height="1.8"/>
				</g>
				<g>
					<rect x="34.4" y="167.8" class="st1" width="3.3" height="1.8"/>
				</g>
				<g>
					<rect x="34.4" y="170.9" class="st1" width="3.3" height="1.8"/>
				</g>
				<g>
					<rect x="39.4" y="143" class="st1" width="3.3" height="1.8"/>
				</g>
				<g>
					<rect x="39.4" y="146.1" class="st1" width="3.3" height="1.8"/>
				</g>
				<g>
					<rect x="39.4" y="149.2" class="st1" width="3.3" height="1.8"/>
				</g>
				<g>
					<rect x="39.4" y="152.3" class="st1" width="3.3" height="1.8"/>
				</g>
				<g>
					<rect x="39.4" y="155.4" class="st1" width="3.3" height="1.8"/>
				</g>
				<g>
					<rect x="39.4" y="158.5" class="st1" width="3.3" height="1.8"/>
				</g>
				<g>
					<rect x="39.4" y="161.6" class="st1" width="3.3" height="1.8"/>
				</g>
				<g>
					<rect x="39.4" y="164.7" class="st1" width="3.3" height="1.8"/>
				</g>
				<g>
					<rect x="39.4" y="167.8" class="st1" width="3.3" height="1.8"/>
				</g>
				<g>
					<rect x="39.4" y="170.9" class="st1" width="3.3" height="1.8"/>
				</g>
				<g>
					<rect x="52.7" y="143" class="st1" width="3.3" height="1.8"/>
				</g>
				<g>
					<rect x="52.7" y="146.1" class="st1" width="3.3" height="1.8"/>
				</g>
				<g>
					<rect x="52.7" y="149.2" class="st1" width="3.3" height="1.8"/>
				</g>
				<g>
					<rect x="52.7" y="152.3" class="st1" width="3.3" height="1.8"/>
				</g>
				<g>
					<rect x="52.7" y="155.4" class="st1" width="3.3" height="1.8"/>
				</g>
				<g>
					<rect x="52.7" y="158.5" class="st1" width="3.3" height="1.8"/>
				</g>
				<g>
					<rect x="52.7" y="161.6" class="st1" width="3.3" height="1.8"/>
				</g>
				<g>
					<rect x="52.7" y="164.7" class="st1" width="3.3" height="1.8"/>
				</g>
				<g>
					<rect x="52.7" y="167.8" class="st1" width="3.3" height="1.8"/>
				</g>
				<g>
					<rect x="52.7" y="170.9" class="st1" width="3.3" height="1.8"/>
				</g>
				<g>
					<circle class="st1" cx="21.8" cy="128.8" r="1.1"/>
				</g>
				<g>
					<g>
						<g>
							<rect x="17.7" y="136.9" class="st1" width="3.3" height="1.8"/>
						</g>
						<g>
							<rect x="17.7" y="139.9" class="st1" width="3.3" height="1.8"/>
						</g>
						<g>
							<rect x="17.7" y="143" class="st1" width="3.3" height="1.8"/>
						</g>
						<g>
							<rect x="17.7" y="146.1" class="st1" width="3.3" height="1.8"/>
						</g>
						<g>
							<rect x="17.7" y="149.2" class="st1" width="3.3" height="1.8"/>
						</g>
						<g>
							<rect x="17.7" y="152.3" class="st1" width="3.3" height="1.8"/>
						</g>
						<g>
							<rect x="17.7" y="155.4" class="st1" width="3.3" height="1.8"/>
						</g>
						<g>
							<rect x="17.7" y="158.5" class="st1" width="3.3" height="1.8"/>
						</g>
						<g>
							<rect x="17.7" y="161.6" class="st1" width="3.3" height="1.8"/>
						</g>
						<g>
							<rect x="17.7" y="164.7" class="st1" width="3.3" height="1.8"/>
						</g>
						<g>
							<rect x="17.7" y="167.8" class="st1" width="3.3" height="1.8"/>
						</g>
						<g>
							<rect x="17.7" y="170.9" class="st1" width="3.3" height="1.8"/>
						</g>
					</g>
					<g>
						<g>
							<rect x="22.6" y="136.9" class="st1" width="3.3" height="1.8"/>
						</g>
						<g>
							<rect x="22.6" y="139.9" class="st1" width="3.3" height="1.8"/>
						</g>
						<g>
							<rect x="22.6" y="143" class="st1" width="3.3" height="1.8"/>
						</g>
						<g>
							<rect x="22.6" y="146.1" class="st1" width="3.3" height="1.8"/>
						</g>
						<g>
							<rect x="22.6" y="149.2" class="st1" width="3.3" height="1.8"/>
						</g>
						<g>
							<rect x="22.6" y="152.3" class="st1" width="3.3" height="1.8"/>
						</g>
						<g>
							<rect x="22.6" y="155.4" class="st1" width="3.3" height="1.8"/>
						</g>
						<g>
							<rect x="22.6" y="158.5" class="st1" width="3.3" height="1.8"/>
						</g>
						<g>
							<rect x="22.6" y="161.6" class="st1" width="3.3" height="1.8"/>
						</g>
						<g>
							<rect x="22.6" y="164.7" class="st1" width="3.3" height="1.8"/>
						</g>
						<g>
							<rect x="22.6" y="167.8" class="st1" width="3.3" height="1.8"/>
						</g>
						<g>
							<rect x="22.6" y="170.9" class="st1" width="3.3" height="1.8"/>
						</g>
					</g>
				</g>
			</g>
		</g>
		<g>
			<g>
				<g>
					<g>
						<rect x="123.5" y="133.5" class="st0" width="13.3" height="43.2"/>
						<path class="st1" d="M137.4,177.3h-14.5v-44.4h14.5V177.3z M124.1,176h12.1v-42h-12.1V176z"/>
					</g>
					<g>
						<rect x="126.6" y="124.3" class="st0" width="7.1" height="9.2"/>
						<path class="st1" d="M134.2,134.1H126v-10.4h8.3v10.4H134.2z M127.2,132.9h5.8v-8h-5.8V132.9z"/>
					</g>
					<g>
						<rect x="128.4" y="119.1" class="st0" width="3.4" height="5.2"/>
						<path class="st1" d="M132.4,124.9h-4.6v-6.4h4.6V124.9z M129,123.6h2.1v-3.9H129V123.6z"/>
					</g>
				</g>
				<g>
					<rect x="136.8" y="135.1" class="st0" width="3.5" height="41.6"/>
					<path class="st1" d="M140.8,177.3h-4.7v-42.8h4.7V177.3z M137.4,176h2.3v-40.4h-2.3V176z"/>
				</g>
				<g>
					<rect x="119.9" y="135.1" class="st0" width="3.5" height="41.6"/>
					<path class="st1" d="M124,177.3h-4.7v-42.8h4.7V177.3z M120.5,176h2.3v-40.4h-2.3V176z"/>
				</g>
			</g>
			<g>
				<g>
					<rect x="106.6" y="140.5" class="st0" width="13.3" height="36.1"/>
					<path class="st1" d="M120.5,177.3H106v-37.4h14.5V177.3z M107.2,176h12.1v-34.9h-12.1V176z"/>
				</g>
				<g>
					<rect x="93.4" y="140.5" class="st0" width="8.2" height="36.1"/>
					<path class="st1" d="M102.2,177.3h-9.4v-37.4h9.4V177.3z M94,176h7v-34.9h-7V176z"/>
				</g>
				<g>
					<rect x="101.6" y="135" class="st0" width="5" height="41.7"/>
					<path class="st1" d="M107.2,177.3H101v-42.9h6.2V177.3z M102.2,176h3.8v-40.4h-3.8V176z"/>
				</g>
			</g>
			<g>
				<g>
					<rect x="114.1" y="143" class="st1" width="3.3" height="1.8"/>
				</g>
				<g>
					<rect x="114.1" y="146.1" class="st1" width="3.3" height="1.8"/>
				</g>
				<g>
					<rect x="114.1" y="149.2" class="st1" width="3.3" height="1.8"/>
				</g>
				<g>
					<rect x="114.1" y="152.3" class="st1" width="3.3" height="1.8"/>
				</g>
				<g>
					<rect x="114.1" y="155.4" class="st1" width="3.3" height="1.8"/>
				</g>
				<g>
					<rect x="114.1" y="158.5" class="st1" width="3.3" height="1.8"/>
				</g>
				<g>
					<rect x="114.1" y="161.6" class="st1" width="3.3" height="1.8"/>
				</g>
				<g>
					<rect x="114.1" y="164.7" class="st1" width="3.3" height="1.8"/>
				</g>
				<g>
					<rect x="114.1" y="167.8" class="st1" width="3.3" height="1.8"/>
				</g>
				<g>
					<rect x="114.1" y="170.9" class="st1" width="3.3" height="1.8"/>
				</g>
				<g>
					<rect x="109.2" y="143" class="st1" width="3.3" height="1.8"/>
				</g>
				<g>
					<rect x="109.2" y="146.1" class="st1" width="3.3" height="1.8"/>
				</g>
				<g>
					<rect x="109.2" y="149.2" class="st1" width="3.3" height="1.8"/>
				</g>
				<g>
					<rect x="109.2" y="152.3" class="st1" width="3.3" height="1.8"/>
				</g>
				<g>
					<rect x="109.2" y="155.4" class="st1" width="3.3" height="1.8"/>
				</g>
				<g>
					<rect x="109.2" y="158.5" class="st1" width="3.3" height="1.8"/>
				</g>
				<g>
					<rect x="109.2" y="161.6" class="st1" width="3.3" height="1.8"/>
				</g>
				<g>
					<rect x="109.2" y="164.7" class="st1" width="3.3" height="1.8"/>
				</g>
				<g>
					<rect x="109.2" y="167.8" class="st1" width="3.3" height="1.8"/>
				</g>
				<g>
					<rect x="109.2" y="170.9" class="st1" width="3.3" height="1.8"/>
				</g>
				<g>
					<rect x="95.9" y="143" class="st1" width="3.3" height="1.8"/>
				</g>
				<g>
					<rect x="95.9" y="146.1" class="st1" width="3.3" height="1.8"/>
				</g>
				<g>
					<rect x="95.9" y="149.2" class="st1" width="3.3" height="1.8"/>
				</g>
				<g>
					<rect x="95.9" y="152.3" class="st1" width="3.3" height="1.8"/>
				</g>
				<g>
					<rect x="95.9" y="155.4" class="st1" width="3.3" height="1.8"/>
				</g>
				<g>
					<rect x="95.9" y="158.5" class="st1" width="3.3" height="1.8"/>
				</g>
				<g>
					<rect x="95.9" y="161.6" class="st1" width="3.3" height="1.8"/>
				</g>
				<g>
					<rect x="95.9" y="164.7" class="st1" width="3.3" height="1.8"/>
				</g>
				<g>
					<rect x="95.9" y="167.8" class="st1" width="3.3" height="1.8"/>
				</g>
				<g>
					<rect x="95.9" y="170.9" class="st1" width="3.3" height="1.8"/>
				</g>
				<g>
					<circle class="st1" cx="130.1" cy="128.8" r="1.1"/>
				</g>
				<g>
					<g>
						<g>
							<rect x="130.9" y="136.9" class="st1" width="3.3" height="1.8"/>
						</g>
						<g>
							<rect x="130.9" y="139.9" class="st1" width="3.3" height="1.8"/>
						</g>
						<g>
							<rect x="130.9" y="143" class="st1" width="3.3" height="1.8"/>
						</g>
						<g>
							<rect x="130.9" y="146.1" class="st1" width="3.3" height="1.8"/>
						</g>
						<g>
							<rect x="130.9" y="149.2" class="st1" width="3.3" height="1.8"/>
						</g>
						<g>
							<rect x="130.9" y="152.3" class="st1" width="3.3" height="1.8"/>
						</g>
						<g>
							<rect x="130.9" y="155.4" class="st1" width="3.3" height="1.8"/>
						</g>
						<g>
							<rect x="130.9" y="158.5" class="st1" width="3.3" height="1.8"/>
						</g>
						<g>
							<rect x="130.9" y="161.6" class="st1" width="3.3" height="1.8"/>
						</g>
						<g>
							<rect x="130.9" y="164.7" class="st1" width="3.3" height="1.8"/>
						</g>
						<g>
							<rect x="130.9" y="167.8" class="st1" width="3.3" height="1.8"/>
						</g>
						<g>
							<rect x="130.9" y="170.9" class="st1" width="3.3" height="1.8"/>
						</g>
					</g>
					<g>
						<g>
							<rect x="126" y="136.9" class="st1" width="3.3" height="1.8"/>
						</g>
						<g>
							<rect x="126" y="139.9" class="st1" width="3.3" height="1.8"/>
						</g>
						<g>
							<rect x="126" y="143" class="st1" width="3.3" height="1.8"/>
						</g>
						<g>
							<rect x="126" y="146.1" class="st1" width="3.3" height="1.8"/>
						</g>
						<g>
							<rect x="126" y="149.2" class="st1" width="3.3" height="1.8"/>
						</g>
						<g>
							<rect x="126" y="152.3" class="st1" width="3.3" height="1.8"/>
						</g>
						<g>
							<rect x="126" y="155.4" class="st1" width="3.3" height="1.8"/>
						</g>
						<g>
							<rect x="126" y="158.5" class="st1" width="3.3" height="1.8"/>
						</g>
						<g>
							<rect x="126" y="161.6" class="st1" width="3.3" height="1.8"/>
						</g>
						<g>
							<rect x="126" y="164.7" class="st1" width="3.3" height="1.8"/>
						</g>
						<g>
							<rect x="126" y="167.8" class="st1" width="3.3" height="1.8"/>
						</g>
						<g>
							<rect x="126" y="170.9" class="st1" width="3.3" height="1.8"/>
						</g>
					</g>
				</g>
			</g>
		</g>
		<g>
			<g>
				<g>
					<g>
						<rect x="58.5" y="120.3" class="st0" width="3.1" height="56.4"/>
						<path class="st1" d="M62.2,177.3h-4.3v-57.6h4.3V177.3z M59.1,176.1H61v-55.2h-1.9V176.1z"/>
					</g>
					<g>
						<rect x="90.3" y="120.3" class="st0" width="3.1" height="56.4"/>
						<path class="st1" d="M94,177.3h-4.3v-57.6H94V177.3z M90.9,176.1h1.9v-55.2h-1.9V176.1z"/>
					</g>
					<g>
						<polyline class="st0" points="69.3,159.3 69.3,116.5 61.6,116.5 61.6,172.8 64.9,172.8 87,172.8 90.3,172.8 90.3,116.5 
							82.6,116.5 82.6,159.5 						"/>
						<polygon class="st1" points="90.9,173.4 60.9,173.4 60.9,115.9 69.9,115.9 69.9,159.3 68.7,159.3 68.7,117.1 62.2,117.1 
							62.2,172.2 89.7,172.2 89.7,117.1 83.2,117.1 83.2,159.5 81.9,159.5 81.9,115.9 90.9,115.9 						"/>
					</g>
					<g>
						<rect x="70.4" y="100.4" class="st0" width="11" height="16.1"/>
						<path class="st1" d="M82,117.1H69.8V99.8H82V117.1z M71,115.9h9.8V101H71V115.9z"/>
					</g>
					<g>
						<rect x="70.4" y="79.6" class="st0" width="11" height="20.8"/>
						<path class="st1" d="M82,101H69.8V79H82V101z M71,99.8h9.8V80.2H71V99.8z"/>
					</g>
					<g>
						<rect x="67.3" y="98.8" class="st0" width="3.1" height="17.7"/>
						<path class="st1" d="M71,117.1h-4.3V98.2H71V117.1z M67.9,115.8h1.9V99.4h-1.9V115.8z"/>
					</g>
					<g>
						<rect x="81.4" y="98.8" class="st0" width="3.1" height="17.7"/>
						<path class="st1" d="M85.1,117.1h-4.3V98.2h4.3V117.1z M82,115.8h1.9V99.4H82V115.8z"/>
					</g>
				</g>
				<g>
					<g>
						<rect x="69.3" y="120.4" class="st0" width="13.3" height="39.1"/>
						<path class="st1" d="M83.2,160.2H68.7v-40.3h14.5V160.2z M69.9,158.9H82V121H69.9V158.9z"/>
					</g>
					<g>
						<rect x="69.3" y="116.5" class="st0" width="13.3" height="3.9"/>
						<path class="st1" d="M83.2,121H68.7v-5.2h14.5V121z M69.9,119.8H82v-2.7H69.9V119.8z"/>
					</g>
				</g>
			</g>
			<g>
				<g>
					<g>
						<g>
							<rect x="76.8" y="123" class="st1" width="3.3" height="1.8"/>
						</g>
						<g>
							<rect x="76.8" y="126.1" class="st1" width="3.3" height="1.8"/>
						</g>
						<g>
							<rect x="76.8" y="129.2" class="st1" width="3.3" height="1.8"/>
						</g>
						<g>
							<rect x="76.8" y="132.3" class="st1" width="3.3" height="1.8"/>
						</g>
						<g>
							<rect x="76.8" y="135.4" class="st1" width="3.3" height="1.8"/>
						</g>
						<g>
							<rect x="76.8" y="138.5" class="st1" width="3.3" height="1.8"/>
						</g>
						<g>
							<rect x="76.8" y="141.6" class="st1" width="3.3" height="1.8"/>
						</g>
						<g>
							<rect x="76.8" y="144.6" class="st1" width="3.3" height="1.8"/>
						</g>
						<g>
							<rect x="76.8" y="147.7" class="st1" width="3.3" height="1.8"/>
						</g>
						<g>
							<rect x="76.8" y="150.8" class="st1" width="3.3" height="1.8"/>
						</g>
						<g>
							<rect x="71.8" y="123" class="st1" width="3.3" height="1.8"/>
						</g>
						<g>
							<rect x="71.8" y="126.1" class="st1" width="3.3" height="1.8"/>
						</g>
						<g>
							<rect x="71.8" y="129.2" class="st1" width="3.3" height="1.8"/>
						</g>
						<g>
							<rect x="71.8" y="132.3" class="st1" width="3.3" height="1.8"/>
						</g>
						<g>
							<rect x="71.8" y="135.4" class="st1" width="3.3" height="1.8"/>
						</g>
						<g>
							<rect x="71.8" y="138.5" class="st1" width="3.3" height="1.8"/>
						</g>
						<g>
							<rect x="71.8" y="141.6" class="st1" width="3.3" height="1.8"/>
						</g>
						<g>
							<rect x="71.8" y="144.6" class="st1" width="3.3" height="1.8"/>
						</g>
						<g>
							<rect x="71.8" y="147.7" class="st1" width="3.3" height="1.8"/>
						</g>
						<g>
							<rect x="71.8" y="150.8" class="st1" width="3.3" height="1.8"/>
						</g>
					</g>
					<g>
						<g>
							<rect x="76.5" y="102.5" class="st1" width="2.1" height="1.8"/>
						</g>
						<g>
							<rect x="76.5" y="105.6" class="st1" width="2.1" height="1.8"/>
						</g>
						<g>
							<rect x="76.5" y="108.7" class="st1" width="2.1" height="1.8"/>
						</g>
						<g>
							<rect x="76.5" y="111.8" class="st1" width="2.1" height="1.8"/>
						</g>
						<g>
							<rect x="73.2" y="102.5" class="st1" width="2.1" height="1.8"/>
						</g>
						<g>
							<rect x="73.2" y="105.6" class="st1" width="2.1" height="1.8"/>
						</g>
						<g>
							<rect x="73.2" y="108.7" class="st1" width="2.1" height="1.8"/>
						</g>
						<g>
							<rect x="73.2" y="111.8" class="st1" width="2.1" height="1.8"/>
						</g>
					</g>
				</g>
				<g>
					<g>
						<rect x="64.3" y="123" class="st1" width="2.1" height="1.8"/>
					</g>
					<g>
						<rect x="64.3" y="126.1" class="st1" width="2.1" height="1.8"/>
					</g>
					<g>
						<rect x="64.3" y="129.2" class="st1" width="2.1" height="1.8"/>
					</g>
					<g>
						<rect x="64.3" y="132.3" class="st1" width="2.1" height="1.8"/>
					</g>
					<g>
						<rect x="64.3" y="135.3" class="st1" width="2.1" height="1.8"/>
					</g>
					<g>
						<rect x="64.3" y="138.4" class="st1" width="2.1" height="1.8"/>
					</g>
					<g>
						<rect x="64.3" y="141.5" class="st1" width="2.1" height="1.8"/>
					</g>
					<g>
						<rect x="64.3" y="144.6" class="st1" width="2.1" height="1.8"/>
					</g>
					<g>
						<rect x="64.3" y="119.9" class="st1" width="2.1" height="1.8"/>
					</g>
					<g>
						<rect x="64.3" y="147.7" class="st1" width="2.1" height="1.8"/>
					</g>
					<g>
						<rect x="64.3" y="150.8" class="st1" width="2.1" height="1.8"/>
					</g>
					<g>
						<rect x="64.3" y="153.9" class="st1" width="2.1" height="1.8"/>
					</g>
				</g>
				<g>
					<g>
						<rect x="85.3" y="123" class="st1" width="2.1" height="1.8"/>
					</g>
					<g>
						<rect x="85.3" y="126.1" class="st1" width="2.1" height="1.8"/>
					</g>
					<g>
						<rect x="85.3" y="129.2" class="st1" width="2.1" height="1.8"/>
					</g>
					<g>
						<rect x="85.3" y="132.3" class="st1" width="2.1" height="1.8"/>
					</g>
					<g>
						<rect x="85.3" y="135.3" class="st1" width="2.1" height="1.8"/>
					</g>
					<g>
						<rect x="85.3" y="138.4" class="st1" width="2.1" height="1.8"/>
					</g>
					<g>
						<rect x="85.3" y="141.5" class="st1" width="2.1" height="1.8"/>
					</g>
					<g>
						<rect x="85.3" y="144.6" class="st1" width="2.1" height="1.8"/>
					</g>
					<g>
						<rect x="85.3" y="119.9" class="st1" width="2.1" height="1.8"/>
					</g>
					<g>
						<rect x="85.3" y="147.7" class="st1" width="2.1" height="1.8"/>
					</g>
					<g>
						<rect x="85.3" y="150.8" class="st1" width="2.1" height="1.8"/>
					</g>
					<g>
						<rect x="85.3" y="153.9" class="st1" width="2.1" height="1.8"/>
					</g>
				</g>
			</g>
			<g>
				<g>
					<g>
						<g>
							<rect x="64.9" y="159.5" class="st0" width="22" height="3.9"/>
							<path class="st1" d="M87.6,164.1H64.3v-5.2h23.3C87.6,158.9,87.6,164.1,87.6,164.1z M65.5,162.9h20.8v-2.7H65.5V162.9z"/>
						</g>
						<g>
							<rect x="64.9" y="170.9" class="st0" width="22" height="1.9"/>
							<path class="st1" d="M87.6,173.4H64.3v-3.1h23.3C87.6,170.3,87.6,173.4,87.6,173.4z M65.5,172.1h20.8v-0.6H65.5V172.1z"/>
						</g>
						<g>
							<rect x="61.6" y="172.8" class="st0" width="28.7" height="3.9"/>
							<path class="st1" d="M90.9,177.3h-30v-5.2h29.9L90.9,177.3L90.9,177.3z M62.2,176.1h27.5v-2.7H62.2V176.1z"/>
						</g>
						<g>
							<rect x="72.4" y="156.2" class="st0" width="7" height="3.4"/>
							<path class="st1" d="M80,160.2h-8.3v-4.6H80V160.2z M73,158.9h5.8v-2.1H73V158.9z"/>
						</g>
					</g>
					<g>
						<g>
							<rect x="68.7" y="163.3" class="st1" width="1.2" height="7.6"/>
						</g>
						<g>
							<rect x="81.9" y="163.4" class="st1" width="1.2" height="7.4"/>
						</g>
						<g>
							<rect x="71.8" y="163.7" class="st1" width="1.2" height="7.5"/>
						</g>
						<g>
							<rect x="75.4" y="163.7" class="st1" width="1.2" height="7.5"/>
						</g>
						<g>
							<rect x="78.9" y="163.7" class="st1" width="1.2" height="7.5"/>
						</g>
					</g>
				</g>
				<g>
					<rect x="74.1" y="77.8" class="st0" width="3.8" height="1.8"/>
					<path class="st1" d="M78.5,80.3h-5v-3.1h5V80.3z M74.7,79.1h2.5v-0.6h-2.5V79.1z"/>
				</g>
			</g>
			<g>
				<g>
					<g>
						<rect x="57.9" y="115.8" class="st1" width="1.2" height="4.3"/>
					</g>
					<g>
						<rect x="64.8" y="111.9" class="st1" width="1.2" height="4.3"/>
					</g>
					<g>
						<rect x="85.7" y="111.9" class="st1" width="1.2" height="4.3"/>
					</g>
					<g>
						<rect x="66.7" y="94.3" class="st1" width="1.2" height="4.3"/>
					</g>
					<g>
						<rect x="83.9" y="94.3" class="st1" width="1.2" height="4.3"/>
					</g>
					<g>
						<rect x="73.9" y="73.9" class="st1" width="4.3" height="1.2"/>
					</g>
					<g>
						<rect x="75.5" y="54.2" class="st1" width="1.2" height="23.5"/>
					</g>
					<g>
						<rect x="92.8" y="115.8" class="st1" width="1.2" height="4.3"/>
					</g>
					<g>
						<g>
							<rect x="73.5" y="79.6" class="st1" width="1.2" height="20.8"/>
						</g>
						<g>
							<rect x="77.3" y="79.6" class="st1" width="1.2" height="20.8"/>
						</g>
					</g>
				</g>
				<g>
					<circle class="st0" cx="76.1" cy="52" r="2.3"/>
					<path class="st1" d="M76.1,54.9c-1.6,0-2.9-1.3-2.9-2.9s1.3-2.9,2.9-2.9S79,50.4,79,52S77.8,54.9,76.1,54.9z M76.1,50.3
						c-0.9,0-1.7,0.8-1.7,1.7s0.8,1.7,1.7,1.7c0.9,0,1.7-0.8,1.7-1.7S77.1,50.3,76.1,50.3z"/>
				</g>
			</g>
		</g>
	</g>
	<g>
		<g>
			<g>
				<g>
					<path class="st0" d="M22.6,160.5c0-2.3-1.8-4.2-4-4.4c0.4-0.7,0.6-1.4,0.6-2.3c0-2.3-1.7-4.2-4-4.4c-0.6-1.7-2.2-2.9-4.1-2.9
						c-2.4,0-4.4,2-4.4,4.4c0,0.2,0,0.3,0,0.5c-1.6,0.7-2.7,2.2-2.7,4.1c0,0.6,0.1,1.2,0.3,1.7c-1.8,0.5-3.2,2.2-3.2,4.2
						c0,1.7,0.9,3.1,2.3,3.8c-0.1,0.4-0.2,0.9-0.2,1.4c0,2.4,2,4.4,4.4,4.4c1.9,0,3.5-1.2,4.1-2.8c0.6,1.6,2.2,2.8,4.1,2.8
						c2.4,0,4.4-2,4.4-4.4c0-0.7-0.2-1.4-0.5-2C21.4,164,22.6,162.4,22.6,160.5z"/>
					<path class="st3" d="M15.9,171.6c-1.7,0-3.2-0.8-4.1-2.1c-0.9,1.3-2.4,2.1-4.1,2.1c-2.8,0-5-2.2-5-5c0-0.4,0-0.7,0.1-1.1
						c-1.3-0.9-2.2-2.5-2.2-4.1c0-2,1.2-3.8,3-4.6c-0.1-0.4-0.2-0.9-0.2-1.3c0-1.9,1-3.6,2.7-4.4c0,0,0,0,0-0.1c0-2.8,2.2-5,5-5
						c2,0,3.8,1.2,4.6,2.9c2.4,0.4,4.1,2.5,4.1,4.9c0,0.6-0.1,1.2-0.3,1.8c2.2,0.6,3.7,2.5,3.7,4.8c0,1.9-1,3.6-2.7,4.4
						c0.2,0.5,0.3,1.1,0.3,1.7C20.9,169.4,18.6,171.6,15.9,171.6z M11.8,166.5l0.6,1.5c0.6,1.5,2,2.4,3.5,2.4c2.1,0,3.8-1.7,3.8-3.8
						c0-0.6-0.1-1.2-0.4-1.7l-0.3-0.6l0.6-0.2c1.5-0.6,2.5-2,2.5-3.5c0-2-1.5-3.6-3.5-3.8l-1-0.1l0.5-0.8c0.4-0.6,0.5-1.3,0.5-2
						c0-2-1.5-3.6-3.4-3.8h-0.4l-0.1-0.4c-0.5-1.5-2-2.5-3.6-2.5c-2.1,0-3.8,1.7-3.8,3.8c0,0.1,0,0.3,0,0.4v0.5L7,152
						c-1.4,0.6-2.3,2-2.3,3.5c0,0.5,0.1,1,0.3,1.5l0.3,0.6l-0.7,0.2c-1.6,0.5-2.8,2-2.8,3.6c0,1.4,0.7,2.6,2,3.3l0.4,0.2L4,165.4
						c-0.1,0.4-0.2,0.8-0.2,1.2c0,2.1,1.7,3.8,3.8,3.8c1.6,0,2.9-0.9,3.5-2.4L11.8,166.5z"/>
				</g>
				<g>
					<polyline class="st0" points="13.9,170.5 13.9,176.6 9.6,176.6 9.6,170.5 					"/>
					<polygon class="st3" points="14.5,177.3 9,177.3 9,170.5 10.2,170.5 10.2,176 13.3,176 13.3,170.5 14.5,170.5 					"/>
				</g>
			</g>
			<g>
				<g>
					<path class="st0" d="M250.9,168.9c0.2-0.5,0.4-1,0.4-1.6c0-2-1.6-3.6-3.6-3.6s-3.7,1.6-3.7,3.6c0,0.2,0,0.4,0.1,0.6
						c-1,0.5-1.6,1.5-1.6,2.6c0,1.6,1.3,2.9,2.9,2.9c1.2,0,3.8,0,4.9,0c1.3,0,2.3-1,2.3-2.3C252.5,170.1,251.8,169.2,250.9,168.9z"
						/>
					<path class="st3" d="M250.2,174.1h-4.9c-1.9,0-3.5-1.6-3.5-3.5c0-1.2,0.6-2.3,1.6-2.9c0-0.1,0-0.2,0-0.3c0-2.4,1.9-4.3,4.3-4.3
						c2.4,0,4.3,1.9,4.3,4.3c0,0.4-0.1,0.9-0.2,1.3c0.9,0.5,1.4,1.5,1.4,2.5C253.1,172.8,251.8,174.1,250.2,174.1z M247.6,164.3
						c-1.7,0-3,1.4-3,3c0,0.2,0,0.4,0,0.5l0.1,0.5l-0.4,0.2c-0.8,0.4-1.3,1.2-1.3,2c0,1.3,1,2.3,2.3,2.3h4.9c0.9,0,1.7-0.8,1.7-1.7
						c0-0.7-0.5-1.4-1.2-1.6l-0.7-0.2l0.3-0.6c0.2-0.4,0.3-0.9,0.3-1.3C250.6,165.7,249.3,164.3,247.6,164.3z"/>
				</g>
				<g>
					<line class="st2" x1="247.5" y1="173.5" x2="247.5" y2="177.1"/>
					<rect x="246.9" y="173.5" class="st3" width="1.2" height="3.6"/>
				</g>
			</g>
			<g>
				<g>
					<path class="st0" d="M303.6,168.9c0.2-0.5,0.4-1,0.4-1.6c0-2-1.6-3.6-3.6-3.6s-3.7,1.6-3.7,3.6c0,0.2,0,0.4,0.1,0.6
						c-1,0.5-1.6,1.5-1.6,2.6c0,1.6,1.3,2.9,2.9,2.9c1.2,0,3.8,0,4.9,0c1.3,0,2.3-1,2.3-2.3C305.2,170.1,304.5,169.2,303.6,168.9z"
						/>
					<path class="st3" d="M302.9,174.1H298c-1.9,0-3.5-1.6-3.5-3.5c0-1.2,0.6-2.3,1.6-2.9c0-0.1,0-0.2,0-0.3c0-2.4,1.9-4.3,4.3-4.3
						s4.3,1.9,4.3,4.3c0,0.4-0.1,0.9-0.2,1.3c0.9,0.5,1.4,1.5,1.4,2.5C305.8,172.8,304.5,174.1,302.9,174.1z M300.3,164.3
						c-1.7,0-3,1.4-3,3c0,0.2,0,0.4,0,0.5l0.1,0.5l-0.4,0.2c-0.8,0.4-1.3,1.2-1.3,2c0,1.3,1,2.3,2.3,2.3h4.9c0.9,0,1.7-0.8,1.7-1.7
						c0-0.7-0.5-1.4-1.2-1.6l-0.7-0.2l0.3-0.6c0.2-0.4,0.3-0.9,0.3-1.3C303.3,165.7,302,164.3,300.3,164.3z"/>
				</g>
				<g>
					<line class="st2" x1="300.2" y1="173.5" x2="300.2" y2="177.1"/>
					<rect x="299.6" y="173.5" class="st3" width="1.2" height="3.6"/>
				</g>
			</g>
			<g>
				<g>
					<path class="st0" d="M143.4,168.9c0.2-0.5,0.4-1,0.4-1.6c0-2-1.6-3.6-3.6-3.6s-3.7,1.6-3.7,3.6c0,0.2,0,0.4,0.1,0.6
						c-1,0.5-1.6,1.5-1.6,2.6c0,1.6,1.3,2.9,2.9,2.9c1.2,0,3.8,0,4.9,0c1.3,0,2.3-1,2.3-2.3C145,170.1,144.3,169.2,143.4,168.9z"/>
					<path class="st3" d="M142.7,174.1h-4.9c-1.9,0-3.5-1.6-3.5-3.5c0-1.2,0.6-2.3,1.6-2.9c0-0.1,0-0.2,0-0.3c0-2.4,1.9-4.3,4.3-4.3
						c2.4,0,4.3,1.9,4.3,4.3c0,0.4-0.1,0.9-0.2,1.3c0.9,0.5,1.4,1.5,1.4,2.5C145.6,172.8,144.3,174.1,142.7,174.1z M140.1,164.3
						c-1.7,0-3,1.4-3,3c0,0.2,0,0.4,0,0.5l0.1,0.5l-0.4,0.2c-0.8,0.4-1.3,1.2-1.3,2c0,1.3,1,2.3,2.3,2.3h4.9c0.9,0,1.7-0.8,1.7-1.7
						c0-0.7-0.5-1.4-1.2-1.6l-0.7-0.2l0.3-0.6c0.2-0.4,0.3-0.9,0.3-1.3C143.2,165.7,141.8,164.3,140.1,164.3z"/>
				</g>
				<g>
					<line class="st2" x1="140.1" y1="173.5" x2="140.1" y2="177.1"/>
					<rect x="139.4" y="173.5" class="st3" width="1.2" height="3.6"/>
				</g>
			</g>
			<g>
				<path class="st0" d="M185.1,76.2c-0.1,0-0.1,0-0.2,0c-0.1-2-1.8-3.6-3.8-3.6c-2.1,0-3.8,1.7-3.8,3.8c-0.3-0.1-0.7-0.2-1-0.2
					c-1.7,0-3.1,1.4-3.1,3.1s1.4,3.1,3.1,3.1c1.5,0,7.4,0,8.8,0c1.7,0,3.1-1.4,3.1-3.1S186.7,76.2,185.1,76.2z"/>
				<path class="st3" d="M185.1,82.9h-8.8c-2,0-3.7-1.7-3.7-3.7s1.7-3.7,3.7-3.7c0.2,0,0.3,0,0.5,0c0.4-2.1,2.2-3.6,4.3-3.6
					s3.9,1.5,4.3,3.6c1.9,0.2,3.4,1.7,3.4,3.7C188.7,81.3,187.1,82.9,185.1,82.9z M176.3,76.8c-1.4,0-2.5,1.1-2.5,2.5
					s1.1,2.5,2.5,2.5h8.8c1.4,0,2.5-1.1,2.5-2.5s-1.2-2.6-2.6-2.4h-0.6l-0.1-0.6c-0.1-1.7-1.5-3-3.2-3s-3.2,1.4-3.2,3.2v0.9
					l-0.8-0.3C176.8,76.8,176.5,76.8,176.3,76.8z"/>
			</g>
			<g>
				<path class="st0" d="M108.9,41.1c-0.5,0-1,0.1-1.5,0.3c-0.2-1.9-1.8-3.4-3.8-3.4c-1.6,0-3,1-3.5,2.4c-2,0.1-3.7,1.8-3.7,3.8
					c0,2.1,1.7,3.8,3.8,3.8c1.6,0,6.9,0,8.6,0c1.9,0,3.5-1.6,3.5-3.5C112.4,42.7,110.8,41.1,108.9,41.1z"/>
				<path class="st3" d="M108.9,48.7h-8.6c-2.5,0-4.5-2-4.5-4.5c0-2.3,1.7-4.1,3.9-4.4c0.8-1.5,2.3-2.4,3.9-2.4c2,0,3.7,1.3,4.3,3.2
					c0.3-0.1,0.7-0.1,1-0.1c2.3,0,4.1,1.8,4.1,4.1C113,46.8,111.2,48.7,108.9,48.7z M103.6,38.6c-1.3,0-2.5,0.8-3,2l-0.2,0.4H100
					c-1.7,0.1-3.1,1.5-3.1,3.2c0,1.8,1.4,3.2,3.2,3.2h8.6c1.6,0,2.9-1.3,2.9-2.9s-1.3-2.9-2.9-2.9c-0.4,0-0.8,0.1-1.2,0.3l-0.8,0.4
					l-0.1-0.8C106.6,39.9,105.3,38.6,103.6,38.6z"/>
			</g>
			<g>
				<path class="st0" d="M252.4,45.9c-0.2,0-0.4,0-0.6,0c-0.1-5.6-4.7-10.1-10.4-10.1c-4.2,0-7.8,2.5-9.4,6.1
					c-0.6-0.2-1.3-0.3-2-0.3c-3.4,0-6.1,2.7-6.1,6.1c0,3.4,2.7,6.1,6.1,6.1c1.3,0,21.3,0,22.4,0c2.2,0,4-1.8,4-4
					C256.3,47.7,254.6,45.9,252.4,45.9z"/>
				<path class="st3" d="M252.4,54.5H230c-3.7,0-6.8-3-6.8-6.8s3-6.8,6.8-6.8c0.6,0,1.1,0.1,1.7,0.2c1.9-3.6,5.6-6,9.8-6
					c5.7,0,10.5,4.5,10.9,10.1c2.5,0,4.5,2.1,4.5,4.6C256.9,52.4,254.9,54.5,252.4,54.5z M230,42.2c-3,0-5.5,2.5-5.5,5.5
					s2.5,5.5,5.5,5.5h22.4c1.8,0,3.3-1.5,3.3-3.3s-1.5-3.3-3.3-3.3c-0.2,0-0.3,0-0.5,0l-0.7,0.1V46c-0.1-5.3-4.5-9.5-9.8-9.5
					c-3.8,0-7.3,2.2-8.9,5.7l-0.2,0.5l-0.5-0.2C231.2,42.3,230.6,42.2,230,42.2z"/>
			</g>
		</g>
		<g>
			<g>
				<path class="st3" d="M289.8,57h-1.2c0-2.5-2-4.5-4.5-4.5v-1.2c2.2,0,4.2,1.3,5.1,3.2c0.9-1.9,2.9-3.2,5.1-3.2v1.2
					C291.8,52.5,289.8,54.5,289.8,57z"/>
			</g>
			<g>
				<path class="st3" d="M199,32h-1.2c0-2.5-2-4.5-4.5-4.5v-1.2c2.2,0,4.2,1.3,5.1,3.2c0.9-1.9,2.9-3.2,5.1-3.2v1.2
					C201,27.5,199,29.5,199,32z"/>
			</g>
			<g>
				<path class="st3" d="M108.7,86.2h-1.2c0-1.8-1.4-3.2-3.2-3.2v-1.2c1.6,0,3.1,0.9,3.8,2.2c0.8-1.3,2.2-2.2,3.8-2.2V83
					C110.1,83,108.7,84.5,108.7,86.2z"/>
			</g>
			<g>
				<path class="st3" d="M136.9,55.3h-1.2c0-1.3-1.1-2.4-2.4-2.4v-1.2c1.3,0,2.4,0.6,3,1.6c0.7-1,1.8-1.6,3-1.6v1.2
					C138,52.9,136.9,54,136.9,55.3z"/>
			</g>
			<g>
				<path class="st3" d="M53.1,66.4h-1.2c0-2.5-2-4.5-4.5-4.5v-1.2c2.2,0,4.2,1.3,5.1,3.2c0.9-1.9,2.9-3.2,5.1-3.2v1.2
					C55.2,61.9,53.1,63.9,53.1,66.4z"/>
			</g>
		</g>
	</g>
</g>
</svg>
