<?xml version="1.0" encoding="UTF-8" standalone="no"?>
<svg width="42px" height="31px" viewBox="0 0 42 31" version="1.1" xmlns="http://www.w3.org/2000/svg" xmlns:xlink="http://www.w3.org/1999/xlink">
    <!-- Generator: Sketch 3.7.2 (28276) - http://www.bohemiancoding.com/sketch -->
    <title>Group 2</title>
    <desc>Created with Sketch.</desc>
    <defs></defs>
    <g id="Page-1" stroke="none" stroke-width="1" fill="none" fill-rule="evenodd">
        <g id="Mainpage-image-1-–-1280-Copy-2" transform="translate(-170.000000, -1560.000000)" fill="#FFFFFF">
            <g id="Group-2" transform="translate(170.000000, 1560.000000)">
                <path d="M26,19.7034892 C26,14.2777789 27.3117886,10.0300825 29.9354051,6.96027268 C32.5590216,3.89046286 36.2445229,1.87369945 40.9920195,0.909921955 L40.9920195,6.47838634 C37.3867777,7.58494569 34.9595227,9.58386163 33.7101815,12.4751941 C32.9962722,14.010099 32.7107128,15.4914385 32.8534946,16.9192571 L41.2597341,16.9192571 L41.2597341,31.0010468 L26,31.0010468 L26,19.7034892 Z" id="Path-Copy-2"></path>
                <path d="M0,19.7034892 C0,14.3491698 1.27609366,10.1193209 3.82831926,7.0138156 C6.38054487,3.90831033 10.1017411,1.87369945 14.9920195,0.909921955 L14.9920195,6.47838634 C11.3510823,7.62064115 8.90597973,9.58386217 7.65663852,12.3681083 C7.01412019,13.8316223 6.74640823,15.3486567 6.85349462,16.9192571 L15.2597341,16.9192571 L15.2597341,31.0010468 L0,31.0010468 L0,19.7034892 Z" id="Path-Copy"></path>
            </g>
        </g>
    </g>
</svg>